<?xml version="1.0" encoding="UTF-8" standalone="no"?>
<svg width="4120px" height="1542px" viewBox="0 0 4120 1542" version="1.1" xmlns="http://www.w3.org/2000/svg" xmlns:xlink="http://www.w3.org/1999/xlink" xmlns:sketch="http://www.bohemiancoding.com/sketch/ns">
    <!-- Generator: Sketch 3.3.3 (12072) - http://www.bohemiancoding.com/sketch -->
    <title>1</title>
    <desc>Created with Sketch.</desc>
    <defs></defs>
    <g id="Page-1" stroke="none" stroke-width="1" fill="none" fill-rule="evenodd" sketch:type="MSPage">
        <path d="M4125.63778,1413 L4126,1413 L4125.63778,1358.59857 L4125.63778,1352.82053 L4125.59931,1352.82053 L4125.03468,1268.01755 L4144.73356,1268.01755 L4144.73356,964 L4129.02102,964 L4129.02102,906.222273 L4129,906.222273 L4129,680 L4121.10787,678.246129 L4116.63857,6.99835832 L4110.63909,6.99835832 L4106.63944,16.9960131 L4105.63953,10.9974202 L4101.63988,11.9971857 L4097.64023,7.9981238 L4093.64058,14.9964821 L4096.64032,20.995075 L4090.64084,18.995544 L4084.64136,22.9946059 L4086.64119,28.9931988 L4086.64119,34.9917916 L4092.64067,32.9922607 L4092.64067,39.990619 L4096.64032,40.9903845 L4109.63918,40.9903845 L4105.63953,46.9889773 L4097.64023,51.9878047 L4094.64049,44.9894463 L4086.64119,42.9899154 L4086.64119,50.9880392 L4088.64101,59.9859285 L4081.64163,51.9878047 L4070.64259,45.9892118 L4067.64285,36.9913226 L4064.64311,40.9903845 L4059.64355,35.9915571 L4060.64346,27.9934333 L4060.64346,21.9948404 L4055.6439,19.9953095 L4057.64372,14.9964821 L4056.64381,6.99835832 L4052.64416,7.9981238 L4054.64398,0 L4050.64433,0 L4047.64459,1.99953095 L4045.64477,6.99835832 L4045.64477,12.9969512 L4040.64521,12.9969512 L4038.64538,8.99788927 L4038.64538,0 L4032.6459,0 L4029.64617,2.99929642 L4026.64643,2.99929642 L4023.64669,3.9990619 L4023.64669,9.99765474 L4018.64713,11.9971857 L4018.64713,17.9957785 L4021.64686,14.9964821 L4024.6466,14.9964821 L4024.6466,20.995075 L4021.64686,24.9941369 L4017.64721,21.9948404 L4012.64765,21.9948404 L4012.64765,27.9934333 L4017.64721,29.9929642 L4016.6473,38.9908535 L4011.64774,39.990619 L4008.648,42.9899154 L4011.64774,51.9878047 L4017.64721,52.9875701 L4020.64695,52.9875701 L4024.6466,57.9863975 L4020.64695,58.986163 L4014.64748,62.9852249 L4009.64791,65.9845213 L4006.64817,70.9833487 L4009.64791,75.9821761 L4013.64756,75.9821761 L4019.64704,74.9824106 L4020.64695,81.9807689 L4013.64756,92.9781891 L4009.64791,100.976313 L4013.64756,100.976313 L4016.6473,98.976782 L4019.64704,96.977251 L4022.64678,97.9770165 L4026.64643,95.9774855 L4023.64669,101.976078 L4018.64713,105.97514 L4021.64686,107.974671 L4017.64721,110.973968 L4012.64765,108.974437 L4006.64817,101.976078 L4005.64826,106.974906 L4001.64861,104.975375 L3995.64913,104.975375 L3990.64957,104.975375 L3986.64992,107.974671 L3983.65018,107.974671 L3986.64992,99.9765474 L3981.65036,99.9765474 L3979.65053,92.9781891 L3976.65079,90.9786582 L3972.65114,93.9779546 L3968.65149,93.9779546 L3962.65201,92.9781891 L3955.65263,90.9786582 L3952.65289,92.9781891 L3949.65315,94.9777201 L3951.65298,101.976078 L3948.65324,108.974437 L3950.65306,112.973499 L3947.65332,112.973499 L3941.65385,112.973499 L3938.65411,114.97303 L3940.65394,122.971153 L3943.65367,119.971857 L3942.65376,124.970684 L3937.6542,124.970684 L3941.65385,135.968105 L3944.65359,138.967401 L3947.65332,136.96787 L3946.65341,142.966463 L3951.65298,143.966228 L3957.65245,136.96787 L3958.65236,129.969512 L3962.65201,127.969981 L3965.65175,128.969746 L3968.65149,127.969981 L3971.65123,134.968339 L3972.65114,140.966932 L3966.65167,148.965056 L3966.65167,156.963179 L3961.6521,159.962476 L3960.65219,164.961303 L3955.65263,166.960834 L3953.6528,173.959193 L3950.65306,176.958489 L3952.65289,182.957082 L3956.65254,181.957316 L3956.65254,187.955909 L3963.65193,191.954971 L3969.6514,186.956144 L3970.65132,193.954502 L3976.65079,191.954971 L3971.65123,202.952391 L3978.65062,195.954033 L3978.65062,202.952391 L3975.65088,210.950515 L3975.65088,218.948639 L3972.65114,223.947466 L3974.65097,228.946294 L3981.65036,234.944886 L3977.65071,235.944652 L3975.65088,240.943479 L3972.65114,245.942307 L3968.65149,241.943245 L3962.65201,232.945356 L3956.65254,225.946997 L3950.65306,219.948404 L3944.65359,217.948873 L3939.65402,216.949108 L3936.65428,213.949812 L3933.65455,213.949812 L3922.65551,214.949577 L3925.65525,208.950984 L3928.65498,205.951688 L3926.65516,199.953095 L3923.65542,190.955206 L3916.65603,190.955206 L3917.65594,185.956378 L3913.65629,183.956847 L3911.65647,189.95544 L3909.65664,183.956847 L3904.65708,186.956144 L3908.65673,194.954268 L3904.65708,194.954268 L3900.65743,194.954268 L3901.65734,201.952626 L3898.6576,201.952626 L3895.65786,204.951922 L3891.65821,204.951922 L3892.65813,209.95075 L3886.65865,215.949342 L3893.65804,217.948873 L3891.65821,222.947701 L3892.65813,227.946528 L3895.65786,227.946528 L3901.65734,230.945825 L3904.65708,235.944652 L3900.65743,239.943714 L3897.65769,241.943245 L3894.65795,243.942776 L3896.65778,249.941369 L3894.65795,255.939961 L3899.65751,259.939023 L3903.65717,259.939023 L3907.65682,261.938554 L3910.65655,259.939023 L3908.65673,265.937616 L3902.65725,265.937616 L3893.65804,272.935975 L3896.65778,276.935036 L3893.65804,279.934333 L3890.6583,279.934333 L3889.65839,285.932926 L3892.65813,288.932222 L3895.65786,291.931519 L3900.65743,291.931519 L3903.65717,288.932222 L3909.65664,287.932457 L3908.65673,292.931284 L3913.65629,300.929408 L3908.65673,305.928235 L3911.65647,306.928001 L3918.65586,311.926828 L3915.65612,307.927766 L3919.65577,304.92847 L3915.65612,303.928704 L3916.65603,298.929877 L3919.65577,300.929408 L3922.65551,296.930346 L3925.65525,296.930346 L3926.65516,288.932222 L3932.65463,282.933629 L3929.6549,291.931519 L3933.65455,291.931519 L3937.6542,293.931049 L3938.65411,288.932222 L3941.65385,291.931519 L3944.65359,288.932222 L3941.65385,282.933629 L3937.6542,281.933864 L3940.65394,275.935271 L3945.6535,273.93574 L3942.65376,279.934333 L3944.65359,283.933395 L3948.65324,281.933864 L3954.65271,273.93574 L3958.65236,270.936444 L3963.65193,267.937147 L3962.65201,272.935975 L3966.65167,268.936913 L3970.65132,268.936913 L3964.65184,273.93574 L3968.65149,278.934567 L3963.65193,284.93316 L3966.65167,285.932926 L3971.65123,280.934098 L3969.6514,286.932691 L3973.65105,291.931519 L3975.65088,296.930346 L3978.65062,291.931519 L3979.65053,285.932926 L3980.65044,292.931284 L3977.65071,298.929877 L3980.65044,302.928939 L3977.65071,305.928235 L3979.65053,310.927063 L3984.65009,311.926828 L3990.64957,314.926124 L3994.64922,316.925655 L3998.64887,316.925655 L3995.64913,319.924952 L3993.64931,323.924014 L3996.64905,328.922841 L4000.6487,335.921199 L4005.64826,337.92073 L3999.64878,340.920027 L3995.64913,340.920027 L3994.64922,335.921199 L3991.64948,331.922137 L3984.65009,327.923076 L3977.65071,330.922372 L3972.65114,327.923076 L3968.65149,328.922841 L3965.65175,329.922607 L3959.65228,331.922137 L3957.65245,335.921199 L3947.65332,334.921434 L3944.65359,339.920261 L3949.65315,341.919792 L3955.65263,345.918854 L3951.65298,346.91862 L3953.6528,351.917447 L3948.65324,349.917916 L3945.6535,353.916978 L3945.6535,359.915571 L3942.65376,356.916274 L3939.65402,362.914867 L3942.65376,367.913695 L3945.6535,374.912053 L3942.65376,377.911349 L3940.65394,385.909473 L3947.65332,382.910177 L3951.65298,386.909239 L3947.65332,379.91088 L3949.65315,372.912522 L3951.65298,378.911115 L3954.65271,376.911584 L3957.65245,376.911584 L3957.65245,382.910177 L3956.65254,390.9083 L3953.6528,390.9083 L3947.65332,390.9083 L3941.65385,392.907831 L3929.6549,395.907128 L3930.65481,401.905721 L3927.65507,398.906424 L3928.65498,391.908066 L3925.65525,390.9083 L3920.65568,392.907831 L3917.65594,391.908066 L3912.65638,391.908066 L3909.65664,389.908535 L3903.65717,390.9083 L3907.65682,393.907597 L3904.65708,395.907128 L3899.65751,395.907128 L3896.65778,398.906424 L3898.6576,404.905017 L3901.65734,411.903375 L3901.65734,419.901499 L3904.65708,419.901499 L3908.65673,421.90103 L3910.65655,427.899623 L3907.65682,439.896809 L3905.65699,432.89845 L3901.65734,435.897747 L3899.65751,439.896809 L3894.65795,437.897278 L3890.6583,437.897278 L3894.65795,435.897747 L3889.65839,432.89845 L3885.65874,434.897981 L3881.65909,442.896105 L3885.65874,453.893525 L3881.65909,452.89376 L3878.65935,453.893525 L3877.65944,459.892118 L3881.65909,463.89118 L3881.65909,470.889538 L3879.65926,474.8886 L3876.65952,478.887662 L3871.65996,481.886959 L3871.65996,488.885317 L3875.65961,489.885082 L3875.65961,498.882972 L3881.65909,497.883206 L3886.65865,497.883206 L3881.65909,493.884144 L3881.65909,487.885552 L3884.65882,491.884613 L3890.6583,488.885317 L3893.65804,483.88649 L3894.65795,488.885317 L3901.65734,490.884848 L3905.65699,494.88391 L3909.65664,496.883441 L3908.65673,505.88133 L3912.65638,508.880626 L3911.65647,501.882268 L3916.65603,503.881799 L3916.65603,509.880392 L3914.65621,515.878985 L3919.65577,516.87875 L3922.65551,519.878047 L3926.65516,521.877578 L3924.65533,516.87875 L3927.65507,520.877812 L3931.65472,522.877343 L3926.65516,524.876874 L3925.65525,531.875232 L3932.65463,531.875232 L3925.65525,533.874763 L3920.65568,531.875232 L3915.65612,535.874294 L3913.65629,540.873122 L3916.65603,541.872887 L3920.65568,544.872184 L3925.65525,548.871245 L3929.6549,546.871714 L3932.65463,550.870776 L3928.65498,553.870073 L3922.65551,550.870776 L3914.65621,553.870073 L3909.65664,552.870307 L3916.65603,549.871011 L3910.65655,547.87148 L3905.65699,543.872418 L3898.6576,545.871949 L3895.65786,553.870073 L3901.65734,560.868431 L3902.65725,554.869838 L3906.6569,554.869838 L3906.6569,561.868197 L3906.6569,567.866789 L3910.65655,568.866555 L3916.65603,570.866086 L3921.65559,570.866086 L3917.65594,575.864913 L3914.65621,571.865851 L3910.65655,574.865148 L3915.65612,582.863272 L3918.65586,582.863272 L3919.65577,587.862099 L3921.65559,580.863741 L3923.65542,576.864679 L3930.65481,567.866789 L3935.65437,565.867259 L3940.65394,565.867259 L3932.65463,572.865617 L3924.65533,578.86421 L3926.65516,582.863272 L3929.6549,586.862333 L3932.65463,586.862333 L3938.65411,586.862333 L3937.6542,592.860926 L3942.65376,591.861161 L3948.65324,597.859754 L3945.6535,602.858581 L3942.65376,601.858816 L3939.65402,603.858347 L3931.65472,606.857643 L3928.65498,603.858347 L3921.65559,603.858347 L3918.65586,607.857408 L3919.65577,617.855063 L3921.65559,622.853891 L3920.65568,629.852249 L3917.65594,634.851076 L3914.65621,631.85178 L3911.65647,646.848262 L3906.6569,647.848027 L3900.65743,645.848496 L3904.65708,640.849669 L3899.65751,627.852718 L3893.65804,628.852483 L3893.65804,618.854829 L3885.65874,616.855298 L3882.659,619.854594 L3878.65935,620.85436 L3875.65961,613.856001 L3877.65944,609.856939 L3881.65909,613.856001 L3881.65909,600.85905 L3877.65944,598.859519 L3870.66005,599.859285 L3866.6604,601.858816 L3863.66066,600.85905 L3858.66109,602.858581 L3858.66109,609.856939 L3853.66153,611.85647 L3850.66179,612.856236 L3848.66197,619.854594 L3843.6624,620.85436 L3842.66249,626.852952 L3845.66223,624.853421 L3848.66197,628.852483 L3843.6624,632.851545 L3846.66214,635.850842 L3849.66188,633.851311 L3849.66188,642.8492 L3853.66153,637.850373 L3850.66179,645.848496 L3852.66162,649.847558 L3855.66136,650.847324 L3860.66092,656.845917 L3870.66005,656.845917 L3867.66031,658.845448 L3867.66031,664.84404 L3861.66083,659.845213 L3858.66109,665.843806 L3860.66092,671.842399 L3855.66136,671.842399 L3854.66144,680.840288 L3858.66109,681.840054 L3861.66083,682.839819 L3864.66057,684.83935 L3859.66101,687.838646 L3855.66136,683.839584 L3852.66162,686.838881 L3853.95175,690.70872 L3849,691 L3837.65104,693.837239 L3834.39583,693.837239 L3833,693.75 L3833,685.839115 L3833.66328,685.839115 L3839.66275,689.838177 L3833,683.176405 L3833,683.176405 L3833,612 L3731,612 L3731,716.219512 L3731,612 L3713,616 L3713,706 L3684,706 L3684,698 L3666,698 L3666,664 L3595,664 L3595,698 L3579,698 L3579,706 L3498,706 L3498,707 L3489,727.860927 L3489,739.368421 L3499,742 L3507,749 L3731,716.219512 L3136.35544,754.801707 L3136.35544,754.801707 L3134.7243,753.823168 L3128.72482,753.823168 L3128.72482,755.296803 L3122.79597,755.681484 L3123.72526,753.823168 L3122.84239,747.643965 L3489,739.368421 L3482,737.526316 L3482,579 L3433,579 L3433,559 L3385,559 L3385,569 L3385,559 L3376,562 L3376,579 L3376,579 L3338,579 L3338,714.291667 L3338,714.291667 L3338,579 L3326,582 L3326,713 L3318,713 L3317,717 L3317,723 L3307,723 L3303,727 L3299,727 L3297,722 L3290,717 L3280,715 L3279,720 L3274,717 L3268,717 L3265,711 L3259,711 L3255,708 L3249,714 L3248,709 L3238.16456,709 L3225.95233,480.729455 L3221.63347,378.933496 L3211,319 L3202.0092,379.26794 L3197.59657,480.857449 L3191.82303,650 L3172,650 L3172,650 L3172,629 L3122,629 L3122,639.5 L3122,629 L3111,632 L3111,650 L3111,650 L3091,650 L3091,716.283559 L3091,716.283559 L3091,650 L3077,653 L3077,715.264948 L3068.73006,708.833721 L3067.73015,713.832549 L3058.73094,714.832314 L3050.73163,713.832549 L3045.73207,721.830673 L3041.73242,718.831376 L3036.73286,721.830673 L3034.73303,724.829969 L3027.73364,724.829969 L3033.73312,720.830907 L3021.73417,721.830673 L3021.73417,726.8295 L3010.73513,733.827858 L3010,733.761038 L3010,326 L2842,326 L2842,384.5 L2842,326 L2820,335 L2820,443 L2790,443 L2790,506 L2790,443 L2768,451 L2768,506 L2730,506 L2730,522 L2730,522 L2730,522 L2730,507 L2719,510 L2719,522 L2663,522 L2663,920.99363 L2663,920.99363 L2663,920.99363 L2663,522 L2652,529 L2652,706 L2558,706 L2558,679 L2516,679 L2516,614 L2496,614 L2496,598 L2432,598 L2432,606 L2432,598 L2423,601 L2423,614 L2423,614 L2358,614 L2358,655 L2339,655 L2339,651 L2327,651 L2327,665 L2327,665 L2309,665 L2309,725.592593 L2296,728 L2296,744 L2291,744 L2284,742 L2278,750 L2273,751 L2273,754 L2267,754 L2262,754 L2253,751 L2247,751 L2239,760 L2240,765 L2236,765 L2224,765 L2223,762 L2215,761 L2207,761 L2198,760 L2195,755 L2191,750 L2188,753 L2178,748 L2174,749 L2169,746 L2165,746.888889 L2165,746.888889 L2165,702 L2135,702 L2135,683 L2017,683 L2017,502 L1980,502 L1980,502 L1980,472 C1980,472 1971,446 1922,446 C1873,446 1864,472 1864,472 L1864,502 L1829,502 L1829,688 L1798,688 L1798,711 L1760,711 L1760,736 L1724,736 L1724,736 L1724,616 L1722,616 L1722,611 L1701,611 L1701,611 L1701,599 L1678,599 L1678,616 L1678,616 L1658.78947,616 L1661,602 L1653,601 L1651,597 L1639,597 L1637,601 L1629,602 L1631.94737,616 L1621,616 L1621,604 L1591,604 L1591,616 L1566,616 L1566,751.657143 L1553,755 L1553,763.217391 L1547,764 L1540,766 L1532,763 L1528,773 L1522,776 L1521,781 L1514,784 L1521,792 L1513,793 L1504,790 L1498,772 L1491,760 L1482,754 L1473,748 L1467,748 L1461,743 L1453,739 L1440,745 L1434,740 L1421,738.761905 L1421,582 L1403,582 L1403,564 L1366,564 L1366,536 L1337,536 L1337,575 L1337,575 L1312,575 L1312,409 L1263,409 L1263,384 L937,384 L937,409 L875,409 L875,546 L760,546 L760,754 L726,754 L726,742 L651,742 L651,754 L639,754 L639,754 L639,742 L606,742 L606,696 L593,691 L593,722.5 L593,691 L521,691 L513,677.5 L513,691 L513,677.5 L513,664 L494.666667,664 L497,657 L491,653 L499,638 L490,638 L483,646 L478,639 L468,637 L468,646 L457,637 L463,655 L455,654 L457.5,664 L385,664 L385,691 L385,691 L336,691 L336,740 L320,740 L320,705 L310.818182,705 L289,685 L267.181818,705 L267.181818,705 L259,705 L259,740 L249.802592,740 L251.975992,737.82692 L249,736.711087 L249,709 L148,709 L148,709 L148,689 L141,696 L131,632 L131,616 L127,616 L127,632 L118.082763,696.082763 L112,690 L112,718.831376 L108.988476,718.831376 L103.988913,714.832314 L99.9892619,712.832783 L91.9899603,711.833018 L83.9906587,710.833252 L81.9908333,707.833956 L76.9912698,705.834425 L75.9913571,708.833721 L71.9917063,704.834659 L66.9921428,704.834659 L60.9926666,705.834425 L55.9931032,699.835832 L53,699.835832 L53,671 L49,671 L49,701.033037 L46.9938889,701.835363 L42.9942381,700.835598 L39.9945,696.836536 L33.9950238,695.83677 L30.9952857,699.835832 L25.9957222,700.835598 L24.9958095,695.83677 L21.9960714,693.837239 L16.9965079,695.83677 L15.9965952,700.835598 L11.9969444,700.835598 L9.99711904,695.83677 L-0.00200794163,690.837943 L-19.0130463,1352.82053 L-23,1352.82053 L-23,1543.05167 L4125.63778,1543.05167 L4125.63778,1413 L4125.63778,1413 Z M3620,590 L3620,604 L3616,604 L3619.83545,612.62977 C3605.44024,617.157895 3595,630.609724 3595,646.5 C3595,648.578287 3595.17859,650.40137 3595.52126,652 L3586,652 L3595,664 L3666,664 L3675,652 L3665.47874,652 L3665.47874,652 C3665.82141,650.40137 3666,648.578287 3666,646.5 C3666,630.309033 3655.16091,616.649672 3640.34314,612.382344 L3640.34314,612.382344 L3645,604 L3640,604 L3640,590 L3640.65517,590 L3646,582 L3641.37696,582 L3632,569.042695 L3632,532 L3629,532 L3629,568.927543 L3629,568.927543 L3618.67968,582 L3615,582 L3619.27586,590 L3620,590 L3620,590 L3620,590 Z M3779,594 L3806,594 L3806,612 L3779,612 L3779,594 L3779,594 Z M3767,597 L3779,594 L3779,612 L3767,612 L3767,597 L3767,597 Z" id="1" fill="#6B4C7F" sketch:type="MSShapeGroup"></path>
    </g>
</svg>