<?xml version="1.0" encoding="UTF-8" standalone="no"?>
<svg width="4120px" height="1542px" viewBox="0 0 4120 1542" version="1.1" xmlns="http://www.w3.org/2000/svg" xmlns:xlink="http://www.w3.org/1999/xlink" xmlns:sketch="http://www.bohemiancoding.com/sketch/ns">
    <!-- Generator: Sketch 3.3.3 (12072) - http://www.bohemiancoding.com/sketch -->
    <title>2</title>
    <desc>Created with Sketch.</desc>
    <defs></defs>
    <g id="Page-1" stroke="none" stroke-width="1" fill="none" fill-rule="evenodd" sketch:type="MSPage">
        <g id="Group" sketch:type="MSLayerGroup" transform="translate(0.000000, -1196.000000)" fill="#997A98">
            <path d="M4125.63778,2609 L4126,2609 L4125.63778,2554.59857 L4125.63778,2548.82053 L4125.59931,2548.82053 L4125.03468,2464.01755 L4144.73356,2464.01755 L4144.73356,2160 L4129.02102,2160 L4129.02102,2102.22227 L4129,2102.22227 L4129,1876 L4121.10787,1874.24613 L4116.63857,1202.99836 L4110.63909,1202.99836 L4106.63944,1212.99601 L4105.63953,1206.99742 L4101.63988,1207.99719 L4097.64023,1203.99812 L4093.64058,1210.99648 L4096.64032,1216.99507 L4090.64084,1214.99554 L4084.64136,1218.99461 L4086.64119,1224.9932 L4086.64119,1230.99179 L4092.64067,1228.99226 L4092.64067,1235.99062 L4096.64032,1236.99038 L4109.63918,1236.99038 L4105.63953,1242.98898 L4097.64023,1247.9878 L4094.64049,1240.98945 L4086.64119,1238.98992 L4086.64119,1246.98804 L4088.64101,1255.98593 L4081.64163,1247.9878 L4070.64259,1241.98921 L4067.64285,1232.99132 L4064.64311,1236.99038 L4059.64355,1231.99156 L4060.64346,1223.99343 L4060.64346,1217.99484 L4055.6439,1215.99531 L4057.64372,1210.99648 L4056.64381,1202.99836 L4052.64416,1203.99812 L4054.64398,1196 L4050.64433,1196 L4047.64459,1197.99953 L4045.64477,1202.99836 L4045.64477,1208.99695 L4040.64521,1208.99695 L4038.64538,1204.99789 L4038.64538,1196 L4032.6459,1196 L4029.64617,1198.9993 L4026.64643,1198.9993 L4023.64669,1199.99906 L4023.64669,1205.99765 L4018.64713,1207.99719 L4018.64713,1213.99578 L4021.64686,1210.99648 L4024.6466,1210.99648 L4024.6466,1216.99507 L4021.64686,1220.99414 L4017.64721,1217.99484 L4012.64765,1217.99484 L4012.64765,1223.99343 L4017.64721,1225.99296 L4016.6473,1234.99085 L4011.64774,1235.99062 L4008.648,1238.98992 L4011.64774,1247.9878 L4017.64721,1248.98757 L4020.64695,1248.98757 L4024.6466,1253.9864 L4020.64695,1254.98616 L4014.64748,1258.98522 L4009.64791,1261.98452 L4006.64817,1266.98335 L4009.64791,1271.98218 L4013.64756,1271.98218 L4019.64704,1270.98241 L4020.64695,1277.98077 L4013.64756,1288.97819 L4009.64791,1296.97631 L4013.64756,1296.97631 L4016.6473,1294.97678 L4019.64704,1292.97725 L4022.64678,1293.97702 L4026.64643,1291.97749 L4023.64669,1297.97608 L4018.64713,1301.97514 L4021.64686,1303.97467 L4017.64721,1306.97397 L4012.64765,1304.97444 L4006.64817,1297.97608 L4005.64826,1302.97491 L4001.64861,1300.97537 L3995.64913,1300.97537 L3990.64957,1300.97537 L3986.64992,1303.97467 L3983.65018,1303.97467 L3986.64992,1295.97655 L3981.65036,1295.97655 L3979.65053,1288.97819 L3976.65079,1286.97866 L3972.65114,1289.97795 L3968.65149,1289.97795 L3962.65201,1288.97819 L3955.65263,1286.97866 L3952.65289,1288.97819 L3949.65315,1290.97772 L3951.65298,1297.97608 L3948.65324,1304.97444 L3950.65306,1308.9735 L3947.65332,1308.9735 L3941.65385,1308.9735 L3938.65411,1310.97303 L3940.65394,1318.97115 L3943.65367,1315.97186 L3942.65376,1320.97068 L3937.6542,1320.97068 L3941.65385,1331.9681 L3944.65359,1334.9674 L3947.65332,1332.96787 L3946.65341,1338.96646 L3951.65298,1339.96623 L3957.65245,1332.96787 L3958.65236,1325.96951 L3962.65201,1323.96998 L3965.65175,1324.96975 L3968.65149,1323.96998 L3971.65123,1330.96834 L3972.65114,1336.96693 L3966.65167,1344.96506 L3966.65167,1352.96318 L3961.6521,1355.96248 L3960.65219,1360.9613 L3955.65263,1362.96083 L3953.6528,1369.95919 L3950.65306,1372.95849 L3952.65289,1378.95708 L3956.65254,1377.95732 L3956.65254,1383.95591 L3963.65193,1387.95497 L3969.6514,1382.95614 L3970.65132,1389.9545 L3976.65079,1387.95497 L3971.65123,1398.95239 L3978.65062,1391.95403 L3978.65062,1398.95239 L3975.65088,1406.95052 L3975.65088,1414.94864 L3972.65114,1419.94747 L3974.65097,1424.94629 L3981.65036,1430.94489 L3977.65071,1431.94465 L3975.65088,1436.94348 L3972.65114,1441.94231 L3968.65149,1437.94324 L3962.65201,1428.94536 L3956.65254,1421.947 L3950.65306,1415.9484 L3944.65359,1413.94887 L3939.65402,1412.94911 L3936.65428,1409.94981 L3933.65455,1409.94981 L3922.65551,1410.94958 L3925.65525,1404.95098 L3928.65498,1401.95169 L3926.65516,1395.95309 L3923.65542,1386.95521 L3916.65603,1386.95521 L3917.65594,1381.95638 L3913.65629,1379.95685 L3911.65647,1385.95544 L3909.65664,1379.95685 L3904.65708,1382.95614 L3908.65673,1390.95427 L3904.65708,1390.95427 L3900.65743,1390.95427 L3901.65734,1397.95263 L3898.6576,1397.95263 L3895.65786,1400.95192 L3891.65821,1400.95192 L3892.65813,1405.95075 L3886.65865,1411.94934 L3893.65804,1413.94887 L3891.65821,1418.9477 L3892.65813,1423.94653 L3895.65786,1423.94653 L3901.65734,1426.94582 L3904.65708,1431.94465 L3900.65743,1435.94371 L3897.65769,1437.94324 L3894.65795,1439.94278 L3896.65778,1445.94137 L3894.65795,1451.93996 L3899.65751,1455.93902 L3903.65717,1455.93902 L3907.65682,1457.93855 L3910.65655,1455.93902 L3908.65673,1461.93762 L3902.65725,1461.93762 L3893.65804,1468.93597 L3896.65778,1472.93504 L3893.65804,1475.93433 L3890.6583,1475.93433 L3889.65839,1481.93293 L3892.65813,1484.93222 L3895.65786,1487.93152 L3900.65743,1487.93152 L3903.65717,1484.93222 L3909.65664,1483.93246 L3908.65673,1488.93128 L3913.65629,1496.92941 L3908.65673,1501.92824 L3911.65647,1502.928 L3918.65586,1507.92683 L3915.65612,1503.92777 L3919.65577,1500.92847 L3915.65612,1499.9287 L3916.65603,1494.92988 L3919.65577,1496.92941 L3922.65551,1492.93035 L3925.65525,1492.93035 L3926.65516,1484.93222 L3932.65463,1478.93363 L3929.6549,1487.93152 L3933.65455,1487.93152 L3937.6542,1489.93105 L3938.65411,1484.93222 L3941.65385,1487.93152 L3944.65359,1484.93222 L3941.65385,1478.93363 L3937.6542,1477.93386 L3940.65394,1471.93527 L3945.6535,1469.93574 L3942.65376,1475.93433 L3944.65359,1479.93339 L3948.65324,1477.93386 L3954.65271,1469.93574 L3958.65236,1466.93644 L3963.65193,1463.93715 L3962.65201,1468.93597 L3966.65167,1464.93691 L3970.65132,1464.93691 L3964.65184,1469.93574 L3968.65149,1474.93457 L3963.65193,1480.93316 L3966.65167,1481.93293 L3971.65123,1476.9341 L3969.6514,1482.93269 L3973.65105,1487.93152 L3975.65088,1492.93035 L3978.65062,1487.93152 L3979.65053,1481.93293 L3980.65044,1488.93128 L3977.65071,1494.92988 L3980.65044,1498.92894 L3977.65071,1501.92824 L3979.65053,1506.92706 L3984.65009,1507.92683 L3990.64957,1510.92612 L3994.64922,1512.92566 L3998.64887,1512.92566 L3995.64913,1515.92495 L3993.64931,1519.92401 L3996.64905,1524.92284 L4000.6487,1531.9212 L4005.64826,1533.92073 L3999.64878,1536.92003 L3995.64913,1536.92003 L3994.64922,1531.9212 L3991.64948,1527.92214 L3984.65009,1523.92308 L3977.65071,1526.92237 L3972.65114,1523.92308 L3968.65149,1524.92284 L3965.65175,1525.92261 L3959.65228,1527.92214 L3957.65245,1531.9212 L3947.65332,1530.92143 L3944.65359,1535.92026 L3949.65315,1537.91979 L3955.65263,1541.91885 L3951.65298,1542.91862 L3953.6528,1547.91745 L3948.65324,1545.91792 L3945.6535,1549.91698 L3945.6535,1555.91557 L3942.65376,1552.91627 L3939.65402,1558.91487 L3942.65376,1563.91369 L3945.6535,1570.91205 L3942.65376,1573.91135 L3940.65394,1581.90947 L3947.65332,1578.91018 L3951.65298,1582.90924 L3947.65332,1575.91088 L3949.65315,1568.91252 L3951.65298,1574.91111 L3954.65271,1572.91158 L3957.65245,1572.91158 L3957.65245,1578.91018 L3956.65254,1586.9083 L3953.6528,1586.9083 L3947.65332,1586.9083 L3941.65385,1588.90783 L3929.6549,1591.90713 L3930.65481,1597.90572 L3927.65507,1594.90642 L3928.65498,1587.90807 L3925.65525,1586.9083 L3920.65568,1588.90783 L3917.65594,1587.90807 L3912.65638,1587.90807 L3909.65664,1585.90854 L3903.65717,1586.9083 L3907.65682,1589.9076 L3904.65708,1591.90713 L3899.65751,1591.90713 L3896.65778,1594.90642 L3898.6576,1600.90502 L3901.65734,1607.90338 L3901.65734,1615.9015 L3904.65708,1615.9015 L3908.65673,1617.90103 L3910.65655,1623.89962 L3907.65682,1635.89681 L3905.65699,1628.89845 L3901.65734,1631.89775 L3899.65751,1635.89681 L3894.65795,1633.89728 L3890.6583,1633.89728 L3894.65795,1631.89775 L3889.65839,1628.89845 L3885.65874,1630.89798 L3881.65909,1638.89611 L3885.65874,1649.89353 L3881.65909,1648.89376 L3878.65935,1649.89353 L3877.65944,1655.89212 L3881.65909,1659.89118 L3881.65909,1666.88954 L3879.65926,1670.8886 L3876.65952,1674.88766 L3871.65996,1677.88696 L3871.65996,1684.88532 L3875.65961,1685.88508 L3875.65961,1694.88297 L3881.65909,1693.88321 L3886.65865,1693.88321 L3881.65909,1689.88414 L3881.65909,1683.88555 L3884.65882,1687.88461 L3890.6583,1684.88532 L3893.65804,1679.88649 L3894.65795,1684.88532 L3901.65734,1686.88485 L3905.65699,1690.88391 L3909.65664,1692.88344 L3908.65673,1701.88133 L3912.65638,1704.88063 L3911.65647,1697.88227 L3916.65603,1699.8818 L3916.65603,1705.88039 L3914.65621,1711.87898 L3919.65577,1712.87875 L3922.65551,1715.87805 L3926.65516,1717.87758 L3924.65533,1712.87875 L3927.65507,1716.87781 L3931.65472,1718.87734 L3926.65516,1720.87687 L3925.65525,1727.87523 L3932.65463,1727.87523 L3925.65525,1729.87476 L3920.65568,1727.87523 L3915.65612,1731.87429 L3913.65629,1736.87312 L3916.65603,1737.87289 L3920.65568,1740.87218 L3925.65525,1744.87125 L3929.6549,1742.87171 L3932.65463,1746.87078 L3928.65498,1749.87007 L3922.65551,1746.87078 L3914.65621,1749.87007 L3909.65664,1748.87031 L3916.65603,1745.87101 L3910.65655,1743.87148 L3905.65699,1739.87242 L3898.6576,1741.87195 L3895.65786,1749.87007 L3901.65734,1756.86843 L3902.65725,1750.86984 L3906.6569,1750.86984 L3906.6569,1757.8682 L3906.6569,1763.86679 L3910.65655,1764.86655 L3916.65603,1766.86609 L3921.65559,1766.86609 L3917.65594,1771.86491 L3914.65621,1767.86585 L3910.65655,1770.86515 L3915.65612,1778.86327 L3918.65586,1778.86327 L3919.65577,1783.8621 L3921.65559,1776.86374 L3923.65542,1772.86468 L3930.65481,1763.86679 L3935.65437,1761.86726 L3940.65394,1761.86726 L3932.65463,1768.86562 L3924.65533,1774.86421 L3926.65516,1778.86327 L3929.6549,1782.86233 L3932.65463,1782.86233 L3938.65411,1782.86233 L3937.6542,1788.86093 L3942.65376,1787.86116 L3948.65324,1793.85975 L3945.6535,1798.85858 L3942.65376,1797.85882 L3939.65402,1799.85835 L3931.65472,1802.85764 L3928.65498,1799.85835 L3921.65559,1799.85835 L3918.65586,1803.85741 L3919.65577,1813.85506 L3921.65559,1818.85389 L3920.65568,1825.85225 L3917.65594,1830.85108 L3914.65621,1827.85178 L3911.65647,1842.84826 L3906.6569,1843.84803 L3900.65743,1841.8485 L3904.65708,1836.84967 L3899.65751,1823.85272 L3893.65804,1824.85248 L3893.65804,1814.85483 L3885.65874,1812.8553 L3882.659,1815.85459 L3878.65935,1816.85436 L3875.65961,1809.856 L3877.65944,1805.85694 L3881.65909,1809.856 L3881.65909,1796.85905 L3877.65944,1794.85952 L3870.66005,1795.85928 L3866.6604,1797.85882 L3863.66066,1796.85905 L3858.66109,1798.85858 L3858.66109,1805.85694 L3853.66153,1807.85647 L3850.66179,1808.85624 L3848.66197,1815.85459 L3843.6624,1816.85436 L3842.66249,1822.85295 L3845.66223,1820.85342 L3848.66197,1824.85248 L3843.6624,1828.85155 L3846.66214,1831.85084 L3849.66188,1829.85131 L3849.66188,1838.8492 L3853.66153,1833.85037 L3850.66179,1841.8485 L3852.66162,1845.84756 L3855.66136,1846.84732 L3860.66092,1852.84592 L3870.66005,1852.84592 L3867.66031,1854.84545 L3867.66031,1860.84404 L3861.66083,1855.84521 L3858.66109,1861.84381 L3860.66092,1867.8424 L3855.66136,1867.8424 L3854.66144,1876.84029 L3858.66109,1877.84005 L3861.66083,1878.83982 L3864.66057,1880.83935 L3859.66101,1883.83865 L3855.66136,1879.83958 L3852.66162,1882.83888 L3853.95175,1886.70872 L3849,1887 L3837.65104,1889.83724 L3834.39583,1889.83724 L3832.51652,1889.71978 L3827.6638,1885.83818 L3829.66363,1881.83912 L3833.66328,1881.83912 L3839.66275,1885.83818 L3828.66371,1874.84076 L3826.66389,1878.83982 L3823.66415,1877.84005 L3818.66459,1877.84005 L3820.66441,1873.84099 L3815.66485,1870.8417 L3820.66441,1868.84216 L3813.66502,1866.84263 L3811.6652,1861.84381 L3808.66546,1857.84474 L3809.66537,1851.84615 L3804.66581,1851.84615 L3801.66607,1855.84521 L3795.66659,1860.84404 L3797.66642,1864.8431 L3797.66642,1870.8417 L3801.66607,1871.84146 L3796.66651,1876.84029 L3792.66686,1881.83912 L3794.66668,1886.83794 L3789.66712,1895.83583 L3795.84286,1904.32623 L3790.88056,1904.86758 L3789.66712,1901.83442 L3776.66825,1898.83513 L3780.93907,1905.9521 L3772.51414,1906.87118 L3767.66904,1902.83419 L3766.89391,1907.4843 L3766.89391,1907.4843 L3753,1909 L3507,1945 L3499,1938 L3480,1933 L3476,1940 L3332,1909 L3318,1909 L3317,1913 L3317,1919 L3307,1919 L3303,1923 L3299,1923 L3297,1918 L3290,1913 L3280,1911 L3279,1916 L3274,1913 L3268,1913 L3265,1907 L3259,1907 L3255,1904 L3249,1910 L3248,1905 L3237,1905 L3222,1893 L3181,1928 L3118.77475,1939.31368 L3118.77475,1939.31368 L3113.72613,1934.82669 L3113.72613,1927.82833 L3110.7264,1922.8295 L3110.7264,1917.83067 L3104.72692,1919.8302 L3096.72762,1913.83161 L3091.72805,1920.82997 L3091.72805,1914.83138 L3089.72823,1907.83302 L3080.72902,1909.83255 L3078.72919,1917.83067 L3077.72928,1911.83208 L3068.73006,1904.83372 L3067.73015,1909.83255 L3058.73094,1910.83231 L3050.73163,1909.83255 L3045.73207,1917.83067 L3041.73242,1914.83138 L3036.73286,1917.83067 L3034.73303,1920.82997 L3027.73364,1920.82997 L3033.73312,1916.83091 L3021.73417,1917.83067 L3021.73417,1922.8295 L3010.73513,1929.82786 L3010,1929.76104 L3010,1522 L2842,1522 L2842,2038 L2931.92745,2095.4117 L2949.74045,2095.4117 L2949.74045,2091.78987 L2953.7401,2093.7894 L2957.73975,2091.78987 L2960.73949,2087.7908 L2963.73923,2090.7901 L2964.73914,2099.78799 L2967.73888,2102.78729 L2967.73888,2106.78635 L2964.73914,2108.78588 L2970.73862,2110.78541 L2967.73888,2112.78494 L2965.83812,2117.06102 L2977.9073,2124.76626 L2978.73792,2119.7833 L2978.73792,2116.784 L2979.73783,2113.78471 L2972.73844,2106.78635 L2978.73792,2104.78682 L2983.73748,2111.78517 L2987.73713,2114.78447 L2991.73679,2112.78494 L2991.73679,2115.78424 L2994,2115.33166 L2994,2077.61758 L2993.73661,2077.79315 L2994,2077.13477 L2994,2051.27786 L2988.73705,2050.79948 L2991.73679,2046.80042 L2994,2043.78324 L2994,2038 L2842,2038 L2842,1522 L2820,1531 L2820,2038 L2796,2038 L2796,1718 L2663,1718 L2663,2116.99363 L2568.04881,2116.99363 L2568.04881,2141.83313 L2567.7738,2141.77814 L2562.77424,2136.77931 L2558.77459,2133.78001 L2555.77485,2139.77861 L2549.77537,2129.78095 L2545.77572,2132.78025 L2540.77616,2131.78048 L2534.77668,2133.78001 L2533.77677,2130.78072 L2521.77782,2131.78048 L2520.7779,2136.77931 L2514.77843,2136.77931 L2515.77834,2142.7779 L2513.77852,2145.7772 L2511.77869,2153.77532 L2510.77878,2146.77697 L2506.77913,2142.7779 L2506.77913,2145.7772 L2507.77904,2154.77509 L2508.77895,2159.77392 L2505.77921,2163.77298 L2497.77991,2163.77298 L2488.7807,2158.77415 L2484.78105,2155.77486 L2480.7814,2157.77439 L2477.78166,2164.77274 L2475,2166.85868 L2475,2151 L2444,2134 L2407,2140 L2399,2134 L2367,2130 L2344,2134.1194 L2344,1882.33333 L2351,1879.41667 L2351,1879.41667 L2351,1879 L2401,1879 L2401,1879 L2401,1827 L2416,1818 L2416,1848.5 L2416,1818 L2514,1818 L2514,1875 L2558,1875 L2558,1948 L2652,1948 L2652,1725 L2663,1718 L2663,2116.99363 L2675.00473,2116.99363 L2675.00473,2095.4117 L2897.0432,2095.4117 L2897.1098,2095.49494 L1412,2099.04563 L1412,1799 L1387,1799 L1387,1771 L1312,1771 L1312,1771 L1312,1605 L1263,1605 L1263,1605 L1263,1580 L937,1580 L937,1605 L875,1605 L875,1742 L875,1742 L760,1742 L760,1966 L702,1966 L719.862969,1997.55791 L719.862969,1997.55791 L715,1998 L691,1978 L667,1974 L667,1980 L650,1983 L618,1981 L613,1974 L612,1970 L606,1971.68 L606,1892 L593,1887 L593,1975.32 L593,1975.32 L593,1887 L521,1887 L513,1873.5 L513,1887 L513,1873.5 L513,1860 L494.666667,1860 L497,1853 L491,1849 L499,1834 L490,1834 L483,1842 L478,1835 L468,1833 L468,1842 L457,1833 L463,1851 L455,1850 L457.5,1860 L385,1860 L385,1887 L385,1887 L336,1887 L336,1976.86384 L335.968659,1976.81684 L327.969357,1976.81684 L323.969706,1975.81707 L323.969706,1971.81801 L319.970055,1972.81777 L321.969881,1967.81895 L313.970579,1968.81871 L308.971016,1972.81777 L304.971365,1973.81754 L304.971365,1968.81871 L301.971627,1970.81824 L301.971627,1964.81965 L296.972063,1964.81965 L292.972413,1968.81871 L287.972849,1969.81848 L287.972849,1963.81988 L294.972238,1957.82129 L290.972587,1955.82176 L287.972849,1958.82106 L282.973286,1961.82035 L276.973809,1956.82153 L277.973722,1951.8227 L276.973809,1947.82364 L273.974071,1941.82504 L269.974421,1939.82551 L267.974595,1934.82669 L266.974682,1937.82598 L266.974682,1943.82457 L265.97477,1948.8234 L261.975119,1952.82246 L258.975381,1948.8234 L255.975643,1946.82387 L252.975905,1948.8234 L249.976167,1946.82387 L246.976429,1948.8234 L242.976778,1945.82411 L243.97669,1939.82551 L248.976254,1941.82504 L248.976254,1936.82622 L251.975992,1933.82692 L243.97669,1930.82762 L242.976778,1926.82856 L234.977476,1926.82856 L231.977738,1923.82927 L226.978175,1923.82927 L225.978262,1927.82833 L222.978524,1930.82762 L220.978698,1927.82833 L219.978786,1935.82645 L214.979222,1936.82622 L213.979309,1928.82809 L215.979135,1917.83067 L210.979571,1922.8295 L208.979746,1916.83091 L210.979571,1911.83208 L205.980008,1908.83278 L200.980444,1909.83255 L197.980706,1916.83091 L197.980706,1920.82997 L194.980968,1914.83138 L188.981492,1913.83161 L189.981405,1917.83067 L187.981579,1920.82997 L185.981754,1928.82809 L182.982016,1933.82692 L179.982278,1926.82856 L180.98219,1921.82973 L176.98254,1918.83044 L173.982802,1915.83114 L168.983238,1915.83114 L164.983587,1920.82997 L164.983587,1924.82903 L162.983762,1920.82997 L155.984373,1918.83044 L151.984722,1915.83114 L149.984897,1920.82997 L153.984548,1922.8295 L150.984809,1926.82856 L142.985508,1926.82856 L142.985508,1922.8295 L143.985421,1918.83044 L138.985857,1917.83067 L137.985944,1921.82973 L129.986643,1920.82997 L125.986992,1916.83091 L122.987254,1919.8302 L113.98804,1919.8302 L112.988127,1914.83138 L108.988476,1914.83138 L103.988913,1910.83231 L99.9892619,1908.83278 L91.9899603,1907.83302 L83.9906587,1906.83325 L81.9908333,1903.83396 L76.9912698,1901.83442 L75.9913571,1904.83372 L71.9917063,1900.83466 L66.9921428,1900.83466 L60.9926666,1901.83442 L55.9931032,1895.83583 L51.9934524,1895.83583 L46.9938889,1897.83536 L42.9942381,1896.8356 L39.9945,1892.83654 L33.9950238,1891.83677 L30.9952857,1895.83583 L25.9957222,1896.8356 L24.9958095,1891.83677 L21.9960714,1889.83724 L16.9965079,1891.83677 L15.9965952,1896.8356 L11.9969444,1896.8356 L9.99711904,1891.83677 L-0.00200794163,1886.83794 L-19.0130463,2548.82053 L-23,2548.82053 L-23,2739.05167 L4125.63778,2739.05167 L4125.63778,2609 Z M2985.94731,2128.4537 L2992.22808,2128.4537 L2994,2127.2726 L2994,2120.03132 L2988.73705,2120.78306 L2985.94731,2128.4537 L2985.94731,2128.4537 Z M2900.99378,2095.4117 L2906.49356,2095.4117 L2906.51093,2095.47246 L2901.02334,2095.48558 L2900.99378,2095.4117 L2900.99378,2095.4117 Z M2910.15903,2095.4117 L2931.92745,2095.4117 L2910.19367,2095.46366 L2910.15903,2095.4117 L2910.15903,2095.4117 Z M1595,2138 L1595,2052 L1588,2052 L1588,2133 L1553,2122 L1553,2107 L2283,2142 L2283,2151 L2095,2154.71067 L2095,2154.71067 L2095,2182.00005 L1864.02666,2182.00005 L1864.02666,2175.10762 L1841.00135,2175.10762 L1841.00135,2138 L1595,2138 L1595,2138 Z M2283,2142 L2283,2064.85477 L2234.99239,2064.85477 L2234.99239,2028 L2213,2028 L2213,1965 L2195,1965 L2195,1959 L2176,1959 L2176,1965 L2176,1965 L2153,1965 L2153,2028 L2153,2028 L2012,2028 L2012,1907 L1864,1907 L1864,1884 L1798,1884 L1798,1907 L1760,1907 L1760,1981 L1619.49296,2039 L1602,2039 L1602,2046 L1607,2051 L1610,2064 L1618,2081 L1618,2099 L1627,2091 L1629,2097 L1662,2106 L1671,2096 L1693,2101 L1708,2111 L1722,2116 L1734,2108 L1748,2104 L1737,2079 L1768,2097 L1772,2071 L1779,2103 L1792,2099 L1791,2076 L1802,2091 L1811,2089 L1811,2095 L1827,2100 L1838,2113 L1845,2097 L1859,2101 L1881,2101 L1887,2080 L1903,2089 L1937,2067 L1954,2084 L1949,2093 L1962,2093 L1962,2104 L1958,2118 L1958,2131 L1985.01851,2131 L1985.01851,2116.99999 L2017,2098 L2045,2118 L2056,2101 L2108,2101 L2108,2115 L2185.05842,2115 L2185.05842,2136.08956 L2200.00027,2136.08956 L2200.00027,2124 L2217.02939,2124 L2217.02939,2133.00005 L2245,2133.00005 L2245,2142 L2283,2142 L2283,2142 Z M1579,2048.6 L1579,1981 L1588,1981 L1588,1942 L1728,1942 L1728,1981 L1588,1981 L1588,1942 L1553,1951 L1553,2098 L1553,2089 L1568,2059 L1576,2057 L1579,2048.6 L1579,2048.6 Z M2432,1794 L2496,1794 L2496,1818 L2432,1818 L2432,1794 Z M2423,1797 L2432,1794 L2432,1818 L2423,1818 L2423,1797 Z" id="2" sketch:type="MSShapeGroup"></path>
        </g>
    </g>
</svg>