<?xml version="1.0" encoding="UTF-8" standalone="no"?>
<svg width="4120px" height="1542px" viewBox="0 0 4120 1542" version="1.1" xmlns="http://www.w3.org/2000/svg" xmlns:xlink="http://www.w3.org/1999/xlink" xmlns:sketch="http://www.bohemiancoding.com/sketch/ns">
    <!-- Generator: Sketch 3.3.3 (12072) - http://www.bohemiancoding.com/sketch -->
    <title>5</title>
    <desc>Created with Sketch.</desc>
    <defs></defs>
    <g id="Page-1" stroke="none" stroke-width="1" fill="none" fill-rule="evenodd" sketch:type="MSPage">
        <g id="Group" sketch:type="MSLayerGroup" transform="translate(0.000000, -1196.000000)" fill="#615F57">
            <path d="M4125.63778,2609 L4126,2609 L4125.63778,2554.59857 L4125.63778,2548.82053 L4125.59931,2548.82053 L4125.03468,2464.01755 L4144.73356,2464.01755 L4144.73356,2160 L4123.01047,2160 L4116.63857,1202.99836 L4110.63909,1202.99836 L4106.63944,1212.99601 L4105.63953,1206.99742 L4101.63988,1207.99719 L4097.64023,1203.99812 L4093.64058,1210.99648 L4096.64032,1216.99507 L4090.64084,1214.99554 L4084.64136,1218.99461 L4086.64119,1224.9932 L4086.64119,1230.99179 L4092.64067,1228.99226 L4092.64067,1235.99062 L4096.64032,1236.99038 L4109.63918,1236.99038 L4105.63953,1242.98898 L4097.64023,1247.9878 L4094.64049,1240.98945 L4086.64119,1238.98992 L4086.64119,1246.98804 L4088.64101,1255.98593 L4081.64163,1247.9878 L4070.64259,1241.98921 L4067.64285,1232.99132 L4064.64311,1236.99038 L4059.64355,1231.99156 L4060.64346,1223.99343 L4060.64346,1217.99484 L4055.6439,1215.99531 L4057.64372,1210.99648 L4056.64381,1202.99836 L4052.64416,1203.99812 L4054.64398,1196 L4050.64433,1196 L4047.64459,1197.99953 L4045.64477,1202.99836 L4045.64477,1208.99695 L4040.64521,1208.99695 L4038.64538,1204.99789 L4038.64538,1196 L4032.6459,1196 L4029.64617,1198.9993 L4026.64643,1198.9993 L4023.64669,1199.99906 L4023.64669,1205.99765 L4018.64713,1207.99719 L4018.64713,1213.99578 L4021.64686,1210.99648 L4024.6466,1210.99648 L4024.6466,1216.99507 L4021.64686,1220.99414 L4017.64721,1217.99484 L4012.64765,1217.99484 L4012.64765,1223.99343 L4017.64721,1225.99296 L4016.6473,1234.99085 L4011.64774,1235.99062 L4008.648,1238.98992 L4011.64774,1247.9878 L4017.64721,1248.98757 L4020.64695,1248.98757 L4024.6466,1253.9864 L4020.64695,1254.98616 L4014.64748,1258.98522 L4009.64791,1261.98452 L4006.64817,1266.98335 L4009.64791,1271.98218 L4013.64756,1271.98218 L4019.64704,1270.98241 L4020.64695,1277.98077 L4013.64756,1288.97819 L4009.64791,1296.97631 L4013.64756,1296.97631 L4016.6473,1294.97678 L4019.64704,1292.97725 L4022.64678,1293.97702 L4026.64643,1291.97749 L4023.64669,1297.97608 L4018.64713,1301.97514 L4021.64686,1303.97467 L4017.64721,1306.97397 L4012.64765,1304.97444 L4006.64817,1297.97608 L4005.64826,1302.97491 L4001.64861,1300.97537 L3995.64913,1300.97537 L3990.64957,1300.97537 L3986.64992,1303.97467 L3983.65018,1303.97467 L3986.64992,1295.97655 L3981.65036,1295.97655 L3979.65053,1288.97819 L3976.65079,1286.97866 L3972.65114,1289.97795 L3968.65149,1289.97795 L3962.65201,1288.97819 L3955.65263,1286.97866 L3952.65289,1288.97819 L3949.65315,1290.97772 L3951.65298,1297.97608 L3948.65324,1304.97444 L3950.65306,1308.9735 L3947.65332,1308.9735 L3941.65385,1308.9735 L3938.65411,1310.97303 L3940.65394,1318.97115 L3943.65367,1315.97186 L3942.65376,1320.97068 L3937.6542,1320.97068 L3941.65385,1331.9681 L3944.65359,1334.9674 L3947.65332,1332.96787 L3946.65341,1338.96646 L3951.65298,1339.96623 L3957.65245,1332.96787 L3958.65236,1325.96951 L3962.65201,1323.96998 L3965.65175,1324.96975 L3968.65149,1323.96998 L3971.65123,1330.96834 L3972.65114,1336.96693 L3966.65167,1344.96506 L3966.65167,1352.96318 L3961.6521,1355.96248 L3960.65219,1360.9613 L3955.65263,1362.96083 L3953.6528,1369.95919 L3950.65306,1372.95849 L3952.65289,1378.95708 L3956.65254,1377.95732 L3956.65254,1383.95591 L3963.65193,1387.95497 L3969.6514,1382.95614 L3970.65132,1389.9545 L3976.65079,1387.95497 L3971.65123,1398.95239 L3978.65062,1391.95403 L3978.65062,1398.95239 L3975.65088,1406.95052 L3975.65088,1414.94864 L3972.65114,1419.94747 L3974.65097,1424.94629 L3981.65036,1430.94489 L3977.65071,1431.94465 L3975.65088,1436.94348 L3972.65114,1441.94231 L3968.65149,1437.94324 L3962.65201,1428.94536 L3956.65254,1421.947 L3950.65306,1415.9484 L3944.65359,1413.94887 L3939.65402,1412.94911 L3936.65428,1409.94981 L3933.65455,1409.94981 L3922.65551,1410.94958 L3925.65525,1404.95098 L3928.65498,1401.95169 L3926.65516,1395.95309 L3923.65542,1386.95521 L3916.65603,1386.95521 L3917.65594,1381.95638 L3913.65629,1379.95685 L3911.65647,1385.95544 L3909.65664,1379.95685 L3904.65708,1382.95614 L3908.65673,1390.95427 L3904.65708,1390.95427 L3900.65743,1390.95427 L3901.65734,1397.95263 L3898.6576,1397.95263 L3895.65786,1400.95192 L3891.65821,1400.95192 L3892.65813,1405.95075 L3886.65865,1411.94934 L3893.65804,1413.94887 L3891.65821,1418.9477 L3892.65813,1423.94653 L3895.65786,1423.94653 L3901.65734,1426.94582 L3904.65708,1431.94465 L3900.65743,1435.94371 L3897.65769,1437.94324 L3894.65795,1439.94278 L3896.65778,1445.94137 L3894.65795,1451.93996 L3899.65751,1455.93902 L3903.65717,1455.93902 L3907.65682,1457.93855 L3910.65655,1455.93902 L3908.65673,1461.93762 L3902.65725,1461.93762 L3893.65804,1468.93597 L3896.65778,1472.93504 L3893.65804,1475.93433 L3890.6583,1475.93433 L3889.65839,1481.93293 L3892.65813,1484.93222 L3895.65786,1487.93152 L3900.65743,1487.93152 L3903.65717,1484.93222 L3909.65664,1483.93246 L3908.65673,1488.93128 L3913.65629,1496.92941 L3908.65673,1501.92824 L3911.65647,1502.928 L3918.65586,1507.92683 L3915.65612,1503.92777 L3919.65577,1500.92847 L3915.65612,1499.9287 L3916.65603,1494.92988 L3919.65577,1496.92941 L3922.65551,1492.93035 L3925.65525,1492.93035 L3926.65516,1484.93222 L3932.65463,1478.93363 L3929.6549,1487.93152 L3933.65455,1487.93152 L3937.6542,1489.93105 L3938.65411,1484.93222 L3941.65385,1487.93152 L3944.65359,1484.93222 L3941.65385,1478.93363 L3937.6542,1477.93386 L3940.65394,1471.93527 L3945.6535,1469.93574 L3942.65376,1475.93433 L3944.65359,1479.93339 L3948.65324,1477.93386 L3954.65271,1469.93574 L3958.65236,1466.93644 L3963.65193,1463.93715 L3962.65201,1468.93597 L3966.65167,1464.93691 L3970.65132,1464.93691 L3964.65184,1469.93574 L3968.65149,1474.93457 L3963.65193,1480.93316 L3966.65167,1481.93293 L3971.65123,1476.9341 L3969.6514,1482.93269 L3973.65105,1487.93152 L3975.65088,1492.93035 L3978.65062,1487.93152 L3979.65053,1481.93293 L3980.65044,1488.93128 L3977.65071,1494.92988 L3980.65044,1498.92894 L3977.65071,1501.92824 L3979.65053,1506.92706 L3984.65009,1507.92683 L3990.64957,1510.92612 L3994.64922,1512.92566 L3998.64887,1512.92566 L3995.64913,1515.92495 L3993.64931,1519.92401 L3996.64905,1524.92284 L4000.6487,1531.9212 L4005.64826,1533.92073 L3999.64878,1536.92003 L3995.64913,1536.92003 L3994.64922,1531.9212 L3991.64948,1527.92214 L3984.65009,1523.92308 L3977.65071,1526.92237 L3972.65114,1523.92308 L3968.65149,1524.92284 L3965.65175,1525.92261 L3959.65228,1527.92214 L3957.65245,1531.9212 L3947.65332,1530.92143 L3944.65359,1535.92026 L3949.65315,1537.91979 L3955.65263,1541.91885 L3951.65298,1542.91862 L3953.6528,1547.91745 L3948.65324,1545.91792 L3945.6535,1549.91698 L3945.6535,1555.91557 L3942.65376,1552.91627 L3939.65402,1558.91487 L3942.65376,1563.91369 L3945.6535,1570.91205 L3942.65376,1573.91135 L3940.65394,1581.90947 L3947.65332,1578.91018 L3951.65298,1582.90924 L3947.65332,1575.91088 L3949.65315,1568.91252 L3951.65298,1574.91111 L3954.65271,1572.91158 L3957.65245,1572.91158 L3957.65245,1578.91018 L3956.65254,1586.9083 L3953.6528,1586.9083 L3947.65332,1586.9083 L3941.65385,1588.90783 L3929.6549,1591.90713 L3930.65481,1597.90572 L3927.65507,1594.90642 L3928.65498,1587.90807 L3925.65525,1586.9083 L3920.65568,1588.90783 L3917.65594,1587.90807 L3912.65638,1587.90807 L3909.65664,1585.90854 L3903.65717,1586.9083 L3907.65682,1589.9076 L3904.65708,1591.90713 L3899.65751,1591.90713 L3896.65778,1594.90642 L3898.6576,1600.90502 L3901.65734,1607.90338 L3901.65734,1615.9015 L3904.65708,1615.9015 L3908.65673,1617.90103 L3910.65655,1623.89962 L3907.65682,1635.89681 L3905.65699,1628.89845 L3901.65734,1631.89775 L3899.65751,1635.89681 L3894.65795,1633.89728 L3890.6583,1633.89728 L3894.65795,1631.89775 L3889.65839,1628.89845 L3885.65874,1630.89798 L3881.65909,1638.89611 L3885.65874,1649.89353 L3881.65909,1648.89376 L3878.65935,1649.89353 L3877.65944,1655.89212 L3881.65909,1659.89118 L3881.65909,1666.88954 L3879.65926,1670.8886 L3876.65952,1674.88766 L3871.65996,1677.88696 L3871.65996,1684.88532 L3875.65961,1685.88508 L3875.65961,1694.88297 L3881.65909,1693.88321 L3886.65865,1693.88321 L3881.65909,1689.88414 L3881.65909,1683.88555 L3884.65882,1687.88461 L3890.6583,1684.88532 L3893.65804,1679.88649 L3894.65795,1684.88532 L3901.65734,1686.88485 L3905.65699,1690.88391 L3909.65664,1692.88344 L3908.65673,1701.88133 L3912.65638,1704.88063 L3911.65647,1697.88227 L3916.65603,1699.8818 L3916.65603,1705.88039 L3914.65621,1711.87898 L3919.65577,1712.87875 L3922.65551,1715.87805 L3926.65516,1717.87758 L3924.65533,1712.87875 L3927.65507,1716.87781 L3931.65472,1718.87734 L3926.65516,1720.87687 L3925.65525,1727.87523 L3932.65463,1727.87523 L3925.65525,1729.87476 L3920.65568,1727.87523 L3915.65612,1731.87429 L3913.65629,1736.87312 L3916.65603,1737.87289 L3920.65568,1740.87218 L3925.65525,1744.87125 L3929.6549,1742.87171 L3932.65463,1746.87078 L3928.65498,1749.87007 L3922.65551,1746.87078 L3914.65621,1749.87007 L3909.65664,1748.87031 L3916.65603,1745.87101 L3910.65655,1743.87148 L3905.65699,1739.87242 L3898.6576,1741.87195 L3895.65786,1749.87007 L3901.65734,1756.86843 L3902.65725,1750.86984 L3906.6569,1750.86984 L3906.6569,1757.8682 L3906.6569,1763.86679 L3910.65655,1764.86655 L3916.65603,1766.86609 L3921.65559,1766.86609 L3917.65594,1771.86491 L3914.65621,1767.86585 L3910.65655,1770.86515 L3915.65612,1778.86327 L3918.65586,1778.86327 L3919.65577,1783.8621 L3921.65559,1776.86374 L3923.65542,1772.86468 L3930.65481,1763.86679 L3935.65437,1761.86726 L3940.65394,1761.86726 L3932.65463,1768.86562 L3924.65533,1774.86421 L3926.65516,1778.86327 L3929.6549,1782.86233 L3932.65463,1782.86233 L3938.65411,1782.86233 L3937.6542,1788.86093 L3942.65376,1787.86116 L3948.65324,1793.85975 L3945.6535,1798.85858 L3942.65376,1797.85882 L3939.65402,1799.85835 L3931.65472,1802.85764 L3928.65498,1799.85835 L3921.65559,1799.85835 L3918.65586,1803.85741 L3919.65577,1813.85506 L3921.65559,1818.85389 L3920.65568,1825.85225 L3917.65594,1830.85108 L3914.65621,1827.85178 L3911.65647,1842.84826 L3906.6569,1843.84803 L3900.65743,1841.8485 L3904.65708,1836.84967 L3899.65751,1823.85272 L3893.65804,1824.85248 L3893.65804,1814.85483 L3885.65874,1812.8553 L3882.659,1815.85459 L3878.65935,1816.85436 L3875.65961,1809.856 L3877.65944,1805.85694 L3881.65909,1809.856 L3881.65909,1796.85905 L3877.65944,1794.85952 L3870.66005,1795.85928 L3866.6604,1797.85882 L3863.66066,1796.85905 L3858.66109,1798.85858 L3858.66109,1805.85694 L3853.66153,1807.85647 L3850.66179,1808.85624 L3848.66197,1815.85459 L3843.6624,1816.85436 L3842.66249,1822.85295 L3845.66223,1820.85342 L3848.66197,1824.85248 L3843.6624,1828.85155 L3846.66214,1831.85084 L3849.66188,1829.85131 L3849.66188,1838.8492 L3853.66153,1833.85037 L3850.66179,1841.8485 L3852.66162,1845.84756 L3855.66136,1846.84732 L3860.66092,1852.84592 L3870.66005,1852.84592 L3867.66031,1854.84545 L3867.66031,1860.84404 L3861.66083,1855.84521 L3858.66109,1861.84381 L3860.66092,1867.8424 L3855.66136,1867.8424 L3854.66144,1876.84029 L3858.66109,1877.84005 L3861.66083,1878.83982 L3864.66057,1880.83935 L3859.66101,1883.83865 L3855.66136,1879.83958 L3852.66162,1882.83888 L3854.66144,1888.83747 L3859.66101,1888.83747 L3863.66066,1892.83654 L3866.6604,1896.8356 L3867.66031,1902.83419 L3872.65987,1898.83513 L3873.65978,1905.83349 L3870.66005,1906.83325 L3867.66031,1911.83208 L3870.66005,1915.83114 L3866.6604,1919.8302 L3869.66013,1928.82809 L3874.6597,1924.82903 L3879.65926,1928.82809 L3871.65996,1930.82762 L3866.6604,1935.82645 L3864.66057,1930.82762 L3859.66101,1931.82739 L3855.66136,1932.82715 L3855.66136,1926.82856 L3860.66092,1926.82856 L3862.66075,1922.8295 L3860.66092,1914.83138 L3853.66153,1915.83114 L3858.66109,1912.83185 L3848.66197,1904.83372 L3850.66179,1897.83536 L3844.66232,1893.8363 L3838.66284,1889.83724 L3832.66336,1889.83724 L3827.6638,1885.83818 L3829.66363,1881.83912 L3833.66328,1881.83912 L3839.66275,1885.83818 L3828.66371,1874.84076 L3826.66389,1878.83982 L3823.66415,1877.84005 L3818.66459,1877.84005 L3820.66441,1873.84099 L3815.66485,1870.8417 L3820.66441,1868.84216 L3813.66502,1866.84263 L3811.6652,1861.84381 L3808.66546,1857.84474 L3809.66537,1851.84615 L3804.66581,1851.84615 L3801.66607,1855.84521 L3795.66659,1860.84404 L3797.66642,1864.8431 L3797.66642,1870.8417 L3801.66607,1871.84146 L3796.66651,1876.84029 L3792.66686,1881.83912 L3794.66668,1886.83794 L3789.66712,1895.83583 L3797.66642,1906.83325 L3805.66572,1906.83325 L3810.66528,1908.83278 L3812.66511,1914.83138 L3809.66537,1919.8302 L3806.66563,1913.83161 L3799.66625,1911.83208 L3794.66668,1906.83325 L3791.66694,1906.83325 L3789.66712,1901.83442 L3776.66825,1898.83513 L3782.66773,1908.83278 L3786.66738,1912.83185 L3791.66694,1918.83044 L3786.66738,1921.82973 L3783.66764,1917.83067 L3783.66764,1911.83208 L3779.66799,1916.83091 L3775.66834,1918.83044 L3770.66878,1919.8302 L3775.66834,1915.83114 L3776.66825,1909.83255 L3773.66852,1907.83302 L3767.66904,1902.83419 L3766.66913,1908.83278 L3769.66886,1910.83231 L3767.66904,1918.83044 L3770.66878,1927.82833 L3764.6693,1924.82903 L3761.66956,1920.82997 L3756.67,1922.8295 L3758.66982,1916.83091 L3751.67044,1916.83091 L3751.67044,1923.82927 L3748.6707,1926.82856 L3752.67035,1934.82669 L3749.67061,1939.82551 L3747.67078,1935.82645 L3744.67105,1935.82645 L3740.6714,1935.82645 L3739.67148,1940.82528 L3743.67113,1938.82575 L3746.67087,1941.82504 L3741.67131,1945.82411 L3746.67087,1945.82411 L3746.67087,1951.8227 L3742.67122,1956.82153 L3744.67105,1960.82059 L3747.67078,1961.82035 L3744.67105,1968.81871 L3741.67131,1964.81965 L3735.67183,1961.82035 L3732.67209,1959.82082 L3737.67166,1956.82153 L3726.67262,1950.82293 L3724.67279,1954.822 L3723.67288,1961.82035 L3727.67253,1967.81895 L3724.67279,1973.81754 L3722.67297,1979.81613 L3718.67332,1982.81543 L3718.67332,1988.81402 L3721.67305,1988.81402 L3719.67323,1994.81261 L3724.67279,1996.81214 L3722.67297,2001.81097 L3719.67323,2001.81097 L3719.67323,2014.80792 L3724.67279,2014.80792 L3721.67305,2018.80699 L3725.67271,2021.80628 L3724.67279,2032.8037 L3724.67279,2038.80229 L3716.67349,2036.80276 L3713.67375,2039.80206 L3710.67402,2046.80042 L3709.6741,2040.80183 L3706.67436,2040.80183 C3705.67445,2044.80089 3704.67454,2048.79995 3704.67454,2048.79995 L3699.67498,2045.80065 L3699.67498,2033.80347 L3694.67541,2033.80347 L3694.67541,2022.80605 L3689.67585,2023.80581 L3687.67602,2030.80417 L3691.67567,2030.80417 L3683.67637,2033.80347 L3678.67681,2030.80417 L3673.67725,2029.80441 L3676.67698,2022.80605 L3680.67663,2018.80699 L3673.67725,2018.80699 L3670.67751,2007.80957 L3669.67759,2002.81074 L3664.67803,1998.81168 L3661.67829,2000.81121 L3656.67873,1998.81168 L3650.67925,1989.81379 L3650.67925,1978.81637 L3646.6796,1978.81637 L3643.67986,1985.81472 L3647.67952,1991.81332 L3652.67908,1996.81214 L3655.67882,2002.81074 L3649.67934,2002.81074 L3646.6796,2002.81074 L3637.68039,1995.81238 L3633.68074,1995.81238 L3638.6803,2001.81097 L3639.68021,2006.8098 L3635.68056,2009.8091 L3635.68056,2019.80675 L3640.68013,2021.80628 L3641.68004,2026.80511 L3638.6803,2030.80417 L3636.68048,2035.803 L3631.68091,2028.80464 L3630.681,2021.80628 L3625.68144,2021.80628 L3628.68117,2028.80464 L3623.68161,2029.80441 L3627.68126,2039.80206 L3621.68178,2042.80136 L3619.68196,2047.80018 L3616.68222,2047.80018 L3610.68275,2050.79948 L3608.68292,2044.80089 L3602.68344,2043.80112 L3591.6844,2044.80089 L3594.68414,2038.80229 L3590.68449,2030.80417 L3589.68458,2021.80628 L3585.68493,2020.80652 L3580.68536,2012.80839 L3575.6858,2016.80745 L3569.68632,2023.80581 L3563.68685,2028.80464 L3562.68694,2033.80347 L3557.68737,2033.80347 L3552.68781,2038.80229 L3549.68807,2044.80089 L3545.68842,2044.80089 L3542.68868,2050.79948 L3542.68868,2056.79807 L3536.68921,2057.79784 L3540.68886,2054.79854 L3537.68912,2048.79995 L3541.68877,2045.80065 L3534.68938,2042.80136 L3533.68947,2037.80253 L3528.6899,2032.8037 L3526.69008,2028.80464 L3521.69052,2027.80487 L3524.69025,2024.80558 L3526.69008,2019.80675 L3530.68973,2016.80745 L3533.68947,2014.80792 L3531.68964,2008.80933 L3528.6899,2013.80816 L3523.69034,2014.80792 L3518.69078,2019.80675 L3514.69113,2021.80628 L3509.69156,2025.80534 L3518.69078,2026.80511 L3514.69113,2029.80441 L3513.69121,2035.803 L3510.69148,2035.803 L3506.69182,2036.80276 L3502.69217,2036.80276 L3500.69235,2031.80394 L3495.69278,2030.80417 L3492.69305,2033.80347 L3492.69305,2026.80511 L3496.6927,2024.80558 L3498.69252,2019.80675 L3503.69209,2023.80581 L3501.69226,2015.80769 L3501.69226,2009.8091 L3497.69261,2011.80863 L3496.6927,2006.8098 L3499.69244,2005.81003 L3495.69278,2003.8105 L3492.69305,2000.81121 L3490.69322,2008.80933 L3487.69348,2008.80933 L3485.69366,2014.80792 L3482.69392,2017.80722 L3484.69375,2021.80628 L3488.6934,2021.80628 L3489.69331,2033.80347 L3485.69366,2034.80323 L3486.69357,2023.80581 L3481.69401,2023.80581 L3480.69409,2028.80464 L3473.69471,2018.80699 L3475.69453,2026.80511 L3475.69453,2032.8037 L3472.69479,2036.80276 L3476.69444,2038.80229 L3477.69436,2048.79995 L3475.69453,2053.79878 L3471.69488,2051.79925 L3472.69479,2046.80042 L3469.69505,2037.80253 L3465.6954,2037.80253 L3468.69514,2032.8037 L3464.69549,2027.80487 L3461.69575,2028.80464 L3459.69593,2023.80581 L3455.69628,2012.80839 L3455.69628,2021.80628 L3456.69619,2026.80511 L3455.69628,2031.80394 L3448.69689,2034.80323 L3453.69645,2041.80159 L3450.69671,2044.80089 L3446.69706,2043.80112 L3442.69741,2043.80112 L3439.69767,2047.80018 L3433.6982,2043.80112 L3436.69794,2039.80206 L3432.69828,2038.80229 L3432.69828,2031.80394 L3429.69855,2026.80511 L3423.69907,2022.80605 L3421.69925,2013.80816 L3429.69855,2013.80816 L3433.6982,2011.80863 L3433.6982,2002.81074 L3430.69846,2007.80957 L3426.69881,2009.8091 L3422.69916,2008.80933 L3424.69898,2002.81074 L3416.69968,2002.81074 L3410.70021,2003.8105 L3409.70029,1998.81168 L3417.69959,1997.81191 L3417.69959,1991.81332 L3422.69916,1991.81332 L3421.69925,1982.81543 L3416.69968,1988.81402 L3412.70003,1988.81402 L3409.70029,1993.81285 L3408.70038,1988.81402 L3401.70099,1987.81426 L3397.70134,1986.81449 L3397.70134,1992.81308 L3402.7009,1994.81261 L3399.70117,1996.81214 L3393.70169,1993.81285 L3397.70134,1998.81168 L3397.70134,2004.81027 L3394.7016,2004.81027 L3388.70213,2001.81097 L3391.70186,2006.8098 L3388.70213,2009.8091 L3383.70256,2007.80957 L3384.70248,2016.80745 L3380.70282,2010.80886 L3377.70309,2007.80957 L3379.70291,2002.81074 L3376.70317,2002.81074 L3370.7037,2008.80933 L3374.70335,2008.80933 L3378.703,2011.80863 L3379.70291,2016.80745 L3376.70317,2016.80745 L3371.70361,2014.80792 L3370.7037,2019.80675 L3365.70413,2014.80792 L3359.70466,2011.80863 L3365.70413,2019.80675 L3360.70457,2023.80581 L3367.70396,2024.80558 L3362.7044,2029.80441 L3363.70431,2036.80276 L3368.70387,2033.80347 L3374.70335,2032.8037 L3380.70282,2033.80347 L3383.70256,2034.80323 L3374.70335,2036.80276 L3369.70378,2038.80229 L3368.70387,2043.80112 L3373.70344,2043.80112 L3367.70396,2046.80042 L3362.7044,2047.80018 L3359.70466,2046.80042 L3359.70466,2039.80206 L3356.70492,2041.80159 L3353.70518,2036.80276 L3346.70579,2033.80347 L3351.70536,2040.80183 L3348.70562,2046.80042 L3344.70597,2045.80065 L3340.70632,2051.79925 L3343.70605,2052.79901 L3345.70588,2056.79807 L3351.70536,2053.79878 L3349.70553,2058.7976 L3342.70614,2056.79807 L3339.7064,2054.79854 L3336.70667,2058.7976 L3339.7064,2067.79549 L3336.70667,2073.79409 L3343.70605,2073.79409 L3341.70623,2078.79291 L3340.70632,2083.79174 L3340.70632,2090.7901 L3335.70675,2092.78963 L3330.70719,2091.78987 L3326.70754,2083.79174 L3323.7078,2087.7908 L3318.70824,2089.79033 L3312.70876,2091.78987 L3306.70928,2097.78846 L3302.70963,2103.78705 L3299.7099,2102.78729 L3299.7099,2095.78893 L3307.7092,2094.78916 L3302.70963,2092.78963 L3298.70998,2092.78963 L3302.70963,2089.79033 L3302.70963,2083.79174 L3305.70937,2079.79268 L3299.7099,2083.79174 L3296.71016,2080.79244 L3293.71042,2083.79174 L3287.71094,2086.79104 L3289.71077,2090.7901 L3285.71112,2092.78963 L3289.71077,2095.78893 L3289.71077,2102.78729 L3292.71051,2102.78729 L3293.71042,2110.78541 L3288.71086,2111.78517 L3289.71077,2118.78353 L3285.71112,2115.78424 L3280.71155,2117.78377 L3279.71164,2123.78236 L3276.7119,2120.78306 L3274.71208,2126.78166 L3271.71234,2125.78189 L3270.71243,2134.77978 L3267.71269,2140.77837 L3264.71295,2144.77744 L3264.71295,2137.77908 L3259.71339,2135.77955 L3255.71374,2137.77908 L3250.71417,2133.78001 L3246.71452,2130.78072 L3251.71409,2138.77884 L3251.71409,2145.7772 L3249.71426,2150.77603 L3253.71391,2151.77579 L3251.92164,2154.76248 L3251.92164,2154.76248 L3235,2145 L3232,2154 L3228,2146 L3214,2152 L3218,2162 L3207.71793,2166.83862 L3207.71793,2166.83862 L3207.71793,2161.77345 L3199.71863,2157.77439 L3204.71819,2148.7765 L3197.7188,2144.77744 L3195.71898,2149.77626 L3191.71932,2141.77814 L3179.72037,2145.7772 L3185.71985,2139.77861 L3189.7195,2135.77955 L3196.71889,2132.78025 L3196.71889,2128.78119 L3197.7188,2125.78189 L3191.71932,2119.7833 L3188.71959,2125.78189 L3185.71985,2119.7833 L3180.72029,2116.784 L3175.72072,2108.78588 L3175.72072,2102.78729 L3167.72142,2102.78729 L3163.72177,2098.78822 L3171.72107,2097.78846 L3176.72063,2092.78963 L3178.72046,2088.79057 L3171.72107,2083.79174 L3177.72055,2083.79174 L3184.71994,2082.79198 L3187.71967,2078.79291 L3183.72002,2073.79409 L3181.7202,2068.79526 L3182.72011,2064.7962 L3186.71976,2059.79737 L3183.72002,2053.79878 L3180.72029,2049.79972 L3178.72046,2045.80065 L3177.72055,2054.79854 L3174.72081,2058.7976 L3171.72107,2049.79972 L3170.72116,2055.79831 L3164.72168,2060.79714 L3163.72177,2057.79784 L3166.72151,2053.79878 L3166.72151,2049.79972 L3159.72212,2049.79972 L3158.72221,2056.79807 L3154.72255,2054.79854 L3153.72264,2059.79737 L3146.72325,2059.79737 L3145.72334,2055.79831 L3139.72386,2058.7976 L3139.72386,2055.79831 L3130.72465,2055.79831 L3126.725,2059.79737 L3126.725,2053.79878 L3114.72605,2055.79831 L3114.72605,2060.79714 L3114.72605,2065.79596 L3127.72491,2066.79573 L3114.72605,2071.79456 L3114.72605,2076.79338 L3107.72666,2076.79338 L3100.72727,2078.79291 L3099.72736,2075.79362 L3102.72709,2067.79549 L3096.72762,2065.79596 L3097.72753,2060.79714 L3102.72709,2056.79807 L3102.72709,2053.79878 L3105.72683,2047.80018 L3111.72631,2040.80183 L3122.72535,2032.8037 L3134.7243,2026.80511 L3133.72439,2021.80628 L3124.72517,2020.80652 L3114.72605,2016.80745 L3114.72605,2013.80816 L3124.72517,2013.80816 L3131.72456,2016.80745 L3138.72395,2019.80675 L3144.72343,2018.80699 L3146.72325,2012.80839 L3152.72273,2016.80745 L3158.72221,2014.80792 L3155.72247,2011.80863 L3155.72247,2007.80957 L3163.72177,2009.8091 L3166.72151,2003.8105 L3176.72063,2003.8105 L3187.71967,2003.8105 L3187.71967,1999.81144 L3188.71959,1995.81238 L3190.71941,1990.81355 L3187.71967,1988.81402 L3185.71985,1983.81519 L3184.71994,1979.81613 L3182.72011,1973.81754 L3182.72011,1970.81824 L3176.72063,1964.81965 L3165.72159,1964.81965 L3165.72159,1970.81824 L3168.72133,1972.81777 L3168.72133,1977.8166 L3161.72194,1977.8166 L3160.72203,1981.81566 L3156.72238,1979.81613 L3150.7229,1979.81613 L3145.72334,1981.81566 L3138.72395,1981.81566 L3138.72395,1975.81707 L3150.7229,1974.8173 L3150.7229,1969.81848 L3148.72308,1964.81965 L3146.72325,1956.82153 L3139.72386,1952.82246 L3134.7243,1949.82317 L3128.72482,1949.82317 L3128.72482,1953.82223 L3120.72552,1956.82153 L3121.72544,1953.82223 L3123.72526,1949.82317 L3122.72535,1942.82481 L3113.72613,1934.82669 L3113.72613,1927.82833 L3110.7264,1922.8295 L3110.7264,1917.83067 L3104.72692,1919.8302 L3096.72762,1913.83161 L3091.72805,1920.82997 L3091.72805,1914.83138 L3089.72823,1907.83302 L3080.72902,1909.83255 L3078.72919,1917.83067 L3077.72928,1911.83208 L3068.73006,1904.83372 L3067.73015,1909.83255 L3058.73094,1910.83231 L3050.73163,1909.83255 L3045.73207,1917.83067 L3041.73242,1914.83138 L3036.73286,1917.83067 L3034.73303,1920.82997 L3027.73364,1920.82997 L3033.73312,1916.83091 L3021.73417,1917.83067 L3021.73417,1922.8295 L3010.73513,1929.82786 L2999.73609,1928.82809 L2999.73609,1934.82669 L2994.73652,1932.82715 L2991.73679,1939.82551 L2998.73617,1950.82293 L2997.73626,1957.82129 L3009.73521,1968.81871 L3009.73521,1975.81707 L3003.73574,1976.81684 L2997.73626,1979.81613 L2990.73687,1979.81613 L2987.73713,1969.81848 L2984.7374,1978.81637 L2989.73696,1983.81519 L2989.73696,1986.81449 L2979.73783,1984.81496 L2977.73801,1988.81402 L2973.73836,1985.81472 L2972.73844,1981.81566 L2969.73871,1979.81613 L2966.73897,1985.81472 L2966.73897,1988.81402 L2957.73975,1985.81472 L2956.73984,1988.81402 L2955.73993,1995.81238 L2962.73932,2004.81027 L2962.73932,2007.80957 L2968.73879,2010.80886 L2969.73871,2016.80745 L2975.73818,2014.80792 L2980.73775,2016.80745 L2984.7374,2020.80652 L2989.73696,2023.80581 L2996.73635,2024.80558 L3001.73591,2027.80487 L3002.73582,2030.80417 L3003.73574,2033.80347 L3000.736,2035.803 L3003.73574,2040.80183 L2999.73609,2044.80089 L2994.73652,2042.80136 L2991.73679,2046.80042 L2988.73705,2050.79948 L2999.73609,2051.79925 L3006.73548,2049.79972 L3012.73495,2047.80018 L3018.73443,2051.79925 L3018.73443,2057.79784 L3014.73478,2059.79737 L3016.7346,2068.79526 L3009.73521,2066.79573 L3003.73574,2068.79526 L3001.73591,2076.79338 L2997.73626,2067.79549 L2993.73661,2077.79315 L2996.73635,2075.79362 L2998.73617,2078.79291 L2998.73617,2082.79198 L3000.736,2085.79127 L3006.73548,2085.79127 L3011.73504,2087.7908 L3014.73478,2083.79174 L3020.73425,2080.79244 L3028.73355,2071.79456 L3035.73294,2070.79479 L3032.73321,2073.79409 L3029.73347,2087.7908 L3029.73347,2094.78916 L3028.73355,2097.78846 L3042.73233,2089.79033 L3047.7319,2079.79268 L3049.73172,2086.79104 L3057.73102,2084.79151 L3052.73146,2090.7901 L3051.73155,2094.78916 L3044.73216,2092.78963 L3042.73233,2100.78775 L3040.73251,2111.78517 L3032.73321,2111.78517 L3028.73355,2108.78588 L3024.7339,2110.78541 L3023.73399,2102.78729 L3015.73469,2103.78705 L3016.7346,2109.78564 L3013.73486,2111.78517 L3013.73486,2116.784 L3005.73556,2116.784 L2997.73626,2124.78213 L2991.73679,2128.78119 L2984.7374,2131.78048 L2988.73705,2120.78306 L2995.73644,2119.7833 L2999.73609,2117.78377 L2996.73635,2114.78447 L2991.73679,2115.78424 L2991.73679,2112.78494 L2987.73713,2114.78447 L2983.73748,2111.78517 L2978.73792,2104.78682 L2972.73844,2106.78635 L2979.73783,2113.78471 L2978.73792,2116.784 L2978.73792,2119.7833 L2977.73801,2125.78189 L2977.73801,2132.78025 L2974.73827,2137.77908 L2965.73905,2137.77908 L2968.73879,2132.78025 L2965.73905,2126.78166 L2963.73923,2121.78283 L2967.73888,2112.78494 L2970.73862,2110.78541 L2964.73914,2108.78588 L2967.73888,2106.78635 L2967.73888,2102.78729 L2964.73914,2099.78799 L2963.73923,2090.7901 L2960.73949,2087.7908 L2957.73975,2091.78987 L2953.7401,2093.7894 L2949.74045,2091.78987 L2949.74045,2095.78893 L2953.7401,2101.78752 L2948.74054,2104.78682 L2944.74089,2100.78775 L2942.74106,2096.78869 L2939.74132,2099.78799 L2940.74124,2102.78729 L2943.74098,2105.78658 L2945.7408,2109.78564 L2948.74054,2116.784 L2942.74106,2116.784 L2936.74159,2119.7833 L2926.74246,2120.78306 L2924.74263,2116.784 L2921.7429,2112.78494 L2917.74325,2119.7833 L2916.74333,2112.78494 L2913.74359,2109.78564 L2911.74377,2105.78658 L2911.74377,2097.78846 L2909.74394,2094.78916 L2909.74394,2089.79033 L2902.74455,2081.79221 L2902.74455,2085.79127 L2905.74429,2092.78963 L2907.74412,2099.78799 L2907.74412,2105.78658 L2902.74455,2099.78799 L2900.74473,2094.78916 L2895.74517,2093.7894 L2899.74482,2098.78822 L2903.74447,2107.78611 L2908.74403,2117.78377 L2909.74394,2122.78259 L2903.74447,2123.78236 L2900.74473,2117.78377 L2895.74517,2111.78517 L2893.74534,2115.78424 L2890.7456,2112.78494 L2886.74595,2108.78588 L2881.74639,2112.78494 L2885.74604,2115.78424 L2889.74569,2118.78353 L2896.74508,2126.78166 L2893.74534,2128.78119 L2889.74569,2124.78213 L2882.7463,2120.78306 L2877.74674,2121.78283 L2881.74639,2126.78166 L2885.74604,2131.78048 L2880.74648,2129.78095 L2878.74665,2132.78025 L2885.74604,2136.77931 L2882.7463,2139.77861 L2873.74709,2136.77931 L2870.74735,2134.77978 L2871.74726,2140.77837 L2874.747,2142.7779 L2877.74674,2145.7772 L2877.74674,2150.77603 L2880.74648,2148.7765 L2880.74648,2153.77532 L2874.747,2154.77509 L2876.74682,2160.77368 L2869.74744,2158.77415 L2869.74744,2154.77509 L2863.74796,2156.77462 L2863.74796,2161.77345 L2867.74761,2165.77251 L2862.74805,2167.77204 L2857.74848,2163.77298 L2850.74909,2160.77368 L2854.74875,2166.77228 L2856.74857,2170.77134 L2853.74883,2175.77016 L2849.74918,2173.77063 L2841.74988,2172.77087 L2841.74988,2178.76946 L2846.74944,2176.76993 L2852.74892,2180.76899 L2854.74875,2185.76782 L2859.74831,2186.76759 L2863.74796,2198.76477 L2866.7477,2190.76665 L2873.74709,2191.76641 L2867.74761,2199.76454 L2864.74787,2210.76196 L2865.74779,2221.75938 L2858.7484,2228.75774 L2850.74909,2229.7575 L2848.74927,2224.75867 L2841.74988,2221.75938 L2838.75014,2216.76055 L2836.75032,2211.76172 L2829.75093,2211.76172 L2833.75058,2215.76078 L2834.75049,2221.75938 L2840.74997,2225.75844 L2840.74997,2232.7568 L2844.74962,2235.75609 L2846.74944,2240.75492 L2839.75005,2238.75539 L2833.75058,2237.75562 L2828.75102,2235.75609 L2823.75145,2230.75727 L2817.75198,2237.75562 L2815.75215,2234.75633 L2809.75267,2233.75656 L2808.75276,2230.75727 L2813.75232,2221.75938 L2805.75302,2225.75844 L2805.75302,2221.75938 L2808.75276,2216.76055 L2798.75363,2218.76008 L2802.75329,2211.76172 L2798.75363,2207.76266 L2792.75416,2207.76266 L2788.75451,2204.76336 L2788.75451,2210.76196 L2784.75486,2216.76055 L2781.75512,2209.76219 L2774.75573,2196.76524 L2774.75573,2207.76266 L2765.75652,2209.76219 L2765.75652,2212.76149 L2772.7559,2210.76196 L2776.75555,2215.76078 L2777.75547,2222.75914 L2777.75547,2227.75797 L2771.75599,2225.75844 L2769.75617,2221.75938 L2763.75669,2229.7575 L2759.75704,2224.75867 L2759.75704,2221.75938 L2755.75739,2218.76008 L2750.75782,2223.75891 L2754.75748,2227.75797 L2757.75721,2230.75727 L2753.75756,2233.75656 L2759.75704,2233.75656 L2759.75704,2237.75562 L2756.7573,2241.75469 L2752.75765,2238.75539 L2752.75765,2242.75445 L2753.75756,2249.75281 L2747.75809,2249.75281 L2744.75835,2251.75234 L2741.75861,2247.75328 L2741.75861,2245.13797 L2743,2241 L2733,2234 L2727,2224 L2719,2214 L2712,2203 L2693,2203 L2680,2197 L2680,2188 L2662,2188 L2661,2181 L2639,2181 L2635,2186 L2622.56035,2198.43965 L2619.76926,2196.76524 L2621.75249,2201.72259 L2621.74668,2201.78647 L2617.76944,2205.76313 L2616.76952,2199.76454 L2612.76987,2193.76594 L2608.77022,2190.76665 L2612.76987,2186.76759 L2616.76952,2184.76805 L2615.76961,2181.76876 L2617.76944,2177.7697 L2617.76944,2173.77063 L2613.76979,2176.76993 L2612.76987,2169.77157 L2607.77031,2170.77134 L2608.77022,2175.77016 L2600.77092,2174.7704 L2603.77066,2169.77157 L2596.77127,2170.77134 L2590.77179,2176.76993 L2590.77179,2179.76923 L2591.77171,2182.76852 L2584.77232,2182.76852 L2585.77223,2193.76594 L2585.77223,2200.7643 L2582.77249,2203.7636 L2577.77293,2205.76313 L2575.7731,2200.7643 L2575.7731,2193.76594 L2576.77302,2186.76759 L2571.77345,2182.76852 L2578.77284,2178.76946 L2578.77284,2173.77063 L2584.77232,2173.77063 L2589.77188,2167.77204 L2587.77205,2163.77298 L2588.77197,2160.77368 L2587.77205,2156.77462 L2581.77258,2156.77462 L2576.77302,2153.77532 L2576.77302,2147.77673 L2572.77336,2142.7779 L2567.7738,2141.77814 L2562.77424,2136.77931 L2558.77459,2133.78001 L2555.77485,2139.77861 L2549.77537,2129.78095 L2545.77572,2132.78025 L2540.77616,2131.78048 L2534.77668,2133.78001 L2533.77677,2130.78072 L2521.77782,2131.78048 L2520.7779,2136.77931 L2514.77843,2136.77931 L2515.77834,2142.7779 L2513.77852,2145.7772 L2511.77869,2153.77532 L2510.77878,2146.77697 L2506.77913,2142.7779 L2506.77913,2145.7772 L2507.77904,2154.77509 L2508.77895,2159.77392 L2505.77921,2163.77298 L2497.77991,2163.77298 L2488.7807,2158.77415 L2484.78105,2155.77486 L2480.7814,2157.77439 L2477.78166,2164.77274 L2473.78201,2167.77204 L2473.78201,2163.77298 L2467.78253,2164.77274 L2463.78288,2168.77181 L2457.7834,2163.77298 L2457.7834,2160.77368 L2460.78314,2157.77439 L2460.78314,2154.77509 L2450.78402,2154.77509 L2448.78419,2148.7765 L2444.78454,2153.77532 L2439.78498,2154.77509 L2443.78463,2158.77415 L2448.78419,2160.77368 L2442.78471,2164.77274 L2437.78515,2162.77321 L2437.78515,2159.77392 L2431.78567,2155.77486 L2431.78567,2149.77626 L2421.78655,2152.77556 L2411.78742,2154.77509 L2405.78794,2153.77532 L2400.78838,2149.77626 L2398.78856,2154.77509 L2393.78899,2151.77579 L2388.78943,2153.77532 L2389.78934,2158.77415 L2388.78943,2161.77345 L2386.7896,2157.77439 L2378.7903,2159.77392 L2378.7903,2163.77298 L2374.79065,2165.77251 L2377.79039,2170.77134 L2375.1368,2173.42453 L2373,2172 L2368,2165 L2356,2167 L2356,2175 L2360.76557,2187.25432 L2357.79213,2185.76782 L2355.79231,2190.76665 L2353.79248,2185.76782 L2353.79248,2180.76899 L2346.79309,2177.7697 L2342.79344,2186.76759 L2342.79344,2191.76641 L2340.79362,2194.76571 L2334.79414,2193.76594 L2334.79414,2198.76477 L2337.79388,2202.76383 L2334.79414,2204.76336 L2336.79397,2207.76266 L2336.79397,2212.76149 L2329.79458,2211.76172 L2329.79458,2219.75985 L2328.66794,2221.44955 L2324.01021,2220.437 L2325.79493,2217.76031 L2319.79545,2215.76078 L2315.7958,2217.76031 L2310.79624,2216.76055 L2304.79676,2212.76149 L2305.52842,2216.41922 L2299,2215 L2285,2215 L2272,2223 L2271,2233 L2245,2229 L2239,2219 L2239,2209 L2223,2197 L2214,2190 L2209,2194 L2197,2198 L2197,2182.00005 L1864.02666,2182.00005 L1864.02666,2175.10762 L1841.00135,2175.10762 L1841.00135,2138 L1471,2138 L1463,2192 L1458,2197 L1445,2190 L1440,2187 L1445,2183 L1442,2176 L1434,2173 L1426,2166 L1424,2171 L1424,2177 L1402,2170 L1412,2159 L1404,2152 L1404,2139 L1391,2141 L1381,2140 L1371,2141 L1371,2132 L1368,2129 L1359,2132 L1360,2118 L1346,2118 L1342,2122 L1330,2119 L1315,2135 L1300,2135 L1296,2143 L1284,2139 L1267,2133 L1262,2140 L1262,2155 L1266,2163 L1252,2159 L1246,2155 L1246,2146 L1241,2139 L1229,2136 L1212,2139 L1201,2135 L1189,2135 L1188,2122 L1179,2117 L1179,2103 L1172,2098 L1169,2092 L1161,2089.28318 L1161,2045 L1093,2045 L1089.00286,2007 L1089.00286,2000 L914,2000 L914,1988 L893,1988 L893,2021 L883,2023 L872,2031 L875,2038 L869,2042 L859,2038 L852,2030 L846,2024 L837,2014 L827,2013 L827,2007 L814,2002 L820,2012 L810,2014 L810,2007 L799,2003 L795,2007 L792,2001 L788,2007 L793,2013 L791,2017 L781,2016 L773,2022 L762,2025 L757,2014 L753,2000 L734,1985 L732,2004 L726,1997 L715,1998 L691,1978 L667,1974 L667,1980 L650,1983 L618,1981 L613,1974 L612,1970 L587,1977 L587,1973 L577,1970 L561,1975 L556,1978 L549,1976 L545,1978 L539,1975 L519,1980 L520,1987 L494,1987 L498,1975 L486,1969 L468,1969 L469,1975 L459,1974 L445,1982 L450,1986 L408,1988 L413,1996 L412,2003 L407.248955,2004.95631 L406.96246,2003.8105 L406.553169,2005.24281 L403.367098,2006.55472 L401.962897,2002.81074 L399.963071,1998.81168 L400.841501,2007.59468 L400.301384,2007.81708 L396.963333,2002.81074 L394.963508,2005.81003 L391.96377,2003.8105 L392.963682,1999.81144 L395.963421,1997.81191 L394.963508,1992.81308 L399.963071,1991.81332 L389.963944,1985.81472 L385.964294,1979.81613 L381.964643,1983.81519 L378.964905,1986.81449 L374.965254,1980.8159 L370.965603,1982.81543 L370.965603,1989.81379 L365.96604,1989.81379 L363.966214,1984.81496 L363.966214,1980.8159 L357.966738,1977.8166 L353.967087,1974.8173 L355.966913,1970.81824 L348.967524,1970.81824 L348.967524,1976.81684 L342.968048,1978.81637 L343.96796,1974.8173 L342.968048,1970.81824 L340.968222,1976.81684 L337.968484,1979.81613 L335.968659,1976.81684 L327.969357,1976.81684 L323.969706,1975.81707 L323.969706,1971.81801 L319.970055,1972.81777 L321.969881,1967.81895 L313.970579,1968.81871 L308.971016,1972.81777 L304.971365,1973.81754 L304.971365,1968.81871 L301.971627,1970.81824 L301.971627,1964.81965 L296.972063,1964.81965 L292.972413,1968.81871 L287.972849,1969.81848 L287.972849,1963.81988 L294.972238,1957.82129 L290.972587,1955.82176 L287.972849,1958.82106 L282.973286,1961.82035 L276.973809,1956.82153 L277.973722,1951.8227 L276.973809,1947.82364 L273.974071,1941.82504 L269.974421,1939.82551 L267.974595,1934.82669 L266.974682,1937.82598 L266.974682,1943.82457 L265.97477,1948.8234 L261.975119,1952.82246 L258.975381,1948.8234 L255.975643,1946.82387 L252.975905,1948.8234 L249.976167,1946.82387 L246.976429,1948.8234 L242.976778,1945.82411 L243.97669,1939.82551 L248.976254,1941.82504 L248.976254,1936.82622 L251.975992,1933.82692 L243.97669,1930.82762 L242.976778,1926.82856 L234.977476,1926.82856 L231.977738,1923.82927 L226.978175,1923.82927 L225.978262,1927.82833 L222.978524,1930.82762 L220.978698,1927.82833 L219.978786,1935.82645 L214.979222,1936.82622 L213.979309,1928.82809 L215.979135,1917.83067 L210.979571,1922.8295 L208.979746,1916.83091 L210.979571,1911.83208 L205.980008,1908.83278 L200.980444,1909.83255 L197.980706,1916.83091 L197.980706,1920.82997 L194.980968,1914.83138 L188.981492,1913.83161 L189.981405,1917.83067 L187.981579,1920.82997 L185.981754,1928.82809 L182.982016,1933.82692 L179.982278,1926.82856 L180.98219,1921.82973 L176.98254,1918.83044 L173.982802,1915.83114 L168.983238,1915.83114 L164.983587,1920.82997 L164.983587,1924.82903 L162.983762,1920.82997 L155.984373,1918.83044 L151.984722,1915.83114 L149.984897,1920.82997 L153.984548,1922.8295 L150.984809,1926.82856 L142.985508,1926.82856 L142.985508,1922.8295 L143.985421,1918.83044 L138.985857,1917.83067 L137.985944,1921.82973 L129.986643,1920.82997 L125.986992,1916.83091 L122.987254,1919.8302 L113.98804,1919.8302 L112.988127,1914.83138 L108.988476,1914.83138 L103.988913,1910.83231 L99.9892619,1908.83278 L91.9899603,1907.83302 L83.9906587,1906.83325 L81.9908333,1903.83396 L76.9912698,1901.83442 L75.9913571,1904.83372 L71.9917063,1900.83466 L66.9921428,1900.83466 L60.9926666,1901.83442 L55.9931032,1895.83583 L51.9934524,1895.83583 L46.9938889,1897.83536 L42.9942381,1896.8356 L39.9945,1892.83654 L33.9950238,1891.83677 L30.9952857,1895.83583 L25.9957222,1896.8356 L24.9958095,1891.83677 L21.9960714,1889.83724 L16.9965079,1891.83677 L15.9965952,1896.8356 L11.9969444,1896.8356 L9.99711904,1891.83677 L-0.00200794163,1886.83794 L-19.0130463,2548.82053 L-23,2548.82053 L-23,2739.05167 L4125.63778,2739.05167 L4125.63778,2609 Z" id="5" sketch:type="MSShapeGroup"></path>
        </g>
    </g>
</svg>