<svg width="440" height="86" viewBox="0 0 440 86" xmlns="http://www.w3.org/2000/svg" xmlns:xlink="http://www.w3.org/1999/xlink"><title>a_com_w_logo_rgb</title><defs><path id="a" d="M.06.162h439.017V86H.06"/><path id="c" d="M.06.162h439.017V86H.06V.162z"/></defs><g fill="none" fill-rule="evenodd"><path d="M176.71 67.29C160.163 79.505 136.17 86 115.51 86c-28.957 0-55.03-10.703-74.765-28.522-1.55-1.398-.167-3.31 1.695-2.226 21.29 12.39 47.616 19.85 74.808 19.85 18.343 0 38.507-3.807 57.06-11.676 2.798-1.188 5.144 1.844 2.405 3.865" fill="#000"/><path d="M183.6 59.43c-2.12-2.71-13.995-1.285-19.33-.647-1.615.194-1.866-1.217-.41-2.24 9.474-6.654 24.996-4.732 26.8-2.506 1.82 2.248-.475 17.81-9.354 25.238-1.366 1.143-2.664.534-2.06-.976 1.998-4.99 6.47-16.16 4.353-18.87" fill="#000"/><path d="M164.647 9.538V3.073c.004-.984.746-1.64 1.64-1.638l28.977-.003c.926 0 1.67.674 1.672 1.633l-.002 5.545c-.007.93-.79 2.144-2.182 4.07l-15.01 21.43c5.572-.13 11.466.704 16.53 3.55 1.14.64 1.446 1.592 1.536 2.524v6.898c0 .95-1.04 2.05-2.133 1.48-8.92-4.673-20.756-5.185-30.618.055-1.008.537-2.063-.547-2.063-1.498v-6.56c0-1.048.02-2.843 1.078-4.443l17.39-24.95h-15.14c-.926 0-1.67-.66-1.675-1.63M58.943 49.92h-8.815c-.84-.055-1.51-.686-1.577-1.49l.007-45.247c0-.905.76-1.63 1.7-1.63h8.21c.86.043 1.55.693 1.604 1.518v5.91h.166C62.376 3.265 66.408.6 71.84.6c5.512 0 8.97 2.666 11.438 8.38C85.418 3.265 90.272.6 95.458.6c3.702 0 7.734 1.523 10.203 4.95 2.8 3.81 2.224 9.332 2.224 14.188l-.007 28.553c0 .905-.762 1.63-1.7 1.63H97.37c-.884-.057-1.582-.758-1.582-1.625l-.002-23.987c0-1.904.165-6.665-.247-8.474-.66-3.047-2.634-3.904-5.185-3.904-2.14 0-4.362 1.428-5.267 3.714-.905 2.285-.822 6.093-.822 8.664V48.29c0 .905-.762 1.63-1.7 1.63H73.76c-.885-.057-1.583-.758-1.583-1.625l-.01-23.987c0-5.046.824-12.473-5.43-12.473-6.337 0-6.09 7.236-6.09 12.473l-.003 23.983c0 .905-.76 1.63-1.7 1.63M221.963 9.835c-6.502 0-6.913 8.855-6.913 14.377 0 5.523-.082 17.33 6.83 17.33 6.832 0 7.16-9.522 7.16-15.33 0-3.808-.164-8.38-1.316-11.997-.99-3.142-2.964-4.38-5.76-4.38zM221.88.6c13.086 0 20.162 11.235 20.162 25.517 0 13.805-7.816 24.756-20.16 24.756-12.84 0-19.834-11.236-19.834-25.232 0-14.09 7.077-25.04 19.833-25.04zM259.01 49.92h-8.782c-.883-.057-1.582-.758-1.582-1.625l-.014-45.264c.074-.826.805-1.476 1.693-1.476l8.178-.002c.77.04 1.404.565 1.566 1.267v6.92h.165C262.705 3.55 266.16.6 272.25.6c3.948 0 7.817 1.428 10.286 5.332 2.305 3.618 2.305 9.712 2.305 14.09v28.472c-.1.803-.818 1.426-1.69 1.426h-8.837c-.816-.053-1.474-.652-1.57-1.426V23.927c0-4.95.576-12.187-5.514-12.187-2.14 0-4.116 1.428-5.102 3.618-1.234 2.76-1.4 5.522-1.4 8.57V48.29c-.016.905-.778 1.63-1.717 1.63" fill="#0A0A08"/><mask id="b" fill="#fff"><use xlink:href="#a"/></mask><path d="M290.366 46.33c0-2.277 1.944-4.123 4.34-4.123 2.397 0 4.338 1.846 4.338 4.123 0 2.276-1.94 4.12-4.338 4.12-2.396 0-4.34-1.844-4.34-4.12M383.77 49.932c-.916-.028-1.646-.74-1.646-1.627V3.052c.063-.798.736-1.434 1.578-1.488h3.236c.89 0 1.622.65 1.694 1.49V9.65c2.3-5.227 6.588-9.323 12.008-9.323l.34.005.326-.005c5.748 0 9.955 4.24 11.517 10.402C415.26 4.645 419.85.326 425.9.326l.316.005.353-.005c4.277 0 8.392 2.76 10.533 6.95 2.056 4 1.974 9.33 1.974 13.806l-.002 27.224c.002.867-.697 1.568-1.582 1.625h-3.873c-.834-.026-1.517-.623-1.63-1.405V21.083c0-3.237.165-6.665-1.15-9.617-1.347-3.02-3.91-4.898-6.665-5.037-3.078.152-5.903 2.385-7.73 5.417-2.385 3.904-2.3 7.427-2.3 11.997v24.7c-.11.75-.763 1.335-1.57 1.388h-3.853c-.914-.028-1.647-.74-1.647-1.627l-.017-29.03c0-2.667-.164-5.81-1.4-8.19-1.42-2.74-3.975-4.515-6.65-4.656-2.777.154-5.585 2.276-7.25 4.75-2.138 3.143-2.55 7.047-2.55 11.046l-.002 26.08c0 .868-.7 1.57-1.582 1.626h-3.855" fill="#0A0A08" mask="url(#b)"/><path d="M358.124 44.69c4.115-.135 7.36-2.684 9.283-6.945 1.727-3.808 2.057-8.188 2.057-12.377 0-4.57-.494-9.33-2.633-13.235-1.915-3.415-5.22-5.577-8.72-5.707-3.896.143-7.37 2.777-9.13 6.85-1.56 3.522-2.055 8.188-2.055 12.092 0 4.38.576 9.425 2.387 13.234 1.757 3.608 5.15 5.958 8.812 6.087zm-.922 6.195c-12.508 0-18.103-12.76-18.103-25.517 0-13.426 6.583-25.04 19.172-25.04l.325.002.34-.003c12.263 0 18.353 12.377 18.353 25.135 0 13.52-6.748 25.423-19.422 25.423l-.324-.004-.342.005zM318.114 44.5c5.615-.176 8.563-4.676 9.787-10.51.24-.727.798-1.287 1.617-1.287l3.714-.016c.876.046 1.68.716 1.615 1.533-1.715 9.923-7.705 16.665-16.242 16.665l-.344-.004-.323.005c-12.426 0-17.776-12.473-17.776-25.137 0-12.568 5.433-25.42 17.86-25.42l.327.002.338-.003c8.623 0 14.777 6.645 16.113 16.574 0 .746-.692 1.39-1.502 1.485l-3.893-.046c-.808-.116-1.343-.82-1.465-1.6-.937-5.542-4.12-9.95-9.425-10.124-8.45.27-10.854 10.67-10.854 18.656 0 7.71 2.005 18.95 10.454 19.228" fill="#0A0A08"/><g><mask id="d" fill="#fff"><use xlink:href="#c"/></mask><path d="M150.435 49.807c-.584.523-1.425.558-2.083.205-2.928-2.434-3.453-3.56-5.053-5.875-4.84 4.93-8.27 6.408-14.536 6.408-7.422 0-13.196-4.58-13.196-13.74 0-7.157 3.876-12.023 9.402-14.41 4.783-2.1 11.464-2.48 16.577-3.053v-1.145c0-2.1.165-4.58-1.072-6.393-1.073-1.622-3.134-2.29-4.95-2.29-3.36 0-6.35 1.723-7.085 5.294-.152.794-.732 1.58-1.53 1.62l-8.546-.925c-.72-.162-1.523-.74-1.315-1.842C119.012 3.295 128.373.163 136.763.163c4.288 0 9.896 1.145 13.277 4.39 4.29 4.008 3.877 9.35 3.877 15.172V33.46c0 4.13 1.717 5.943 3.328 8.17.563.8.69 1.755-.03 2.34-1.8 1.51-5 4.29-6.76 5.856l-.02-.02zm-8.888-21.495c0 3.435.082 6.298-1.65 9.352-1.402 2.48-3.628 4.007-6.103 4.007-3.38 0-5.36-2.576-5.36-6.392 0-7.508 6.735-8.874 13.113-8.874v1.908zM34.866 49.807c-.584.523-1.426.558-2.083.205-2.93-2.434-3.453-3.56-5.054-5.875-4.84 4.93-8.267 6.408-14.535 6.408C5.772 50.545 0 45.965 0 36.805c0-7.157 3.876-12.023 9.4-14.41 4.785-2.1 11.465-2.48 16.577-3.053v-1.145c0-2.1.166-4.58-1.07-6.393-1.073-1.622-3.136-2.29-4.95-2.29-3.36 0-6.352 1.723-7.085 5.294-.153.794-.732 1.58-1.532 1.62l-8.544-.925c-.722-.162-1.525-.74-1.316-1.842C3.443 3.295 12.805.163 21.194.163c4.29 0 9.897 1.145 13.28 4.39 4.287 4.008 3.875 9.35 3.875 15.172V33.46c0 4.13 1.714 5.943 3.326 8.17.562.8.69 1.755-.03 2.34-1.8 1.51-5 4.29-6.76 5.856l-.02-.02zm-8.89-21.495c0 3.435.084 6.298-1.648 9.352-1.4 2.48-3.628 4.007-6.102 4.007-3.38 0-5.36-2.576-5.36-6.392 0-7.508 6.735-8.874 13.11-8.874v1.908z" fill="#0A0A08" mask="url(#d)"/></g></g></svg>