<?xml version="1.0" encoding="UTF-8" standalone="no"?>
<svg width="395px" height="173px" viewBox="0 0 395 173" version="1.1" xmlns="http://www.w3.org/2000/svg" xmlns:xlink="http://www.w3.org/1999/xlink" xmlns:sketch="http://www.bohemiancoding.com/sketch/ns">
    <!-- Generator: Sketch 3.3.3 (12072) - http://www.bohemiancoding.com/sketch -->
    <title>Shape</title>
    <desc>Created with Sketch.</desc>
    <defs></defs>
    <g id="Page-1" stroke="none" stroke-width="1" fill="none" fill-rule="evenodd" sketch:type="MSPage">
        <path d="M8,165 C54,121 90,106 143,110 C169,113 188,117 226,128 C248,135 260,138 272,140 C303,145 334,142 356,130 C365,126 368,124 376,117 C383,110 385,106 388,100 C399,77 388,55 365,53 C353,52 342,56 316,74 C290,91 282,95 277,91 C275,89 274,89 275,85 C275,83 277,79 279,76 L281,71 L271,78 C245,94 232,97 234,85 C234,83 235,79 236,76 C238,74 238,73 237,73 C237,74 231,77 225,81 C206,93 199,96 195,93 C192,90 192,85 194,80 C197,76 206,68 220,56 C230,47 232,45 229,45 C226,45 211,53 199,61 C182,73 179,75 171,84 C164,91 163,91 158,92 C155,92 151,93 150,92 L146,92 L157,83 C178,66 197,46 195,44 C195,43 180,53 162,65 C143,78 127,88 124,90 C119,92 112,92 110,90 C107,88 108,83 113,77 L117,71 L106,78 C93,87 84,92 78,92 C72,93 70,91 71,86 C71,74 84,58 102,50 C114,45 120,43 140,43 C150,42 158,42 158,42 C159,42 150,51 139,62 C115,86 112,91 121,89 C122,89 138,78 156,67 C174,55 191,44 193,43 C199,40 202,40 202,44 C203,47 200,52 191,62 L186,68 L199,59 C221,44 232,40 235,45 C236,47 233,54 229,60 C227,62 219,69 212,76 C198,88 196,92 201,92 C206,92 237,72 247,63 C261,50 279,43 301,42 L310,42 L328,27 C337,19 348,10 351,7 L357,1 L366,0 L374,0 C374,1 372,3 369,6 C350,20 296,67 286,77 C277,87 277,92 286,89 C292,87 298,84 318,70 C341,55 350,51 365,52 C377,52 386,59 392,70 C396,78 396,89 392,98 C381,122 359,137 328,142 C299,147 272,144 230,132 C176,116 155,113 128,115 C86,120 49,136 10,167 C6,170 1,173 0,173 L8,165 L8,165 Z M88,87 C104,79 125,64 137,52 L144,44 L136,45 C129,45 127,46 120,49 C116,51 109,55 106,57 C92,67 74,86 76,89 C77,91 80,91 88,87 L88,87 Z M252,87 C258,84 276,72 284,66 C287,64 293,59 298,53 L308,44 L299,45 C292,45 290,45 282,49 C273,54 266,59 255,68 C248,75 240,86 240,89 C240,90 240,91 243,90 C245,90 249,88 252,87 L252,87 Z" id="Shape" fill="#002226" sketch:type="MSShapeGroup"></path>
    </g>
</svg>