<svg width="395" height="173" viewBox="0 0 395 173" xmlns="http://www.w3.org/2000/svg"><title>Shape</title><path d="M8 165c46-44 82-59 135-55 26 3 45 7 83 18 22 7 34 10 46 12 31 5 62 2 84-10 9-4 12-6 20-13 7-7 9-11 12-17 11-23 0-45-23-47-12-1-23 3-49 21-26 17-34 21-39 17-2-2-3-2-2-6 0-2 2-6 4-9l2-5-10 7c-26 16-39 19-37 7 0-2 1-6 2-9 2-2 2-3 1-3 0 1-6 4-12 8-19 12-26 15-30 12-3-3-3-8-1-13 3-4 12-12 26-24 10-9 12-11 9-11s-18 8-30 16c-17 12-20 14-28 23-7 7-8 7-13 8-3 0-7 1-8 0h-4l11-9c21-17 40-37 38-39 0-1-15 9-33 21-19 13-35 23-38 25-5 2-12 2-14 0-3-2-2-7 3-13l4-6-11 7c-13 9-22 14-28 14-6 1-8-1-7-6 0-12 13-28 31-36 12-5 18-7 38-7 10-1 18-1 18-1 1 0-8 9-19 20-24 24-27 29-18 27 1 0 17-11 35-22 18-12 35-23 37-24 6-3 9-3 9 1 1 3-2 8-11 18l-5 6 13-9c22-15 33-19 36-14 1 2-2 9-6 15-2 2-10 9-17 16-14 12-16 16-11 16s36-20 46-29c14-13 32-20 54-21h9l18-15c9-8 20-17 23-20l6-6 9-1h8c0 1-2 3-5 6-19 14-73 61-83 71-9 10-9 15 0 12 6-2 12-5 32-19 23-15 32-19 47-18 12 0 21 7 27 18 4 8 4 19 0 28-11 24-33 39-64 44-29 5-56 2-98-10-54-16-75-19-102-17-42 5-79 21-118 52-4 3-9 6-10 6l8-8zm80-78c16-8 37-23 49-35l7-8-8 1c-7 0-9 1-16 4-4 2-11 6-14 8-14 10-32 29-30 32 1 2 4 2 12-2zm164 0c6-3 24-15 32-21 3-2 9-7 14-13l10-9-9 1c-7 0-9 0-17 4-9 5-16 10-27 19-7 7-15 18-15 21 0 1 0 2 3 1 2 0 6-2 9-3z" fill="#E6E5EB" fill-rule="evenodd"/></svg>