<?xml version="1.0" standalone="no"?>
<!DOCTYPE svg PUBLIC "-//W3C//DTD SVG 1.1//EN" "http://www.w3.org/Graphics/SVG/1.1/DTD/svg11.dtd">
<svg width="100%" height="100%" viewBox="0 0 1650 445" version="1.1" xmlns="http://www.w3.org/2000/svg" xmlns:xlink="http://www.w3.org/1999/xlink" xml:space="preserve" style="fill-rule:evenodd;clip-rule:evenodd;stroke-linejoin:round;stroke-miterlimit:1.41421;">
    <g transform="matrix(1,0,0,1,-75.0008,-77.9925)">
        <g id="Layer 1" transform="matrix(4.16667,0,0,4.16667,0,0)">
            <path d="M58.097,87.358L79.129,87.358L68.689,52.86L58.097,87.358ZM86.089,107.785L50.985,107.785L45.689,122.461L18,122.461L58.4,21.539L78.826,21.539L118.923,122.461L90.93,122.461L86.089,107.785Z" style="fill:rgb(35,31,32);fill-rule:nonzero;"/>
            <path d="M169.695,31.071C170.906,32.584 171.913,33.998 172.721,35.307C173.528,36.62 174.182,38.031 174.689,39.544C175.192,41.057 175.57,42.722 175.823,44.537C176.074,46.352 176.3,48.471 176.504,50.892L151.084,50.892C150.574,47.464 149.583,44.991 148.107,43.478C146.632,41.966 144.524,41.209 141.776,41.209C139.337,41.209 137.225,41.966 135.445,43.478C133.665,44.991 132.776,46.807 132.776,48.925C132.776,52.961 135.651,56.29 141.401,58.912L153.808,64.51C162.281,68.344 168.307,72.506 171.89,76.993C175.469,81.484 177.261,87.006 177.261,93.562C177.261,103.347 174.175,110.938 168.009,116.335C161.844,121.731 153.226,124.428 142.157,124.428C136.507,124.428 131.438,123.695 126.95,122.234C122.461,120.773 118.629,118.656 115.451,115.88C112.273,113.106 109.827,109.752 108.112,105.817C106.396,101.884 105.54,97.446 105.54,92.502L105.54,89.175L131.414,89.175C131.414,93.41 132.346,96.74 134.213,99.161C136.079,101.581 138.625,102.792 141.855,102.792C144.678,102.792 147.049,101.86 148.966,99.992C150.881,98.127 151.841,95.831 151.841,93.108C151.841,90.789 151.005,88.772 149.335,87.055C147.666,85.342 144.907,83.726 141.063,82.214C138.024,80.903 135.519,79.869 133.547,79.111C131.573,78.355 130.18,77.776 129.371,77.371C127.042,76.364 124.865,75.28 122.841,74.118C120.818,72.96 118.945,71.674 117.226,70.26C114.087,67.74 111.607,64.638 109.786,60.955C107.963,57.273 107.054,53.415 107.054,49.38C107.054,45.142 107.962,41.209 109.777,37.577C111.593,33.946 114.09,30.795 117.266,28.121C120.445,25.449 124.201,23.354 128.539,21.842C132.875,20.329 137.516,19.571 142.459,19.571C147.907,19.571 153.075,20.606 157.969,22.674C162.86,24.742 166.768,27.541 169.695,31.071" style="fill:rgb(35,31,32);fill-rule:nonzero;"/>
            <path d="M291.201,101.733C301.996,101.733 310.117,96.085 315.563,84.786L342.497,84.786C341.083,90.739 338.79,96.133 335.611,100.975C332.434,105.817 328.6,109.978 324.111,113.459C319.624,116.938 314.603,119.639 309.056,121.553C303.509,123.468 297.657,124.428 291.506,124.428C284.04,124.428 277.08,123.067 270.625,120.343C264.168,117.62 258.569,113.888 253.829,109.147C249.087,104.406 245.33,98.835 242.558,92.426C239.782,86.022 238.395,79.138 238.395,71.773C238.395,64.51 239.759,57.702 242.482,51.346C245.205,44.991 248.935,39.468 253.678,34.778C258.418,30.087 263.991,26.38 270.398,23.657C276.802,20.933 283.737,19.571 291.201,19.571C300.682,19.571 309.283,21.667 317.002,25.851C324.718,30.038 331.046,36.064 335.99,43.932C337.099,45.648 338.007,47.135 338.714,48.395C339.419,49.658 340,50.869 340.453,52.027C340.908,53.188 341.287,54.399 341.589,55.659C341.891,56.92 342.193,58.358 342.497,59.971L315.563,59.971C313.545,54.524 310.344,50.212 305.955,47.034C301.566,43.856 296.598,42.268 291.053,42.268C287.216,42.268 283.661,43.024 280.384,44.537C277.106,46.05 274.257,48.119 271.837,50.741C269.415,53.365 267.523,56.466 266.161,60.046C264.8,63.629 264.119,67.537 264.119,71.773C264.119,76.009 264.824,79.944 266.238,83.576C267.648,87.207 269.566,90.383 271.985,93.108C274.408,95.831 277.257,97.949 280.537,99.462C283.813,100.975 287.369,101.733 291.201,101.733" style="fill:rgb(35,31,32);fill-rule:nonzero;"/>
            <path d="M353.175,87.358L374.206,87.358L363.766,52.86L353.175,87.358ZM381.165,107.785L346.065,107.785L340.768,122.461L313.078,122.461L353.477,21.539L373.904,21.539L414,122.461L386.008,122.461L381.165,107.785Z" style="fill:rgb(35,31,32);fill-rule:nonzero;"/>
            <path d="M211.908,66.732C221.752,66.732 226.537,63.308 226.537,56.264C226.537,52.455 225.421,49.82 223.126,48.207C220.706,46.508 216.575,45.646 210.849,45.646L202.879,45.646L202.879,66.732L211.908,66.732ZM175.394,123.871L175.394,20.128L209.79,20.128C213.82,20.128 217.471,20.257 220.644,20.511C223.845,20.77 226.721,21.215 229.198,21.835C231.703,22.461 233.989,23.287 235.992,24.287C237.994,25.29 239.916,26.543 241.705,28.014C245.688,31.266 248.776,35.364 250.878,40.192C252.964,44.992 254.021,50.273 254.021,55.886C254.021,61.19 253.018,66.309 251.039,71.101C249.054,75.905 246.345,79.94 242.984,83.091C239.408,86.46 235.192,88.861 230.456,90.227C225.817,91.568 219.78,92.248 212.514,92.248L202.879,92.248L202.879,123.871L175.394,123.871Z" style="fill:rgb(35,31,32);fill-rule:nonzero;"/>
            <path d="M204.289,47.056L210.85,47.056C217.613,47.056 220.818,48.31 222.316,49.362C224.207,50.69 225.126,52.948 225.126,56.264C225.126,60.481 223.624,65.322 211.908,65.322L204.289,65.322L204.289,47.056ZM209.79,18.718L176.805,18.718L173.984,18.718L173.984,125.282L204.289,125.282L204.289,122.461L204.289,93.659L212.514,93.659C219.913,93.659 226.082,92.96 230.85,91.581C235.801,90.153 240.211,87.641 243.954,84.116C247.457,80.83 250.281,76.631 252.343,71.639C254.393,66.676 255.433,61.376 255.433,55.886C255.433,50.077 254.335,44.608 252.172,39.63C249.978,34.593 246.756,30.316 242.594,26.918C240.73,25.387 238.72,24.075 236.625,23.026C234.528,21.979 232.145,21.118 229.54,20.466C226.989,19.828 224.035,19.37 220.76,19.105C217.547,18.848 213.857,18.718 209.79,18.718M201.468,68.142L211.908,68.142C222.601,68.142 227.947,64.184 227.947,56.264C227.947,52.001 226.609,48.931 223.937,47.053C221.264,45.176 216.9,44.235 210.85,44.235L201.468,44.235L201.468,68.142M209.79,21.539C213.824,21.539 217.406,21.667 220.532,21.917C223.657,22.17 226.435,22.598 228.855,23.203C231.276,23.808 233.444,24.591 235.362,25.549C237.277,26.508 239.093,27.692 240.81,29.103C244.642,32.231 247.565,36.116 249.585,40.755C251.602,45.395 252.611,50.438 252.611,55.886C252.611,61.03 251.651,65.924 249.735,70.562C247.818,75.204 245.246,79.036 242.019,82.062C238.591,85.292 234.604,87.562 230.065,88.871C225.527,90.183 219.674,90.838 212.514,90.838L201.468,90.838L201.468,122.461L176.805,122.461L176.805,21.539L209.79,21.539" style="fill:white;fill-rule:nonzero;"/>
            <path d="M398.778,27.783L399.383,27.783C400.131,27.783 400.506,27.5 400.506,26.934C400.506,26.369 400.131,26.086 399.383,26.086L398.778,26.086L398.778,27.783ZM396.96,31.146L396.96,24.48L399.232,24.48C401.272,24.48 402.293,25.258 402.293,26.813C402.293,27.338 402.141,27.798 401.838,28.192C401.536,28.585 401.151,28.833 400.687,28.933L402.564,31.146L400.352,31.146L398.84,29.116L398.84,31.146L396.96,31.146ZM404.748,27.813C404.748,27.086 404.61,26.409 404.338,25.783C404.065,25.157 403.692,24.606 403.216,24.131C402.742,23.657 402.191,23.283 401.565,23.011C400.939,22.737 400.262,22.601 399.535,22.601C398.809,22.601 398.127,22.737 397.49,23.011C396.854,23.283 396.298,23.657 395.825,24.131C395.348,24.606 394.975,25.157 394.702,25.783C394.428,26.409 394.293,27.086 394.293,27.813C394.293,28.54 394.428,29.222 394.702,29.858C394.975,30.494 395.348,31.051 395.825,31.524C396.298,32 396.854,32.373 397.49,32.645C398.127,32.918 398.809,33.054 399.535,33.054C400.262,33.054 400.939,32.918 401.565,32.645C402.191,32.373 402.742,32 403.216,31.524C403.692,31.051 404.065,30.494 404.338,29.858C404.61,29.222 404.748,28.54 404.748,27.813M393.113,27.813C393.113,26.924 393.278,26.091 393.611,25.313C393.946,24.535 394.403,23.854 394.991,23.267C395.578,22.682 396.257,22.222 397.035,21.889C397.813,21.556 398.646,21.389 399.535,21.389C400.424,21.389 401.257,21.556 402.034,21.889C402.811,22.222 403.495,22.682 404.08,23.267C404.666,23.854 405.126,24.535 405.459,25.313C405.792,26.091 405.959,26.924 405.959,27.813C405.959,28.702 405.792,29.536 405.459,30.312C405.126,31.092 404.666,31.772 404.08,32.358C403.495,32.944 402.811,33.403 402.034,33.736C401.257,34.069 400.424,34.236 399.535,34.236C398.646,34.236 397.813,34.069 397.035,33.736C396.257,33.403 395.578,32.944 394.991,32.358C394.403,31.772 393.946,31.092 393.611,30.312C393.278,29.536 393.113,28.702 393.113,27.813" style="fill:rgb(35,31,32);fill-rule:nonzero;"/>
        </g>
    </g>
</svg>
