<svg viewBox="0 0 1650 445" xmlns="http://www.w3.org/2000/svg" fill-rule="evenodd" clip-rule="evenodd" stroke-linejoin="round" stroke-miterlimit="1.414"><g fill-rule="nonzero"><path d="M167.07 286h87.634l-43.5-143.742-44.134 143.74zm116.634 85.112H137.437l-22.067 61.15H0l168.333-420.51h85.108l167.072 420.51H303.875l-20.17-61.15z" fill="#231f20"/><path d="M632.062 51.47c5.046 6.304 9.242 12.196 12.61 17.65 3.36 5.47 6.086 11.35 8.2 17.654 2.094 6.304 3.67 13.242 4.724 20.804 1.045 7.563 1.987 16.392 2.837 26.48H554.516c-2.125-14.284-6.254-24.588-12.404-30.892-6.146-6.3-14.93-9.454-26.38-9.454-10.162 0-18.962 3.154-26.378 9.454-7.417 6.304-11.12 13.87-11.12 22.696 0 16.817 11.978 30.687 35.937 41.612l51.696 23.325c35.305 15.974 60.413 33.316 75.342 52.012 14.913 18.712 22.38 41.72 22.38 69.037 0 40.77-12.86 72.4-38.55 94.887-25.688 22.483-61.597 33.72-107.717 33.72-23.54 0-44.662-3.053-63.362-9.14-18.704-6.088-34.67-14.91-47.913-26.476-13.24-11.557-23.433-25.532-30.58-41.928-7.15-16.387-10.715-34.88-10.715-55.48V293.57h107.808c0 17.646 3.883 31.52 11.662 41.61 7.775 10.082 18.384 15.128 31.842 15.128 11.763 0 21.642-3.883 29.63-11.667 7.98-7.77 11.98-17.336 11.98-28.682 0-9.663-3.485-18.067-10.443-25.22-6.955-7.14-18.45-13.872-34.468-20.172-12.662-5.462-23.1-9.77-31.317-12.93-8.225-3.15-14.03-5.562-17.4-7.25-9.704-4.195-18.775-8.712-27.208-13.553-8.43-4.825-16.233-10.184-23.396-16.075-13.078-10.5-23.41-23.425-31-38.77-7.595-15.343-11.382-31.418-11.382-48.23 0-17.66 3.783-34.046 11.346-49.18 7.566-15.13 17.97-28.258 31.204-39.4 13.246-11.133 28.896-19.862 46.97-26.162 18.067-6.304 37.405-9.463 58-9.463 22.7 0 44.234 4.313 64.626 12.93 20.38 8.616 36.662 20.28 48.858 34.987M1138.338 345.895c44.98 0 78.816-23.533 101.508-70.612h112.225c-5.89 24.804-15.445 47.28-28.69 67.454-13.238 20.175-29.213 37.513-47.917 52.017-18.696 14.496-39.617 25.75-62.73 33.725-23.112 7.978-47.495 11.978-73.124 11.978-31.11 0-60.11-5.67-87.006-17.02-26.904-11.347-50.233-26.897-69.983-46.65-19.757-19.755-35.412-42.968-46.962-69.672-11.566-26.683-17.346-55.367-17.346-86.054 0-30.263 5.684-58.63 17.03-85.113 11.346-26.48 26.887-49.492 46.65-69.034 19.75-19.546 42.97-34.992 69.666-46.338 26.684-11.35 55.58-17.025 86.68-17.025 39.504 0 75.34 8.734 107.504 26.167 32.15 17.446 58.517 42.554 79.117 75.338 4.62 7.15 8.403 13.345 11.35 18.595 2.936 5.263 5.357 10.31 7.245 15.134a114.685 114.685 0 0 1 4.733 15.133c1.258 5.254 2.517 11.246 3.783 17.967h-112.224c-8.408-22.696-21.746-40.663-40.033-53.904-18.288-13.242-38.988-19.86-62.092-19.86-15.987 0-30.8 3.15-44.453 9.455-13.66 6.305-25.53 14.925-35.613 25.85-10.09 10.934-17.975 23.855-23.65 38.77-5.67 14.93-8.508 31.214-8.508 48.864s2.937 34.046 8.83 49.18c5.874 15.128 13.866 28.362 23.945 39.716 10.097 11.346 21.968 20.17 35.634 26.475 13.65 6.304 28.467 9.462 44.434 9.462" fill="#231f20"/><path d="M1396.563 286h87.63l-43.5-143.742-44.13 143.74zm116.625 85.112h-146.25l-22.07 61.15H1229.49l168.33-420.51h85.112L1650 432.263h-116.633l-20.18-61.15zM807.95 200.058c41.017 0 60.954-14.267 60.954-43.617 0-15.87-4.65-26.85-14.212-33.57-10.084-7.08-27.296-10.67-51.155-10.67H770.33v87.858h37.62zm-152.142 238.08V5.873h143.317c16.792 0 32.004.538 45.225 1.596 13.337 1.08 25.32 2.933 35.642 5.517 10.437 2.608 19.962 6.05 28.308 10.216 8.342 4.18 16.35 9.4 23.804 15.53 16.596 13.55 29.463 30.625 38.22 50.74 8.693 20 13.097 42.006 13.097 65.393 0 22.1-4.178 43.43-12.424 63.396-8.27 20.017-19.558 36.83-33.563 49.958-14.9 14.038-32.466 24.042-52.2 29.734-19.33 5.587-44.483 8.42-74.758 8.42H770.33v131.763H655.807z" fill="#231f20"/><path d="M776.204 118.074h27.338c28.18 0 41.533 5.225 47.775 9.61 7.88 5.532 11.708 14.94 11.708 28.757 0 17.572-6.258 37.743-55.075 37.743h-31.746v-76.11zM799.124 0H649.934v444.016h126.27V312.254h34.272c30.83 0 56.533-2.913 76.4-8.66 20.63-5.95 39.004-16.415 54.6-31.103 14.596-13.69 26.363-31.186 34.954-51.986 8.54-20.68 12.874-42.763 12.874-65.638 0-24.204-4.575-46.992-13.587-67.733-9.142-20.988-22.567-38.81-39.91-52.967-7.765-6.38-16.14-11.846-24.87-16.217-8.737-4.363-18.666-7.95-29.52-10.667-10.63-2.66-22.938-4.567-36.584-5.67C831.446.54 816.07-.002 799.125-.002M764.45 205.932h43.5c44.554 0 66.83-16.492 66.83-49.492 0-17.76-5.576-30.553-16.71-38.378-11.137-7.82-29.32-11.742-54.528-11.742H764.45v99.613m34.675-194.18c16.808 0 31.733.534 44.758 1.575 13.02 1.055 24.596 2.838 34.68 5.36 10.087 2.52 19.12 5.782 27.112 9.774 7.98 3.996 15.546 8.93 22.7 14.808 15.967 13.033 28.146 29.22 36.563 48.55 8.404 19.333 12.608 40.346 12.608 63.046 0 21.433-4 41.825-11.983 61.15-7.988 19.342-18.705 35.308-32.15 47.917-14.284 13.458-30.896 22.916-49.81 28.37-18.907 5.467-43.295 8.196-73.128 8.196H764.45V432.26H661.687V11.752h137.438" fill="#fff"/><path d="M1586.576 37.77h2.52c3.117 0 4.68-1.18 4.68-3.537 0-2.355-1.563-3.534-4.68-3.534h-2.52v7.07zM1579 51.783V24.008h9.467c8.5 0 12.754 3.24 12.754 9.72 0 2.188-.632 4.105-1.894 5.746-1.26 1.638-2.863 2.67-4.796 3.088l7.82 9.22h-9.216l-6.3-8.458v8.46H1579zm32.45-13.888c0-3.03-.574-5.85-1.708-8.458a22.11 22.11 0 0 0-11.554-11.55c-2.608-1.142-5.43-1.71-8.458-1.71-3.025 0-5.867.568-8.52 1.71-2.65 1.133-4.968 2.69-6.94 4.666-1.986 1.98-3.54 4.275-4.678 6.884-1.14 2.608-1.704 5.43-1.704 8.458 0 3.03.563 5.87 1.704 8.52 1.138 2.65 2.692 4.972 4.68 6.943 1.97 1.983 4.287 3.537 6.937 4.67 2.653 1.138 5.495 1.705 8.52 1.705 3.03 0 5.85-.567 8.458-1.705a21.96 21.96 0 0 0 6.88-4.67c1.983-1.97 3.537-4.292 4.674-6.942 1.134-2.65 1.71-5.492 1.71-8.52m-48.48 0c0-3.705.687-7.176 2.074-10.418 1.396-3.24 3.3-6.08 5.75-8.525a26.98 26.98 0 0 1 8.517-5.74c3.242-1.39 6.713-2.085 10.417-2.085 3.704 0 7.175.696 10.412 2.084 3.238 1.387 6.088 3.304 8.525 5.74a26.957 26.957 0 0 1 5.746 8.526c1.388 3.242 2.083 6.713 2.083 10.417 0 3.704-.695 7.18-2.083 10.413a26.818 26.818 0 0 1-5.746 8.525c-2.437 2.44-5.287 4.354-8.525 5.74-3.237 1.39-6.708 2.085-10.412 2.085-3.704 0-7.175-.696-10.417-2.084a26.91 26.91 0 0 1-8.517-5.74c-2.45-2.443-4.354-5.276-5.75-8.526-1.387-3.234-2.075-6.71-2.075-10.413" fill="#231f20"/></g></svg>