<svg width="177" height="56" viewBox="0 0 177 56" xmlns="http://www.w3.org/2000/svg"><title>Bed_Bath__and__Beyond</title><path d="M176.512 36.72c0-1.082-.892-1.955-1.974-1.955-1.082 0-1.974.873-1.974 1.955 0 1.1.892 1.974 1.974 1.974a1.972 1.972 0 0 0 1.974-1.974zm-.228 0a1.74 1.74 0 0 1-1.746 1.746 1.737 1.737 0 0 1-1.746-1.727 1.74 1.74 0 0 1 1.746-1.747c.968 0 1.746.778 1.746 1.727zm-2.487 1.025h.285v-.93h.72c.438 0 .324.398.362.664l.038.265h.342c-.114-.19-.076-.228-.095-.513-.04-.38-.058-.417-.267-.55.21-.17.285-.266.285-.55-.038-.494-.36-.55-.702-.55h-.97v2.163zm-44.13-3.208h21.562c31.963 0 31.963 21.05 0 21.05h-21.564v-21.05zM78.51 55.797c9.15 0 16.648-4.898 16.648-10.877 0-5.998-7.498-10.876-16.647-10.876-9.186 0-16.664 4.878-16.664 10.876 0 5.98 7.478 10.876 16.665 10.876zm-66.642-.21H.764v-21.05h10.193s8.41-.228 8.41 5.353c0 0 .34 3.834-2.98 4.954 0 0 4.136 1.1 4.136 5.01 0 3.91-3.853 5.733-8.655 5.733zM174.386 19.22l1.196.683s-1.534 2.173-3.937 4.51c2.517 3.352 4.563 6.08 4.563 6.08h-2.07l-3.687-4.974c-.41.36-.84.718-1.284 1.064-3.758 2.904-6.662 4.537-9.377 4.537-2.734 0-7.688-2.24-7.688-7.307 0-5.068 3.397-7.46 6.7-9.662a96.35 96.35 0 0 1 2.173-1.414s-3.046-3.482-3.046-6.557c0-3.095 2.694-5.563 5.694-5.563 3.018 0 5.22 2.79 5.22 5.657 0 2.705-2.62 4.86-5.606 6.98 1.458 1.915 4.578 6.06 7.392 9.808a63.096 63.096 0 0 0 3.756-3.843zm-89.61 11.274L96.903.314l12.186 30.18h-1.88l-3.928-9.718h-12.7l-3.89 9.718h-1.917zM36.903 1.3h6.625c18.676 0 19.094 29.194-.438 29.194h-6.188V1.3zm39.86 29.194H69.42V1.3h6.643s7.137 0 7.44 7.1c0 0 .418 4.65-3.227 6.624 0 0 5.79 1.177 5.79 7.308 0 6.188-4.916 8.162-9.3 8.162zm-68.408 0H1.01V1.3h6.663s7.137 0 7.422 7.1c0 0 .436 4.65-3.227 6.624 0 0 5.827 1.177 5.827 7.308 0 6.188-4.954 8.162-9.34 8.162zm166.43 5.334c.17 0 .435.038.397.417-.038.285-.21.323-.398.323h-.703v-.74h.703zm-28.17 13.382h2.26c12.26 0 12.26-8.124 0-8.124h-2.26v8.124zM95.52 34.537h11.33l10.042 11.18c.55.588 1.12.436.74-.456-.38-.91-.664-2.808-.664-2.808v-7.915h11.122v21.05h-11.16l-10.137-10.743c-.55-.608-1.12-.456-.74.455.36.89.55 2.81.55 2.81v7.477H95.52v-21.05zm-17.01 6.226c3.133 0 5.677 1.86 5.677 4.157 0 2.277-2.544 4.157-5.676 4.157-3.13 0-5.693-1.88-5.693-4.157 0-2.297 2.562-4.157 5.694-4.157zm-56.658-6.226h27.77l3.283 5.96 3.132-5.96h11.56l-9.794 12.09v8.96h-9.928v-9.263l-9.187-10.97v4.896h-7.725v2.07h7.1v5.41h-7.1v2.144h8.105v5.713H21.852v-21.05zm-13.4 8.238h1.992c2.126 0 2.126-3.19 0-3.19H8.45v3.19zm0 4.384h2.277c2.98 0 2.98 3.473 0 3.473H8.45V47.16zm160.98-23.016L162 14.12c-2.685 1.865-3.468 2.347-4.792 3.353-1.405 1.1-3.38 2.733-3.38 5.846 0 3.112 2.47 5.92 5.695 5.92 2.373 0 5.668-1.404 9.908-5.096zm-7.188-12.21c1.353-.862 2.35-1.537 3.164-2.395 1.367-1.444 1.594-2.355 1.594-3.266 0-.892-.588-3.796-3.587-3.796-3.018 0-3.702 2.676-3.702 4.024 0 1.218.766 2.994 2.53 5.43zM123.687 13.6h17.804V1.3h1.69v29.194h-1.69v-15.07h-17.803v15.07h-1.69V1.3h1.69v12.3zM103.34 1.3h16.816v1.652h-7.573v27.542h-1.69V2.952h-7.554v-1.65zm-.742 17.786l-5.694-14.14-5.656 14.14h11.35zM38.858 3.123h4.405c16.722 0 16.476 25.492 0 25.492H38.86V3.123zM19.955 1.3h13.913v1.823h-12.13v10.61h11.788v1.69H21.738V28.69h12.13v1.804H19.953V1.3zm51.098 1.785h4.897c7.705 0 7.724 11.484 0 11.484H71.05V3.084zm-68.41 0H7.54c7.707 0 7.726 11.484 0 11.484H2.643V3.084zM71.09 16.448h6.51c9.15 0 8.902 12.224-.247 12.224H71.09V16.448zm-68.39 0h6.49c9.17 0 8.923 12.224-.245 12.224H2.7V16.448z" fill="#1A1918" fill-rule="evenodd"/></svg>