<svg width="454" height="214" viewBox="0 0 454 214" xmlns="http://www.w3.org/2000/svg"><title>leukemia_lymphoma_society</title><g fill="#000" fill-rule="evenodd"><path d="M55.775 43.136C34.295 12.882 34.295.294 34.295.294s0 12.588-21.506 42.842c-25.453 35.847-7.492 64.968 21.504 64.968 28.98 0 46.958-29.12 21.48-64.968M388.63 28.584c-1.48.604-2.737.604-3.94.604h-8.456c-1.74 0-2.383.575-2.383 2.116v2.98l.957-.545c.823-.48 1.68-.74 2.476-.74 2.51 0 3.794 1.32 3.794 3.915 0 5.168-4.376 8.913-10.413 8.913-6.046 0-9.95-3.536-9.95-9.02 0-4.945 3.227-7.997 8.643-8.16l.262-.005 1.707-4.038-1.12.203c-2.39.37-4.278.025-5.43-.945-.836-.698-1.243-1.673-1.243-2.912 0-2.994 2.497-5.01 6.224-5.01 1.796 0 3.155.43 4.16 1.304l.707.635 1.005-3.094c.074-.192.157-.457.157-.81 0-1.303-2.922-2.11-5.618-2.11-6.466 0-11.153 3.924-11.153 9.33 0 2.457 1.057 4.45 3.003 5.67-3.825 1.948-6.09 5.61-6.09 9.94 0 7.59 6.045 13.11 14.38 13.11 8.755 0 15.122-5.44 15.122-12.945 0-1.46-.32-2.678-.99-3.772h.963c1.778 0 2.946 0 3.504-1.824l.888-3.18-1.168.39M92.673 48.193V11.868H97.2v32.286h16.867v4.04H92.673M119.76 48.193V11.868h23.792v4.006H124.28v11.724h18.89v4.032h-18.89v12.524h19.272v4.04H119.76M150.352 34.082V11.866h4.572v22.09c0 6.672 3.547 10.867 10.235 10.867 6.694 0 10.293-4.195 10.293-10.867v-22.09h4.567V34.02c0 9.055-5 14.81-14.86 14.81-9.796 0-14.808-5.82-14.808-14.748M210.748 48.193l-13.78-16.34-3.66 4.128v12.213h-4.515V11.868h4.516v18.715l16.078-18.715h5.653l-15.147 17.208 16.504 19.117h-5.65M221.808 48.193V11.868h23.785v4.006H226.33v11.724h18.89v4.032h-18.89v12.524h19.263v4.04h-23.785M284.646 48.193v-30.55l-12.303 30.55H270.5l-12.36-30.55v30.55h-4.526V11.868h6.468l11.33 27.984 11.29-27.984h6.48v36.325h-4.536M299.05 11.866h4.506V48.19h-4.505V11.867zM326.266 16.498l-7.69 19.597h15.425l-7.734-19.597zm12.246 31.694l-3.225-8.135H317.21l-3.2 8.135h-5.18l14.657-36.325h5.614l14.58 36.325h-5.168zM92.673 104.358V68.033H97.2v32.28h16.867v4.045H92.673M123.714 104.358V88.993l-14.325-20.96h5.272l11.284 16.86 11.284-16.86h5.28l-14.266 20.96v15.365h-4.53M178.755 104.358V73.803l-12.31 30.555h-1.868l-12.335-30.555v30.555h-4.52V68.033h6.45l11.352 27.977 11.254-27.977h6.485v36.325h-4.508M214.412 78.958c0-4.072-2.936-6.897-7.218-6.897h-9.55v13.817h9.55c4.282 0 7.218-2.814 7.218-6.92zm-21.29 25.4V68.03h14.598c7.313 0 11.376 4.996 11.376 10.928 0 5.935-4.136 10.95-11.376 10.95h-10.077v14.45h-4.52zM251.265 104.358V87.683h-21.24v16.675H225.5V68.033h4.526v15.615h21.24V68.033h4.518v36.325h-4.52M293.962 86.2c0-8.483-5.29-14.756-13.397-14.756-8.153 0-13.345 6.273-13.345 14.757 0 8.436 5.192 14.773 13.345 14.773 8.108 0 13.397-6.337 13.397-14.772zm-31.405 0c0-10.718 7.286-18.77 18.008-18.77 10.737 0 18.074 8.052 18.074 18.77 0 10.73-7.338 18.797-18.075 18.797-10.722 0-18.008-8.066-18.008-18.796zM336.436 104.358V73.803l-12.307 30.555h-1.83l-12.377-30.555v30.555h-4.53V68.033h6.497L323.2 96.01l11.27-27.977h6.492v36.325h-4.526M363.125 72.647l-7.675 19.608h15.416l-7.74-19.608zm12.25 31.712l-3.222-8.115h-18.056l-3.233 8.114H345.7l14.638-36.33h5.608l14.607 36.33h-5.18zM91.09 155.575l2.73-3.506a14.87 14.87 0 0 0 11.383 5.224c6.458 0 8.533-3.477 8.533-6.298 0-9.37-21.502-4.153-21.502-17.095 0-6 5.325-10.138 12.51-10.138 5.515 0 9.815 1.91 12.862 5.13l-2.71 3.315c-2.726-3.072-6.552-4.362-10.513-4.362-4.306 0-7.48 2.357-7.48 5.764 0 8.17 21.523 3.482 21.523 17.047 0 5.242-3.595 10.668-13.394 10.668-6.263 0-10.943-2.383-13.94-5.75M154.81 142.57c0-8.5-5.287-14.76-13.422-14.76-8.15 0-13.322 6.26-13.322 14.76 0 8.43 5.172 14.727 13.322 14.727 8.135 0 13.422-6.298 13.422-14.727zm-31.437 0c0-10.73 7.28-18.81 18.015-18.81 10.733 0 18.098 8.08 18.098 18.81 0 10.712-7.365 18.755-18.098 18.755-10.734 0-18.015-8.043-18.015-18.755zM164.482 142.57c0-11.193 8.233-18.81 18.683-18.81 6.434 0 10.9 3.052 13.788 7.2l-3.77 2.126c-2.064-3.108-5.876-5.277-10.018-5.277-7.954 0-13.986 6.036-13.986 14.76 0 8.593 6.03 14.727 13.985 14.727 4.142 0 7.954-2.22 10.02-5.28l3.803 2.086c-3.048 4.184-7.39 7.222-13.823 7.222-10.45 0-18.683-7.596-18.683-18.755M203.33 124.378h4.53v36.294h-4.53v-36.294zM217.198 160.67v-36.294h23.78v4.01H221.72V140.1h18.883v4.03H221.72v12.515h19.26v4.024h-23.782M257.493 160.67v-32.284H246v-4.01h27.55v4.01h-11.53v32.283h-4.527M290.302 160.67v-15.34l-14.332-20.954h5.28l11.28 16.874 11.253-16.874h5.286l-14.253 20.953v15.34h-4.515M101.262 190.227h4.39v16.696h-4.39v-16.696zm-.414-4.425a2.586 2.586 0 0 1 2.59-2.594c1.455 0 2.63 1.14 2.63 2.594a2.626 2.626 0 0 1-2.63 2.63c-1.42 0-2.59-1.175-2.59-2.63zm-9.894 21.122v-12.86H88.19v-3.837h2.764v-.69c0-3.912 2.39-6.018 5.605-6.018 1.278 0 2.384.27 3.182.69l-.9 3.25c-.35-.242-.833-.35-1.42-.35-1.244 0-2.074.798-2.074 2.428v.69h3.39v3.836h-3.39v12.86h-4.394zM122.364 201.013v-5.433c-.76-1.07-2.35-1.865-3.77-1.865-2.52 0-4.25 1.732-4.25 4.606 0 2.864 1.73 4.593 4.25 4.593 1.42 0 3.01-.83 3.77-1.9zm-11.825 10.2l1.97-3.15c1.35 1.455 3.144 2.04 5.22 2.04 2.11 0 4.634-.9 4.634-4.284v-1.63c-1.315 1.66-3.115 2.594-5.186 2.594-4.15 0-7.365-2.9-7.365-8.463 0-5.467 3.146-8.51 7.365-8.51 2.005 0 3.837.83 5.186 2.558v-2.14h4.39v15.59c0 6.326-4.91 7.888-9.025 7.888-2.836 0-5.082-.66-7.19-2.493zM143.292 206.925V196.76c0-2.32-1.214-3.044-3.08-3.044-1.725 0-3.07.968-3.8 1.938v11.27h-4.42v-23.06h4.42v8.5c1.07-1.243 3.11-2.554 5.84-2.554 3.67 0 5.433 2.005 5.433 5.258v11.857h-4.393M153.814 202.744v-8.678h-2.77v-3.84h2.77v-4.568h4.39v4.568h3.39v3.84h-3.39v7.5c0 1.074.555 1.866 1.524 1.866.655 0 1.276-.24 1.52-.52l.93 3.354c-.654.59-1.83 1.07-3.663 1.07-3.076 0-4.7-1.586-4.7-4.592M165.478 190.227h4.386v16.696h-4.386v-16.696zm-.42-4.425a2.588 2.588 0 0 1 2.592-2.594c1.454 0 2.633 1.14 2.633 2.594a2.63 2.63 0 0 1-2.633 2.63c-1.416 0-2.59-1.175-2.59-2.63zM186.36 206.925v-10.1c0-2.314-1.21-3.11-3.075-3.11-1.726 0-3.044.97-3.8 1.94v11.27h-4.394v-16.697h4.395v2.137c1.07-1.244 3.14-2.555 5.84-2.555 3.7 0 5.465 2.075 5.465 5.325v11.79h-4.43M207.463 201.013v-5.433c-.76-1.07-2.347-1.865-3.766-1.865-2.528 0-4.254 1.732-4.254 4.606 0 2.864 1.726 4.593 4.254 4.593 1.42 0 3.006-.83 3.766-1.9zm-11.825 10.2l1.97-3.15c1.353 1.455 3.145 2.04 5.22 2.04 2.114 0 4.635-.9 4.635-4.284v-1.63c-1.312 1.66-3.11 2.594-5.185 2.594-4.147 0-7.365-2.9-7.365-8.463 0-5.467 3.145-8.51 7.365-8.51 2.008 0 3.835.83 5.185 2.558v-2.14h4.39v15.59c0 6.326-4.906 7.888-9.025 7.888-2.83 0-5.08-.66-7.19-2.493zM235.032 203.432c2.528 0 4.222-1.974 4.222-4.88 0-2.864-1.694-4.835-4.222-4.835-1.447 0-3.04.83-3.797 1.935v5.914c.756 1.075 2.35 1.866 3.797 1.866zm-8.19 3.495v-23.06h4.393v8.5c1.318-1.725 3.183-2.556 5.15-2.556 4.254 0 7.4 3.318 7.4 8.743 0 5.608-3.18 8.785-7.4 8.785-2.005 0-3.832-.897-5.15-2.556v2.145h-4.394zM247.983 183.864h4.39v23.06h-4.39v-23.06zM269.627 198.553c0-2.593-1.52-4.836-4.285-4.836-2.73 0-4.25 2.243-4.25 4.836 0 2.633 1.52 4.88 4.25 4.88 2.765 0 4.285-2.247 4.285-4.88zm-13.097 0c0-4.73 3.32-8.742 8.812-8.742 5.533 0 8.857 4.012 8.857 8.743 0 4.74-3.325 8.785-8.858 8.785-5.493 0-8.812-4.045-8.812-8.785zM290.387 198.553c0-2.593-1.517-4.836-4.29-4.836-2.73 0-4.247 2.243-4.247 4.836 0 2.633 1.517 4.88 4.247 4.88 2.773 0 4.29-2.247 4.29-4.88zm-13.105 0c0-4.73 3.316-8.742 8.815-8.742 5.53 0 8.85 4.012 8.85 8.743 0 4.74-3.32 8.785-8.85 8.785-5.5 0-8.815-4.045-8.815-8.785zM310.592 201.53v-5.917c-.725-1.102-2.323-1.897-3.773-1.897-2.522 0-4.255 1.974-4.255 4.836 0 2.908 1.733 4.878 4.254 4.878 1.45 0 3.047-.79 3.772-1.9zm0 5.395v-2.144c-1.322 1.663-3.118 2.557-5.154 2.557-4.184 0-7.4-3.177-7.4-8.785 0-5.422 3.146-8.742 7.4-8.742 1.967 0 3.832.83 5.154 2.556v-8.5h4.42v23.06h-4.42zM328.928 198.553c0-5.11 3.74-8.742 8.854-8.742 3.42 0 5.496 1.487 6.605 3.01l-2.87 2.693c-.795-1.172-2.008-1.796-3.528-1.796-2.662 0-4.53 1.935-4.53 4.836 0 2.905 1.868 4.88 4.53 4.88 1.52 0 2.732-.687 3.527-1.835l2.87 2.7c-1.11 1.523-3.184 3.04-6.605 3.04-5.115 0-8.854-3.63-8.854-8.785M358.156 202.913v-2.076c-.725-.966-2.11-1.485-3.53-1.485-1.724 0-3.144.934-3.144 2.52 0 1.594 1.42 2.494 3.143 2.494 1.422 0 2.806-.485 3.53-1.453zm0 4.013v-1.77c-1.136 1.39-3.11 2.18-5.286 2.18-2.67 0-5.775-1.795-5.775-5.53 0-3.94 3.104-5.394 5.775-5.394 2.24 0 4.18.726 5.286 2.04v-2.11c0-1.69-1.45-2.793-3.665-2.793-1.763 0-3.42.683-4.804 1.963l-1.73-3.072c2.04-1.83 4.67-2.63 7.296-2.63 3.835 0 7.33 1.522 7.33 6.33v10.786h-4.426zM379.05 206.925v-10.1c0-2.314-1.21-3.11-3.08-3.11-1.725 0-3.043.97-3.803 1.94v11.27h-4.39v-16.697h4.39v2.137c1.074-1.244 3.148-2.555 5.848-2.555 3.696 0 5.46 2.075 5.46 5.325v11.79h-4.424M387.597 198.553c0-5.11 3.735-8.742 8.854-8.742 3.425 0 5.5 1.487 6.608 3.01l-2.873 2.693c-.795-1.172-2.002-1.796-3.522-1.796-2.664 0-4.53 1.935-4.53 4.836 0 2.905 1.866 4.88 4.53 4.88 1.52 0 2.727-.687 3.522-1.835l2.873 2.7c-1.108 1.523-3.183 3.04-6.607 3.04-5.118 0-8.853-3.63-8.853-8.785M414.373 193.403c-2.73 0-3.91 1.904-4.08 3.56h8.226c-.133-1.587-1.242-3.56-4.147-3.56zm-8.645 5.15c0-4.836 3.596-8.742 8.645-8.742 5.01 0 8.372 3.74 8.372 9.16v1.037h-12.417c.313 2.047 1.97 3.74 4.805 3.74 1.42 0 3.355-.59 4.428-1.626l1.968 2.906c-1.656 1.52-4.282 2.312-6.877 2.312-5.086 0-8.922-3.418-8.922-8.785zM426.8 206.925v-16.697h4.386v2.246c1.214-1.454 3.253-2.664 5.325-2.664v4.285c-.305-.066-.69-.1-1.21-.1-1.45 0-3.385.826-4.114 1.9v11.03H426.8M438.662 204.744l1.9-3.177c1.245 1.18 3.7 2.316 5.772 2.316 1.908 0 2.803-.725 2.803-1.764 0-2.732-9.89-.483-9.89-7.053 0-2.806 2.42-5.258 6.85-5.258 2.8 0 5.046.968 6.705 2.283l-1.764 3.106c-1-1.033-2.9-1.932-4.94-1.932-1.592 0-2.63.694-2.63 1.625 0 2.455 9.924.38 9.924 7.124 0 3.076-2.63 5.322-7.26 5.322-2.91 0-5.71-.968-7.47-2.596M315.224 128.28h1.04c.875 0 1.68-.04 1.68-1.05 0-.85-.735-.978-1.405-.978h-1.316v2.03zm-.99-2.834h2.47c1.516 0 2.23.6 2.23 1.827 0 1.154-.73 1.636-1.677 1.737l1.824 2.82h-1.066l-1.736-2.747h-1.054v2.748h-.99v-6.384zm2.13 7.86c2.528 0 4.485-2.016 4.485-4.687 0-2.616-1.958-4.635-4.485-4.635-2.556 0-4.512 2.02-4.512 4.634 0 2.67 1.956 4.686 4.512 4.686zm0-10.124c2.982 0 5.48 2.35 5.48 5.437 0 3.138-2.498 5.49-5.48 5.49-2.995 0-5.51-2.352-5.51-5.49 0-3.087 2.515-5.438 5.51-5.438z"/></g></svg>