<?xml version="1.0" encoding="UTF-8" standalone="no"?>
<svg width="454px" height="214px" viewBox="0 0 454 214" version="1.1" xmlns="http://www.w3.org/2000/svg" xmlns:xlink="http://www.w3.org/1999/xlink" xmlns:sketch="http://www.bohemiancoding.com/sketch/ns">
    <!-- Generator: Sketch 3.4 (15575) - http://www.bohemiancoding.com/sketch -->
    <title>leukemia_lymphoma_society</title>
    <desc>Created with Sketch.</desc>
    <defs></defs>
    <g id="Page-1" stroke="none" stroke-width="1" fill="none" fill-rule="evenodd" sketch:type="MSPage">
        <g id="leukemia_lymphoma_society" sketch:type="MSLayerGroup" fill="#000000">
            <path d="M55.775,43.136 C34.294,12.882 34.294,0.294 34.294,0.294 C34.294,0.294 34.294,12.882 12.789,43.136 C-12.663,78.983 5.298,108.104 34.294,108.104 C63.275,108.104 81.252,78.983 55.775,43.136" id="Fill-1" sketch:type="MSShapeGroup"></path>
            <path d="M388.63,28.584 C387.151,29.188 385.893,29.188 384.69,29.188 L376.234,29.188 C374.493,29.188 373.851,29.763 373.851,31.304 L373.851,34.283 L374.807,33.739 C375.63,33.26 376.488,33 377.283,33 C379.794,33 381.077,34.321 381.077,36.915 C381.077,42.083 376.701,45.828 370.664,45.828 C364.618,45.828 360.713,42.292 360.713,36.807 C360.713,31.863 363.941,28.811 369.357,28.647 L369.619,28.643 L371.327,24.605 L370.208,24.808 C367.816,25.178 365.929,24.833 364.778,23.863 C363.941,23.165 363.534,22.19 363.534,20.951 C363.534,17.956 366.031,15.94 369.758,15.94 C371.554,15.94 372.913,16.37 373.917,17.244 L374.625,17.879 L375.63,14.786 C375.704,14.594 375.787,14.329 375.787,13.977 C375.787,12.673 372.865,11.867 370.169,11.867 C363.704,11.867 359.017,15.79 359.017,21.195 C359.017,23.653 360.074,25.645 362.02,26.865 C358.195,28.814 355.931,32.476 355.931,36.807 C355.931,44.395 361.975,49.915 370.309,49.915 C379.065,49.915 385.432,44.476 385.432,36.971 C385.432,35.51 385.112,34.292 384.442,33.198 L385.405,33.198 C387.183,33.198 388.351,33.198 388.909,31.374 L389.798,28.193 L388.63,28.584" id="Fill-2" sketch:type="MSShapeGroup"></path>
            <path d="M92.673,48.193 L92.673,11.868 L97.199,11.868 L97.199,44.154 L114.067,44.154 L114.067,48.193 L92.673,48.193" id="Fill-3" sketch:type="MSShapeGroup"></path>
            <path d="M119.759,48.193 L119.759,11.868 L143.552,11.868 L143.552,15.874 L124.279,15.874 L124.279,27.598 L143.171,27.598 L143.171,31.63 L124.279,31.63 L124.279,44.154 L143.552,44.154 L143.552,48.193 L119.759,48.193" id="Fill-4" sketch:type="MSShapeGroup"></path>
            <path d="M150.352,34.082 L150.352,11.866 L154.924,11.866 L154.924,33.956 C154.924,40.628 158.471,44.823 165.159,44.823 C171.854,44.823 175.453,40.628 175.453,33.956 L175.453,11.866 L180.02,11.866 L180.02,34.02 C180.02,43.075 175.021,48.829 165.159,48.829 C155.364,48.829 150.352,43.009 150.352,34.082" id="Fill-5" sketch:type="MSShapeGroup"></path>
            <path d="M210.748,48.193 L196.967,31.852 L193.309,35.981 L193.309,48.193 L188.793,48.193 L188.793,11.868 L193.309,11.868 L193.309,30.583 L209.388,11.868 L215.041,11.868 L199.893,29.076 L216.397,48.193 L210.748,48.193" id="Fill-6" sketch:type="MSShapeGroup"></path>
            <path d="M221.808,48.193 L221.808,11.868 L245.593,11.868 L245.593,15.874 L226.331,15.874 L226.331,27.598 L245.221,27.598 L245.221,31.63 L226.331,31.63 L226.331,44.154 L245.593,44.154 L245.593,48.193 L221.808,48.193" id="Fill-7" sketch:type="MSShapeGroup"></path>
            <path d="M284.646,48.193 L284.646,17.643 L272.343,48.193 L270.499,48.193 L258.14,17.643 L258.14,48.193 L253.614,48.193 L253.614,11.868 L260.082,11.868 L271.412,39.852 L282.701,11.868 L289.183,11.868 L289.183,48.193 L284.646,48.193" id="Fill-8" sketch:type="MSShapeGroup"></path>
            <path d="M299.051,11.866 L303.556,11.866 L303.556,48.191 L299.051,48.191 L299.051,11.866 Z" id="Fill-9" sketch:type="MSShapeGroup"></path>
            <path d="M326.266,16.498 L318.577,36.095 L334.001,36.095 L326.266,16.498 L326.266,16.498 Z M338.512,48.192 L335.287,40.057 L317.21,40.057 L314.009,48.192 L308.831,48.192 L323.487,11.867 L329.101,11.867 L343.681,48.192 L338.512,48.192 L338.512,48.192 Z" id="Fill-10" sketch:type="MSShapeGroup"></path>
            <path d="M92.673,104.358 L92.673,68.033 L97.199,68.033 L97.199,100.312 L114.067,100.312 L114.067,104.358 L92.673,104.358" id="Fill-11" sketch:type="MSShapeGroup"></path>
            <path d="M123.714,104.358 L123.714,88.993 L109.389,68.033 L114.662,68.033 L125.946,84.893 L137.23,68.033 L142.51,68.033 L128.244,88.993 L128.244,104.358 L123.714,104.358" id="Fill-12" sketch:type="MSShapeGroup"></path>
            <path d="M178.755,104.358 L178.755,73.803 L166.446,104.358 L164.577,104.358 L152.242,73.803 L152.242,104.358 L147.723,104.358 L147.723,68.033 L154.171,68.033 L165.524,96.01 L176.778,68.033 L183.263,68.033 L183.263,104.358 L178.755,104.358" id="Fill-13" sketch:type="MSShapeGroup"></path>
            <path d="M214.412,78.958 C214.412,74.886 211.476,72.061 207.194,72.061 L197.643,72.061 L197.643,85.877 L207.194,85.877 C211.476,85.877 214.412,83.063 214.412,78.958 L214.412,78.958 Z M193.123,104.358 L193.123,68.03 L207.72,68.03 C215.033,68.03 219.096,73.026 219.096,78.958 C219.096,84.893 214.96,89.908 207.72,89.908 L197.643,89.908 L197.643,104.358 L193.123,104.358 L193.123,104.358 Z" id="Fill-14" sketch:type="MSShapeGroup"></path>
            <path d="M251.265,104.358 L251.265,87.683 L230.026,87.683 L230.026,104.358 L225.5,104.358 L225.5,68.033 L230.026,68.033 L230.026,83.648 L251.265,83.648 L251.265,68.033 L255.784,68.033 L255.784,104.358 L251.265,104.358" id="Fill-15" sketch:type="MSShapeGroup"></path>
            <path d="M293.962,86.201 C293.962,77.717 288.673,71.444 280.565,71.444 C272.412,71.444 267.22,77.717 267.22,86.201 C267.22,94.636 272.412,100.973 280.565,100.973 C288.673,100.973 293.962,94.636 293.962,86.201 L293.962,86.201 Z M262.557,86.201 C262.557,75.482 269.843,67.43 280.565,67.43 C291.302,67.43 298.639,75.482 298.639,86.201 C298.639,96.931 291.302,104.997 280.565,104.997 C269.843,104.997 262.557,96.931 262.557,86.201 L262.557,86.201 Z" id="Fill-16" sketch:type="MSShapeGroup"></path>
            <path d="M336.436,104.358 L336.436,73.803 L324.129,104.358 L322.299,104.358 L309.923,73.803 L309.923,104.358 L305.394,104.358 L305.394,68.033 L311.89,68.033 L323.199,96.01 L334.469,68.033 L340.962,68.033 L340.962,104.358 L336.436,104.358" id="Fill-17" sketch:type="MSShapeGroup"></path>
            <path d="M363.125,72.647 L355.45,92.255 L370.866,92.255 L363.125,72.647 L363.125,72.647 Z M375.374,104.359 L372.153,96.245 L354.097,96.245 L350.864,104.359 L345.7,104.359 L360.338,68.03 L365.946,68.03 L380.553,104.359 L375.374,104.359 L375.374,104.359 Z" id="Fill-18" sketch:type="MSShapeGroup"></path>
            <path d="M91.091,155.575 L93.821,152.069 C96.15,154.815 100.077,157.294 105.203,157.294 C111.661,157.294 113.736,153.817 113.736,150.996 C113.736,141.626 92.234,146.843 92.234,133.901 C92.234,127.9 97.559,123.762 104.745,123.762 C110.259,123.762 114.559,125.672 117.606,128.891 L114.897,132.207 C112.17,129.135 108.344,127.845 104.383,127.845 C100.077,127.845 96.903,130.202 96.903,133.609 C96.903,141.78 118.426,137.092 118.426,150.657 C118.426,155.899 114.831,161.325 105.032,161.325 C98.769,161.325 94.089,158.942 91.091,155.575" id="Fill-19" sketch:type="MSShapeGroup"></path>
            <path d="M154.81,142.57 C154.81,134.069 149.523,127.809 141.388,127.809 C133.238,127.809 128.066,134.069 128.066,142.57 C128.066,150.999 133.238,157.297 141.388,157.297 C149.523,157.297 154.81,150.999 154.81,142.57 L154.81,142.57 Z M123.373,142.57 C123.373,131.841 130.654,123.761 141.388,123.761 C152.121,123.761 159.486,131.841 159.486,142.57 C159.486,153.282 152.121,161.325 141.388,161.325 C130.654,161.325 123.373,153.282 123.373,142.57 L123.373,142.57 Z" id="Fill-20" sketch:type="MSShapeGroup"></path>
            <path d="M164.482,142.57 C164.482,131.377 172.715,123.761 183.165,123.761 C189.599,123.761 194.065,126.812 196.953,130.959 L193.184,133.086 C191.119,129.978 187.307,127.809 183.165,127.809 C175.211,127.809 169.179,133.846 169.179,142.57 C169.179,151.163 175.211,157.297 183.165,157.297 C187.307,157.297 191.119,155.076 193.184,152.017 L196.988,154.103 C193.94,158.287 189.599,161.325 183.165,161.325 C172.715,161.325 164.482,153.729 164.482,142.57" id="Fill-21" sketch:type="MSShapeGroup"></path>
            <path d="M203.33,124.378 L207.859,124.378 L207.859,160.672 L203.33,160.672 L203.33,124.378 Z" id="Fill-22" sketch:type="MSShapeGroup"></path>
            <path d="M217.198,160.669 L217.198,124.376 L240.979,124.376 L240.979,128.386 L221.72,128.386 L221.72,140.099 L240.603,140.099 L240.603,144.13 L221.72,144.13 L221.72,156.645 L240.979,156.645 L240.979,160.669 L217.198,160.669" id="Fill-23" sketch:type="MSShapeGroup"></path>
            <path d="M257.493,160.669 L257.493,128.386 L246,128.386 L246,124.376 L273.551,124.376 L273.551,128.386 L262.019,128.386 L262.019,160.669 L257.493,160.669" id="Fill-24" sketch:type="MSShapeGroup"></path>
            <path d="M290.302,160.669 L290.302,145.329 L275.97,124.376 L281.249,124.376 L292.53,141.25 L303.783,124.376 L309.069,124.376 L294.817,145.329 L294.817,160.669 L290.302,160.669" id="Fill-25" sketch:type="MSShapeGroup"></path>
            <path d="M101.262,190.227 L105.653,190.227 L105.653,206.923 L101.262,206.923 L101.262,190.227 Z M100.848,185.802 C100.848,184.348 102.019,183.208 103.439,183.208 C104.893,183.208 106.068,184.348 106.068,185.802 C106.068,187.257 104.893,188.431 103.439,188.431 C102.019,188.431 100.848,187.257 100.848,185.802 L100.848,185.802 Z M90.954,206.924 L90.954,194.064 L88.189,194.064 L88.189,190.227 L90.954,190.227 L90.954,189.538 C90.954,185.625 93.343,183.519 96.559,183.519 C97.838,183.519 98.944,183.791 99.742,184.209 L98.842,187.459 C98.493,187.218 98.009,187.11 97.423,187.11 C96.178,187.11 95.348,187.908 95.348,189.538 L95.348,190.227 L98.737,190.227 L98.737,194.064 L95.348,194.064 L95.348,206.924 L90.954,206.924 L90.954,206.924 Z" id="Fill-26" sketch:type="MSShapeGroup"></path>
            <path d="M122.364,201.013 L122.364,195.58 C121.604,194.509 120.013,193.715 118.594,193.715 C116.073,193.715 114.344,195.447 114.344,198.321 C114.344,201.184 116.073,202.913 118.594,202.913 C120.013,202.913 121.604,202.083 122.364,201.013 L122.364,201.013 Z M110.539,211.213 L112.509,208.063 C113.859,209.518 115.654,210.104 117.729,210.104 C119.839,210.104 122.364,209.204 122.364,205.819 L122.364,204.19 C121.049,205.849 119.249,206.784 117.178,206.784 C113.029,206.784 109.813,203.883 109.813,198.321 C109.813,192.853 112.959,189.809 117.178,189.809 C119.183,189.809 121.015,190.639 122.364,192.368 L122.364,190.227 L126.754,190.227 L126.754,205.819 C126.754,212.144 121.844,213.706 117.729,213.706 C114.894,213.706 112.648,213.047 110.539,211.213 L110.539,211.213 Z" id="Fill-27" sketch:type="MSShapeGroup"></path>
            <path d="M143.292,206.925 L143.292,196.759 C143.292,194.44 142.078,193.716 140.213,193.716 C138.487,193.716 137.141,194.684 136.412,195.654 L136.412,206.925 L131.991,206.925 L131.991,183.865 L136.412,183.865 L136.412,192.365 C137.482,191.121 139.523,189.81 142.253,189.81 C145.921,189.81 147.685,191.815 147.685,195.068 L147.685,206.925 L143.292,206.925" id="Fill-28" sketch:type="MSShapeGroup"></path>
            <path d="M153.814,202.744 L153.814,194.066 L151.045,194.066 L151.045,190.226 L153.814,190.226 L153.814,185.658 L158.205,185.658 L158.205,190.226 L161.594,190.226 L161.594,194.066 L158.205,194.066 L158.205,201.566 C158.205,202.64 158.759,203.432 159.728,203.432 C160.383,203.432 161.004,203.191 161.248,202.913 L162.179,206.266 C161.524,206.855 160.349,207.337 158.515,207.337 C155.439,207.337 153.814,205.75 153.814,202.744" id="Fill-29" sketch:type="MSShapeGroup"></path>
            <path d="M165.478,190.227 L169.864,190.227 L169.864,206.923 L165.478,206.923 L165.478,190.227 Z M165.059,185.802 C165.059,184.348 166.234,183.208 167.65,183.208 C169.104,183.208 170.283,184.348 170.283,185.802 C170.283,187.257 169.104,188.431 167.65,188.431 C166.234,188.431 165.059,187.257 165.059,185.802 L165.059,185.802 Z" id="Fill-30" sketch:type="MSShapeGroup"></path>
            <path d="M186.36,206.925 L186.36,196.825 C186.36,194.511 185.15,193.716 183.285,193.716 C181.559,193.716 180.241,194.684 179.485,195.654 L179.485,206.925 L175.091,206.925 L175.091,190.228 L179.485,190.228 L179.485,192.365 C180.555,191.121 182.626,189.81 185.325,189.81 C189.025,189.81 190.79,191.885 190.79,195.135 L190.79,206.925 L186.36,206.925" id="Fill-31" sketch:type="MSShapeGroup"></path>
            <path d="M207.463,201.013 L207.463,195.58 C206.703,194.509 205.116,193.715 203.697,193.715 C201.169,193.715 199.443,195.447 199.443,198.321 C199.443,201.184 201.169,202.913 203.697,202.913 C205.116,202.913 206.703,202.083 207.463,201.013 L207.463,201.013 Z M195.638,211.213 L197.608,208.063 C198.961,209.518 200.753,210.104 202.828,210.104 C204.942,210.104 207.463,209.204 207.463,205.819 L207.463,204.19 C206.151,205.849 204.353,206.784 202.278,206.784 C198.131,206.784 194.913,203.883 194.913,198.321 C194.913,192.853 198.058,189.809 202.278,189.809 C204.286,189.809 206.113,190.639 207.463,192.368 L207.463,190.227 L211.853,190.227 L211.853,205.819 C211.853,212.144 206.947,213.706 202.828,213.706 C199.997,213.706 197.748,213.047 195.638,211.213 L195.638,211.213 Z" id="Fill-32" sketch:type="MSShapeGroup"></path>
            <path d="M235.032,203.432 C237.56,203.432 239.254,201.458 239.254,198.553 C239.254,195.688 237.56,193.717 235.032,193.717 C233.585,193.717 231.991,194.547 231.235,195.652 L231.235,201.566 C231.991,202.641 233.585,203.432 235.032,203.432 L235.032,203.432 Z M226.841,206.927 L226.841,183.866 L231.235,183.866 L231.235,192.367 C232.553,190.642 234.418,189.811 236.385,189.811 C240.639,189.811 243.785,193.128 243.785,198.553 C243.785,204.161 240.605,207.338 236.385,207.338 C234.38,207.338 232.553,206.441 231.235,204.782 L231.235,206.927 L226.841,206.927 L226.841,206.927 Z" id="Fill-33" sketch:type="MSShapeGroup"></path>
            <path d="M247.983,183.864 L252.373,183.864 L252.373,206.924 L247.983,206.924 L247.983,183.864 Z" id="Fill-34" sketch:type="MSShapeGroup"></path>
            <path d="M269.627,198.553 C269.627,195.96 268.107,193.717 265.342,193.717 C262.611,193.717 261.091,195.96 261.091,198.553 C261.091,201.186 262.611,203.432 265.342,203.432 C268.107,203.432 269.627,201.186 269.627,198.553 L269.627,198.553 Z M256.53,198.553 C256.53,193.822 259.849,189.811 265.342,189.811 C270.875,189.811 274.199,193.822 274.199,198.553 C274.199,203.293 270.875,207.338 265.342,207.338 C259.849,207.338 256.53,203.293 256.53,198.553 L256.53,198.553 Z" id="Fill-35" sketch:type="MSShapeGroup"></path>
            <path d="M290.387,198.553 C290.387,195.96 288.87,193.717 286.097,193.717 C283.367,193.717 281.85,195.96 281.85,198.553 C281.85,201.186 283.367,203.432 286.097,203.432 C288.87,203.432 290.387,201.186 290.387,198.553 L290.387,198.553 Z M277.282,198.553 C277.282,193.822 280.598,189.811 286.097,189.811 C291.627,189.811 294.948,193.822 294.948,198.553 C294.948,203.293 291.627,207.338 286.097,207.338 C280.598,207.338 277.282,203.293 277.282,198.553 L277.282,198.553 Z" id="Fill-36" sketch:type="MSShapeGroup"></path>
            <path d="M310.592,201.531 L310.592,195.613 C309.867,194.511 308.269,193.716 306.819,193.716 C304.298,193.716 302.565,195.69 302.565,198.552 C302.565,201.46 304.298,203.43 306.819,203.43 C308.269,203.43 309.867,202.64 310.592,201.531 L310.592,201.531 Z M310.592,206.925 L310.592,204.781 C309.27,206.443 307.474,207.337 305.438,207.337 C301.254,207.337 298.039,204.16 298.039,198.552 C298.039,193.13 301.184,189.81 305.438,189.81 C307.405,189.81 309.27,190.641 310.592,192.366 L310.592,183.865 L315.013,183.865 L315.013,206.925 L310.592,206.925 L310.592,206.925 Z" id="Fill-37" sketch:type="MSShapeGroup"></path>
            <path d="M328.928,198.553 C328.928,193.442 332.667,189.811 337.782,189.811 C341.203,189.811 343.278,191.297 344.387,192.821 L341.517,195.513 C340.722,194.341 339.509,193.717 337.989,193.717 C335.328,193.717 333.461,195.652 333.461,198.553 C333.461,201.458 335.328,203.432 337.989,203.432 C339.509,203.432 340.722,202.746 341.517,201.598 L344.387,204.297 C343.278,205.821 341.203,207.338 337.782,207.338 C332.667,207.338 328.928,203.708 328.928,198.553" id="Fill-38" sketch:type="MSShapeGroup"></path>
            <path d="M358.156,202.913 L358.156,200.837 C357.431,199.871 356.047,199.352 354.625,199.352 C352.902,199.352 351.482,200.286 351.482,201.872 C351.482,203.466 352.902,204.366 354.625,204.366 C356.047,204.366 357.431,203.881 358.156,202.913 L358.156,202.913 Z M358.156,206.926 L358.156,205.157 C357.02,206.545 355.046,207.337 352.87,207.337 C350.199,207.337 347.095,205.541 347.095,201.806 C347.095,197.866 350.199,196.412 352.87,196.412 C355.109,196.412 357.051,197.138 358.156,198.452 L358.156,196.342 C358.156,194.651 356.706,193.549 354.491,193.549 C352.727,193.549 351.071,194.233 349.686,195.513 L347.956,192.441 C349.996,190.61 352.626,189.811 355.252,189.811 C359.087,189.811 362.582,191.332 362.582,196.141 L362.582,206.926 L358.156,206.926 L358.156,206.926 Z" id="Fill-39" sketch:type="MSShapeGroup"></path>
            <path d="M379.051,206.925 L379.051,196.825 C379.051,194.511 377.84,193.716 375.971,193.716 C374.245,193.716 372.927,194.684 372.167,195.654 L372.167,206.925 L367.776,206.925 L367.776,190.228 L372.167,190.228 L372.167,192.365 C373.241,191.121 375.315,189.81 378.015,189.81 C381.711,189.81 383.475,191.885 383.475,195.135 L383.475,206.925 L379.051,206.925" id="Fill-40" sketch:type="MSShapeGroup"></path>
            <path d="M387.597,198.553 C387.597,193.442 391.332,189.811 396.451,189.811 C399.875,189.811 401.95,191.297 403.058,192.821 L400.185,195.513 C399.39,194.341 398.183,193.717 396.663,193.717 C393.999,193.717 392.133,195.652 392.133,198.553 C392.133,201.458 393.999,203.432 396.663,203.432 C398.183,203.432 399.39,202.746 400.185,201.598 L403.058,204.297 C401.95,205.821 399.875,207.338 396.451,207.338 C391.332,207.338 387.597,203.708 387.597,198.553" id="Fill-41" sketch:type="MSShapeGroup"></path>
            <path d="M414.373,193.403 C411.642,193.403 410.464,195.307 410.293,196.963 L418.519,196.963 C418.387,195.376 417.278,193.403 414.373,193.403 L414.373,193.403 Z M405.728,198.553 C405.728,193.717 409.324,189.811 414.373,189.811 C419.384,189.811 422.745,193.55 422.745,198.971 L422.745,200.007 L410.328,200.007 C410.641,202.054 412.298,203.746 415.133,203.746 C416.552,203.746 418.488,203.157 419.561,202.121 L421.528,205.026 C419.872,206.546 417.246,207.338 414.651,207.338 C409.564,207.338 405.728,203.92 405.728,198.553 L405.728,198.553 Z" id="Fill-42" sketch:type="MSShapeGroup"></path>
            <path d="M426.8,206.925 L426.8,190.228 L431.186,190.228 L431.186,192.474 C432.4,191.02 434.439,189.81 436.511,189.81 L436.511,194.095 C436.205,194.029 435.82,193.994 435.301,193.994 C433.85,193.994 431.915,194.821 431.186,195.895 L431.186,206.925 L426.8,206.925" id="Fill-43" sketch:type="MSShapeGroup"></path>
            <path d="M438.662,204.744 L440.563,201.567 C441.807,202.746 444.263,203.883 446.334,203.883 C448.242,203.883 449.137,203.158 449.137,202.119 C449.137,199.388 439.248,201.637 439.248,195.067 C439.248,192.261 441.668,189.809 446.097,189.809 C448.897,189.809 451.143,190.778 452.802,192.093 L451.038,195.199 C450.038,194.167 448.137,193.268 446.097,193.268 C444.506,193.268 443.467,193.962 443.467,194.893 C443.467,197.348 453.392,195.274 453.392,202.017 C453.392,205.093 450.762,207.339 446.131,207.339 C443.223,207.339 440.423,206.372 438.662,204.744" id="Fill-44" sketch:type="MSShapeGroup"></path>
            <path d="M315.224,128.281 L316.263,128.281 C317.139,128.281 317.944,128.239 317.944,127.231 C317.944,126.38 317.209,126.252 316.539,126.252 L315.224,126.252 L315.224,128.281 L315.224,128.281 Z M314.234,125.446 L316.703,125.446 C318.22,125.446 318.935,126.046 318.935,127.273 C318.935,128.427 318.205,128.909 317.257,129.01 L319.081,131.831 L318.014,131.831 L316.278,129.083 L315.224,129.083 L315.224,131.831 L314.234,131.831 L314.234,125.446 L314.234,125.446 Z M316.365,133.306 C318.892,133.306 320.849,131.29 320.849,128.619 C320.849,126.004 318.892,123.985 316.365,123.985 C313.809,123.985 311.853,126.004 311.853,128.619 C311.853,131.29 313.809,133.306 316.365,133.306 L316.365,133.306 Z M316.365,123.182 C319.346,123.182 321.843,125.533 321.843,128.619 C321.843,131.758 319.346,134.111 316.365,134.111 C313.369,134.111 310.855,131.758 310.855,128.619 C310.855,125.533 313.369,123.182 316.365,123.182 L316.365,123.182 Z" id="Fill-45" sketch:type="MSShapeGroup"></path>
        </g>
    </g>
</svg>