<?xml version="1.0" encoding="UTF-8" standalone="no"?>
<svg width="519px" height="172px" viewBox="0 0 519 172" version="1.1" xmlns="http://www.w3.org/2000/svg" xmlns:xlink="http://www.w3.org/1999/xlink" xmlns:sketch="http://www.bohemiancoding.com/sketch/ns">
    <!-- Generator: Sketch 3.4 (15575) - http://www.bohemiancoding.com/sketch -->
    <title>The</title>
    <desc>Created with Sketch.</desc>
    <defs></defs>
    <g id="Page-1" stroke="none" stroke-width="1" fill="none" fill-rule="evenodd" sketch:type="MSPage">
        <path d="M39.96,7.14 L39.96,11.19 L22.41,11.19 L22.41,75 L18.09,75 L18.09,11.19 L0.54,11.19 L0.54,7.14 L39.96,7.14 Z M45.81,0.75 L49.86,0.75 L49.86,39.9 L50.04,39.9 C51.3000063,37.6199886 52.9949893,35.8200066 55.125,34.5 C57.2550107,33.1799934 59.6699865,32.52 62.37,32.52 C67.170024,32.52 70.6499892,33.9149861 72.81,36.705 C74.9700108,39.4950139 76.05,43.7399715 76.05,49.44 L76.05,75 L72,75 L72,49.35 C72,44.6099763 71.2350077,41.2500099 69.705,39.27 C68.1749924,37.2899901 65.610018,36.3 62.01,36.3 C53.9099595,36.3 49.86,42.1799412 49.86,53.94 L49.86,75 L45.81,75 L45.81,0.75 Z M89.91,54.57 L89.91,55.11 C89.91,60.0300246 91.4549846,64.0949839 94.545,67.305 C97.6350154,70.5150161 101.639975,72.12 106.56,72.12 C109.620015,72.12 112.424987,71.3100081 114.975,69.69 C117.525013,68.0699919 119.609992,65.7300153 121.23,62.67 L124.65,64.65 C122.72999,68.250018 120.195016,71.0249903 117.045,72.975 C113.894984,74.9250098 110.220021,75.9 106.02,75.9 C102.239981,75.9 98.8050154,74.9550095 95.715,73.065 C92.6249846,71.1749906 90.2100087,68.5650167 88.47,65.235 C86.7299913,61.9049834 85.86,58.2000204 85.86,54.12 C85.86,50.0999799 86.7299913,46.4400165 88.47,43.14 C90.2100087,39.8399835 92.6399844,37.2450094 95.76,35.355 C98.8800156,33.4649906 102.299981,32.52 106.02,32.52 C111.96003,32.52 116.774982,34.5899793 120.465,38.73 C124.155018,42.8700207 126,48.1499679 126,54.57 L89.91,54.57 Z M121.95,50.79 C121.409997,46.6499793 119.625015,43.2000138 116.595,40.44 C113.564985,37.6799862 110.04002,36.3 106.02,36.3 C103.379987,36.3 100.845012,36.9599934 98.415,38.28 C95.9849879,39.6000066 94.0050077,41.3999886 92.475,43.68 C90.9449924,45.9600114 90.0900009,48.3299877 89.91,50.79 L121.95,50.79 Z M26.8505859,111.772186 L26.8505859,169.999725 L16.6113281,169.999725 L16.6113281,111.772186 L1.01074219,111.772186 L1.01074219,102.148163 L42.4072266,102.148163 L42.4072266,111.772186 L26.8505859,111.772186 Z M77.4316406,127.196991 L87.3632812,127.196991 L87.3632812,169.999725 L77.4316406,169.999725 L77.4316406,165.517303 C73.3593546,169.325916 68.9795156,171.230194 64.2919922,171.230194 C58.3739938,171.230194 53.4814646,169.091544 49.6142578,164.814178 C45.776348,160.448922 43.8574219,154.999758 43.8574219,148.466522 C43.8574219,142.050475 45.776348,136.703848 49.6142578,132.426483 C53.4521676,128.149118 58.2568071,126.010468 64.0283203,126.010468 C69.008814,126.010468 73.4765427,128.061228 77.4316406,132.162811 L77.4316406,127.196991 Z M53.9648438,148.466522 C53.9648438,152.568105 55.0634656,155.907916 57.2607422,158.486053 C59.5166128,161.093488 62.3583813,162.397186 65.7861328,162.397186 C69.4482605,162.397186 72.4072153,161.137433 74.6630859,158.617889 C76.9189566,156.010454 78.046875,152.699941 78.046875,148.686249 C78.046875,144.672557 76.9189566,141.362043 74.6630859,138.754608 C72.4072153,136.205767 69.4775571,134.931366 65.8740234,134.931366 C62.4755689,134.931366 59.6338005,136.220416 57.3486328,138.798553 C55.0927622,141.405988 53.9648438,144.628612 53.9648438,148.466522 L53.9648438,148.466522 Z M109.731445,95.7760925 L109.731445,132.162811 C113.686543,128.061228 118.16892,126.010468 123.178711,126.010468 C128.950224,126.010468 133.754864,128.163766 137.592773,132.470428 C141.430683,136.747794 143.349609,142.079772 143.349609,148.466522 C143.349609,155.058352 141.416035,160.507516 137.548828,164.814178 C133.710918,169.091544 128.862334,171.230194 123.00293,171.230194 C118.051733,171.230194 113.627949,169.325916 109.731445,165.517303 L109.731445,169.999725 L99.84375,169.999725 L99.84375,95.7760925 L109.731445,95.7760925 Z M133.242188,148.905975 C133.242188,144.804392 132.128917,141.464582 129.902344,138.886444 C127.646473,136.249712 124.819353,134.931366 121.420898,134.931366 C117.788068,134.931366 114.829113,136.205767 112.543945,138.754608 C110.288075,141.274152 109.160156,144.555369 109.160156,148.598358 C109.160156,152.758535 110.273426,156.083697 112.5,158.573944 C114.726574,161.122785 117.656232,162.397186 121.289062,162.397186 C124.716814,162.397186 127.558582,161.122785 129.814453,158.573944 C132.099621,155.995806 133.242188,152.773182 133.242188,148.905975 L133.242188,148.905975 Z M163.696289,127.196991 L163.696289,169.999725 L153.808594,169.999725 L153.808594,127.196991 L163.696289,127.196991 Z M152.314453,109.399139 C152.314453,107.670615 152.94433,106.176489 154.204102,104.916718 C155.463873,103.656946 156.972647,103.027069 158.730469,103.027069 C160.517587,103.027069 162.041009,103.656946 163.300781,104.916718 C164.560553,106.147192 165.19043,107.655966 165.19043,109.443085 C165.19043,111.230203 164.560553,112.753625 163.300781,114.013397 C162.070306,115.273169 160.561532,115.903046 158.774414,115.903046 C156.987296,115.903046 155.463873,115.273169 154.204102,114.013397 C152.94433,112.753625 152.314453,111.215555 152.314453,109.399139 L152.314453,109.399139 Z M186.416016,136.425507 L186.416016,169.999725 L176.52832,169.999725 L176.52832,136.425507 L172.30957,136.425507 L172.30957,127.196991 L176.52832,127.196991 L176.52832,111.508514 L186.416016,111.508514 L186.416016,127.196991 L194.106445,127.196991 L194.106445,136.425507 L186.416016,136.425507 Z M202.631836,95.7760925 L212.519531,95.7760925 L212.519531,130.756561 C216.035174,127.592483 219.916971,126.010468 224.165039,126.010468 C228.999048,126.010468 232.866196,127.577835 235.766602,130.712616 C238.227551,133.437239 239.458008,137.787781 239.458008,143.764374 L239.458008,169.999725 L229.570312,169.999725 L229.570312,144.687225 C229.570312,141.259474 228.962408,138.776589 227.746582,137.238495 C226.530756,135.700401 224.575209,134.931366 221.879883,134.931366 C218.422834,134.931366 215.991218,136.000691 214.584961,138.139374 C213.208001,140.307353 212.519531,144.028019 212.519531,149.301483 L212.519531,169.999725 L202.631836,169.999725 L202.631836,95.7760925 Z M283.535156,127.196991 L293.466797,127.196991 L293.466797,169.999725 L283.535156,169.999725 L283.535156,165.517303 C279.46287,169.325916 275.083031,171.230194 270.395508,171.230194 C264.477509,171.230194 259.58498,169.091544 255.717773,164.814178 C251.879864,160.448922 249.960938,154.999758 249.960938,148.466522 C249.960938,142.050475 251.879864,136.703848 255.717773,132.426483 C259.555683,128.149118 264.360323,126.010468 270.131836,126.010468 C275.11233,126.010468 279.580058,128.061228 283.535156,132.162811 L283.535156,127.196991 Z M260.068359,148.466522 C260.068359,152.568105 261.166981,155.907916 263.364258,158.486053 C265.620128,161.093488 268.461897,162.397186 271.889648,162.397186 C275.551776,162.397186 278.510731,161.137433 280.766602,158.617889 C283.022472,156.010454 284.150391,152.699941 284.150391,148.686249 C284.150391,144.672557 283.022472,141.362043 280.766602,138.754608 C278.510731,136.205767 275.581073,134.931366 271.977539,134.931366 C268.579085,134.931366 265.737316,136.220416 263.452148,138.798553 C261.196278,141.405988 260.068359,144.628612 260.068359,148.466522 L260.068359,148.466522 Z M369.492188,111.772186 L345.849609,111.772186 L345.849609,128.075897 L368.657227,128.075897 L368.657227,137.699921 L345.849609,137.699921 L345.849609,169.999725 L335.610352,169.999725 L335.610352,102.148163 L369.492188,102.148163 L369.492188,111.772186 Z M388.476562,127.196991 L388.476562,151.762421 C388.476562,158.8523 391.274386,162.397186 396.870117,162.397186 C402.465848,162.397186 405.263672,158.8523 405.263672,151.762421 L405.263672,127.196991 L415.151367,127.196991 L415.151367,151.982147 C415.151367,155.409899 414.726567,158.368854 413.876953,160.8591 C413.056637,163.085674 411.635752,165.09249 409.614258,166.879608 C406.274397,169.780013 402.026393,171.230194 396.870117,171.230194 C391.743138,171.230194 387.509782,169.780013 384.169922,166.879608 C382.11913,165.09249 380.66895,163.085674 379.819336,160.8591 C378.999019,158.866903 378.588867,155.907948 378.588867,151.982147 L378.588867,127.196991 L388.476562,127.196991 Z M427.631836,127.196991 L437.563477,127.196991 L437.563477,131.152069 C441.020525,127.724318 444.916971,126.010468 449.25293,126.010468 C454.233423,126.010468 458.11522,127.577835 460.898438,130.712616 C463.300793,133.378645 464.501953,137.729187 464.501953,143.764374 L464.501953,169.999725 L454.570312,169.999725 L454.570312,146.093475 C454.570312,141.874704 453.984381,138.959694 452.8125,137.348358 C451.669916,135.707725 449.589859,134.887421 446.572266,134.887421 C443.290999,134.887421 440.961921,135.971394 439.584961,138.139374 C438.237298,140.278056 437.563477,144.013371 437.563477,149.345428 L437.563477,169.999725 L427.631836,169.999725 L427.631836,127.196991 Z M508.535156,95.7760925 L518.466797,95.7760925 L518.466797,169.999725 L508.535156,169.999725 L508.535156,165.517303 C504.638652,169.325916 500.229517,171.230194 495.307617,171.230194 C489.448213,171.230194 484.58498,169.091544 480.717773,164.814178 C476.879864,160.448922 474.960938,154.999758 474.960938,148.466522 C474.960938,142.079772 476.879864,136.747794 480.717773,132.470428 C484.526386,128.163766 489.316377,126.010468 495.087891,126.010468 C500.097681,126.010468 504.580058,128.061228 508.535156,132.162811 L508.535156,95.7760925 Z M485.068359,148.466522 C485.068359,152.568105 486.166981,155.907916 488.364258,158.486053 C490.620128,161.093488 493.461897,162.397186 496.889648,162.397186 C500.551776,162.397186 503.510731,161.137433 505.766602,158.617889 C508.022472,156.010454 509.150391,152.699941 509.150391,148.686249 C509.150391,144.672557 508.022472,141.362043 505.766602,138.754608 C503.510731,136.205767 500.581073,134.931366 496.977539,134.931366 C493.579085,134.931366 490.737316,136.220416 488.452148,138.798553 C486.196278,141.405988 485.068359,144.628612 485.068359,148.466522 L485.068359,148.466522 Z" id="The" fill="#000000" sketch:type="MSShapeGroup"></path>
    </g>
</svg>