<svg width="4120" height="1243" viewBox="0 0 4120 1243" xmlns="http://www.w3.org/2000/svg"><title>1</title><g fill="#3F6964" fill-rule="evenodd"><path d="M2159.628 556l.03-9H1977V419h-148V198h35v-30s9-26 58-26 58 26 58 26v30h37v181h118v19h30v44.89l4-.89 5 3 4-1 10 5 3-3 4 5 3 5 9 1h8l8 1 1 3h16l-1-5 8-9h6l9 3h11v-3l5-1 6-8 7 2h5v-16l13-2.407V361h18v-14h12v4h19v-41h158v92h143v57h-163v-53h-71v150h294V206l11-3v353-354h38v-55l22-8v63-63h168v323h-95v94h1257v687H0V556h1295.13c-.846-3.176-1.13-5-1.13-5l74.248-73H1334V278h3v-46h29v28h37v18h18v156.762l13 1.238 6 5 13-6 8 4 6 5h6l9 6 9 6 7 12 6 18 9 3 8-1-7-8 7-3 1-5 6-3 4-10 8 3 7-2 19-2.478V312h25v-12h30v12h10.947L1629 298l8-1 2-4h12l2 4 8 1-2.21 14H1678v-17h23v12h21v5h2v120h77v74h-77v2h-138.89l.89 3 49 40s0 1.824-.35 5h524.978zM228 446h-89v-14h-27v-46l6.083 6.083L127 328v-16h4v16l10 64 7-7v20h101v31h10v-35h8.182L289 381l21.818 20H320v35h23v58H228v-48zm2894-100v-21l-11 3v18h-20v116h119V346h-38v-21h-50v10.5zm498-60v14h-4l3.835 8.63C3605.44 313.158 3595 326.61 3595 342.5c0 2.078.18 3.9.52 5.5H3586l9 12h71l9-12h-9.52c.34-1.6.52-3.422.52-5.5 0-16.19-10.84-29.85-25.657-34.118L3645 300h-5v-14h.655l5.345-8h-4.623L3632 265.043V228h-3v36.928L3618.68 278H3615l4.276 8h.724zm-244-11h-38v199h144V275h-49v-20h-48v10-10l-9 3v17zm355 143v110h-222v1h-20V423.86l9-20.86v-1h81v-8h16v-34h71v34h18v8h29v-90l18-4v110zM639 450h12v-12h75v12h39v58h-39v5h-75v-5h-12v2h-44v-2h-12v-58h12v-12h44v12zm3140-160h27v18h-27v-18zm-12 3l12-3v18h-12v-15zm-36 15h102v116h-102V308zm-405-30l12-3v196l-12 3V278zm-249 71l14-3v116l-14 3V349zM49 367h4v38h-4v-38z"/><path d="M3215.51 1.817l-7 57-.01.153-4 198-4 186.998a1.5 1.5 0 0 0 1.5 1.532h22a1.5 1.5 0 0 0 1.5-1.524l-7-442c-.03-1.866-2.76-2.01-2.99-.16zm2.98.366l-2.99-.16 7 442 1.5-1.523h-22l1.5 1.532 4-187 4-198.002-.01.153 7-57z"/><path d="M3203 387h47v3h-47v-3zm0-44h45v3h-45v-3zm1-44h41v3h-41v-3zm1-44h38v3h-38v-3zm2-88h30v3h-30v-3zm2-44h24v3h-24v-3zm1-66h21v3h-21v-3zm0 11h21v3h-21v-3zm0 11h21v3h-21v-3zm-1 11h24v3h-24v-3zm0 11h24v3h-24v-3zm0 11h24v3h-24v-3zm0 22h24v3h-24v-3zm0 11h25v3h-25v-3zm-2 11h30v3h-30v-3zm0 33h30v3h-30v-3zm-1 11h34v3h-34v-3zm0 11h34v3h-34v-3zm0 11h34v3h-34v-3zm0 11h34v3h-34v-3zm0 11h36v3h-36v-3zm1-66h30v3h-30v-3zm3-132h18v3h-18v-3zm-5 231h38v3h-38v-3zm-1 44h43v3h-43v-3zm-1 44h45v3h-45v-3zm0 45h47v3h-47v-3zm2-144h38v3h-38v-3zm0 22h38v3h-38v-3zm-1 22h43v3h-43v-3zm-1 22h45v3h-45v-3zm0 22h45v3h-45v-3zm0 22h47v3h-47v-3zm0 22h47v3h-47v-3z"/><path d="M3215.538 2.334l13 57-.035-.244 12 200 11 179.002 1.193-1.56-29 6 1.804 1.444-7-442-2.962.358zm2.924-.668c-.4-1.756-2.99-1.444-2.962.358l7 442a1.5 1.5 0 0 0 1.804 1.445l29-6a1.5 1.5 0 0 0 1.193-1.562l-11-179-12-199.998a1.502 1.502 0 0 0-.035-.244l-13-57z"/></g></svg>