<?xml version="1.0" encoding="UTF-8" standalone="no"?>
<svg width="4120px" height="1583px" viewBox="0 0 4120 1583" version="1.1" xmlns="http://www.w3.org/2000/svg" xmlns:xlink="http://www.w3.org/1999/xlink" xmlns:sketch="http://www.bohemiancoding.com/sketch/ns">
    <!-- Generator: Sketch 3.3.3 (12072) - http://www.bohemiancoding.com/sketch -->
    <title>Slice 1</title>
    <desc>Created with Sketch.</desc>
    <defs></defs>
    <g id="Page-1" stroke="none" stroke-width="1" fill="none" fill-rule="evenodd" sketch:type="MSPage">
        <g id="Group-Copy" sketch:type="MSLayerGroup" transform="translate(0.000000, -1155.000000)" fill="#3F6964">
            <path d="M2165,1942.88889 L2165,1898 L2135,1898 L2135,1879 L2017,1879 L2017,1698 L1980,1698 L1980,1668 C1980,1668 1971,1642 1922,1642 C1873,1642 1864,1668 1864,1668 L1864,1698 L1829,1698 L1829,1919 L1977,1919 L1977,1919 L1977,2047 L2159.65801,2047 L2159.31266,2151.01515 L2309,2151.01515 L2309,2160 L2425,2160 L2425,1906 L2496,1906 L2496,1959 L2659,1959 L2659,1902 L2516,1902 L2516,1902 L2516,1810 L2358,1810 L2358,1851 L2339,1851 L2339,1851 L2339,1847 L2327,1847 L2327,1861 L2327,1861 L2309,1861 L2309,1921.59259 L2296,1924 L2296,1940 L2291,1940 L2284,1938 L2278,1946 L2273,1947 L2273,1950 L2267,1950 L2262,1950 L2253,1947 L2247,1947 L2239,1956 L2240,1961 L2236,1961 L2224,1961 L2223,1958 L2215,1957 L2207,1957 L2198,1956 L2195,1951 L2191,1946 L2188,1949 L2178,1944 L2174,1945 L2169,1942 L2165,1942.88889 L2165,1942.88889 Z M1566,1957.52174 L1566,1812 L1591,1812 L1591,1800 L1621,1800 L1621,1812 L1631.94737,1812 L1629,1798 L1637,1797 L1639,1793 L1651,1793 L1653,1797 L1661,1798 L1658.78947,1812 L1678,1812 L1678,1812 L1678,1795 L1701,1795 L1701,1807 L1701,1807 L1722,1807 L1722,1812 L1724,1812 L1724,1932 L1724,1932 L1801,1932 L1801,2006 L1724,2006 L1724,2008 L1585.11111,2008 L1586,2011 L1635,2051 C1635,2051 1635,2160 1473,2160 C1311,2160 1294,2051 1294,2051 L1368.24786,1978 L1334,1978 L1334,1778 L1337,1778 L1337,1778 L1337,1732 L1366,1732 L1366,1760 L1403,1760 L1403,1778 L1403,1778 L1421,1778 L1421,1934.7619 L1434,1936 L1440,1941 L1453,1935 L1461,1939 L1467,1944 L1473,1944 L1482,1950 L1491,1956 L1498,1968 L1504,1986 L1513,1989 L1521,1988 L1514,1980 L1521,1977 L1522,1972 L1528,1969 L1532,1959 L1540,1962 L1547,1960 L1566,1957.52174 L1566,1957.52174 Z M228,1946 L139,1946 L139,1932 L112,1932 L112,1886 L118.082763,1892.08276 L127,1828 L127,1812 L131,1812 L131,1828 L141,1892 L148,1885 L148,1905 L148,1905 L249,1905 L249,1936 L259,1936 L259,1901 L267.181818,1901 L267.181818,1901 L289,1881 L310.818182,1901 L320,1901 L320,1936 L343,1936 L343,1994 L228,1994 L228,1946 L228,1946 Z M3111,1846 L3091,1846 L3091,1962 L3210,1962 L3210,1958 L3210,1958 L3241,1958 L3225.95233,1676.72946 L3221.63347,1574.9335 L3211,1515 L3202.0092,1575.26794 L3197.59657,1676.85745 L3191.82303,1846 L3172,1846 L3172,1846 L3172,1825 L3122,1825 L3122,1835.5 L3122,1825 L3111,1828 L3111,1846 L3111,1846 Z M3620,1786 L3620,1800 L3616,1800 L3619.83545,1808.62977 C3605.44024,1813.1579 3595,1826.60972 3595,1842.5 C3595,1844.57829 3595.17859,1846.40137 3595.52126,1848 L3586,1848 L3595,1860 L3666,1860 L3675,1848 L3665.47874,1848 L3665.47874,1848 C3665.82141,1846.40137 3666,1844.57829 3666,1842.5 C3666,1826.30903 3655.16091,1812.64967 3640.34314,1808.38234 L3640.34314,1808.38234 L3645,1800 L3640,1800 L3640,1786 L3640.65517,1786 L3646,1778 L3641.37696,1778 L3632,1765.0427 L3632,1728 L3629,1728 L3629,1764.92754 L3629,1764.92754 L3618.67968,1778 L3615,1778 L3619.27586,1786 L3620,1786 L3620,1786 Z M3376,1775 L3338,1775 L3338,1974 L3482,1974 L3482,1775 L3433,1775 L3433,1755 L3385,1755 L3385,1765 L3385,1755 L3376,1758 L3376,1775 L3376,1775 Z M3731,1918 L3731,2028 L3509,2028 L3509,2028 L3509,2029 L3489,2029 L3489,1923.86093 L3498,1903 L3498,1902 L3579,1902 L3579,1894 L3595,1894 L3595,1894 L3595,1860 L3666,1860 L3666,1894 L3684,1894 L3684,1902 L3713,1902 L3713,1812 L3731,1808 L3731,1918 Z M2790,1702 L2790,1639 L2768,1647 L2768,1702 L2730,1702 L2730,2098 L2768,2098 L2768,2199 L2790,2191 L2790,2098 L2863,2098 L2863,1962 L2958,1962 L2958,1639 L2790,1639 L2790,1702 Z M639,1950 L651,1950 L651,1950 L651,1938 L726,1938 L726,1950 L765,1950 L765,2008 L726,2008 L726,2013 L651,2013 L651,2008 L639,2008 L639,2010 L595,2010 L595,2008 L583,2008 L583,1950 L595,1950 L595,1938 L639,1938 L639,1950 L639,1950 Z M2719,1706 L2730,1703 L2730,2255 L2719,2258 L2719,1706 Z M3779,1790 L3806,1790 L3806,1808 L3779,1808 L3779,1790 Z M3767,1793 L3779,1790 L3779,1808 L3767,1808 L3767,1793 Z M3731,1808 L3833,1808 L3833,1924 L3731,1924 L3731,1808 Z M3326,1778 L3338,1775 L3338,1971 L3326,1974 L3326,1778 Z M3077,1849 L3091,1846 L3091,1962 L3077,1965 L3077,1849 Z M49,1867 L53,1867 L53,1905 L49,1905 L49,1867 Z" id="Rectangle-43" sketch:type="MSShapeGroup"></path>
        </g>
        <text id="K&amp;C" sketch:type="MSTextLayer" font-family="Snell Roundhand" font-size="632" font-weight="normal" fill="#8ABEAF">
            <tspan x="1375" y="-119">K&amp;C</tspan>
        </text>
    </g>
</svg>