<?xml version="1.0" encoding="UTF-8" standalone="no"?>
<svg width="4120px" height="1583px" viewBox="0 0 4120 1583" version="1.1" xmlns="http://www.w3.org/2000/svg" xmlns:xlink="http://www.w3.org/1999/xlink" xmlns:sketch="http://www.bohemiancoding.com/sketch/ns">
    <!-- Generator: Sketch 3.3.3 (12072) - http://www.bohemiancoding.com/sketch -->
    <title>Slice 1</title>
    <desc>Created with Sketch.</desc>
    <defs></defs>
    <g id="Page-1" stroke="none" stroke-width="1" fill="none" fill-rule="evenodd" sketch:type="MSPage">
        <g id="Group-Copy" sketch:type="MSLayerGroup" transform="translate(0.000000, -1155.000000)" fill="#629188">
            <path d="M2401,1879 L2351,1879 L2351,1879.41667 L2351,1879.41667 L2344,1882.33333 L2344,2167.33333 L2352,2179 L2352,2177 L2520,2177 L2520,1969 L2520,1969 L2558,1969 L2558,1875 L2514,1875 L2514,1818 L2416,1818 L2416,1848.5 L2416,1818 L2401,1827 L2401,1879 Z M1864,1907 L1864,1884 L1798,1884 L1798,1907 L1760,1907 L1760,2059 L2012,2059 L2012,1907 L1864,1907 L1864,1907 Z M1263,1605 L1263,1580 L937,1580 L937,1605 L875,1605 L875,2072 L1312,2072 L1312,1605 L1263,1605 Z M457.5,1860 L385,1860 L385,1887 L385,1887 L336,1887 L336,2008 L593,2008 L593,1887 L521,1887 L521,1865 L513,1860 L513,1873.5 L513,1860 L494.666667,1860 L497,1853 L491,1849 L499,1834 L490,1834 L483,1842 L478,1835 L468,1833 L468,1842 L457,1833 L463,1851 L455,1850 L457.5,1860 L457.5,1860 Z M2842,1522 L3010,1522 L3010,2074 L2842,2074 L2842,1522 Z M2432,1794 L2496,1794 L2496,1818 L2432,1818 L2432,1794 Z M2423,1797 L2432,1794 L2432,1818 L2423,1818 L2423,1797 Z M2820,1531 L2842,1522 L2842,2074 L2820,2083 L2820,1531 Z M593,1887 L606,1892 L606,2013 L593,2008 L593,1887 Z M1588,1942 L1728,1942 L1728,2013 L1588,2013 L1588,1942 Z M1553,1951 L1588,1942 L1588,2133 L1553,2122 L1553,1951 Z" id="Rectangle-1" sketch:type="MSShapeGroup"></path>
        </g>
        <text id="K&amp;C" sketch:type="MSTextLayer" font-family="Snell Roundhand" font-size="632" font-weight="normal" fill="#8ABEAF">
            <tspan x="1375" y="-119">K&amp;C</tspan>
        </text>
    </g>
</svg>