<svg width="4120" height="1583" viewBox="0 0 4120 1583" xmlns="http://www.w3.org/2000/svg"><title>Slice 1</title><g fill="none" fill-rule="evenodd"><path d="M2401 724h-50v.417l-7 2.916v285l8 11.667v-2h168V814h38v-94h-44v-57h-98v30.5V663l-15 9v52zm-537 28v-23h-66v23h-38v152h252V752h-148zm-601-302v-25H937v25h-62v467h437V450h-49zM457.5 705H385v27h-49v121h257V732h-72v-22l-8-5v13.5V705h-18.333l2.333-7-6-4 8-15h-9l-7 8-5-7-10-2v9l-11-9 6 18-8-1 2.5 10zM2842 367h168v552h-168V367zm-410 272h64v24h-64v-24zm-9 3l9-3v24h-9v-21zm397-266l22-9v552l-22 9V376zM593 732l13 5v121l-13-5V732zm995 55h140v71h-140v-71zm-35 9l35-9v191l-35-11V796z" fill="#629188"/><text font-family="Snell Roundhand" font-size="632" fill="#8ABEAF"><tspan x="1375" y="-119">K&amp;C</tspan></text></g></svg>