<svg width="4120" height="1583" viewBox="0 0 4120 1583" xmlns="http://www.w3.org/2000/svg"><title>Slice 1</title><g fill="#8ABEAF" fill-rule="evenodd"><path d="M2095 999.71l188-3.71v-86.145h-48.008V873H2213v-63h-18v-6h-19v6h-23v63h-245v-47h-329v71h16v135h500v-32.29zM1387 644v-28h-117v28h-24v410h166V644h-25zm1409 239V563h-133v552h133v-110h198v-24.96h1135V721l-51.77-11.505-23.118 7.172-45.886-6.7-39.648 8.402-18.975-5.385L3929 726l-24-5-39 10-17 1-12 3-16-1-13 14-55 6-246 36-8-7-19-5-4 7-144-31h-14l-1 4v6h-10l-4 4h-4l-2-5-7-5-10-2-1 5-5-3h-6l-3-6h-6l-4-3-6 6-1-5h-11l-15-12-41 35-99 18-18 15-11 10-13-3-16-9h-14l-25 8-.876 71H2796zm-144 150v89l11-7V563l-11 7v223h-236v240h236zM760 587h266v242H760V587zm266 0l8 10v242l-8-10V587z"/><text font-family="Snell Roundhand" font-size="632"><tspan x="1375" y="-119">K&amp;C</tspan></text></g></svg>