<?xml version="1.0" encoding="UTF-8" standalone="no"?>
<svg width="4120px" height="1583px" viewBox="0 0 4120 1583" version="1.1" xmlns="http://www.w3.org/2000/svg" xmlns:xlink="http://www.w3.org/1999/xlink" xmlns:sketch="http://www.bohemiancoding.com/sketch/ns">
    <!-- Generator: Sketch 3.3.3 (12072) - http://www.bohemiancoding.com/sketch -->
    <title>Slice 1</title>
    <desc>Created with Sketch.</desc>
    <defs></defs>
    <g id="Page-1" stroke="none" stroke-width="1" fill="none" fill-rule="evenodd" sketch:type="MSPage">
        <g id="Group-Copy" sketch:type="MSLayerGroup" transform="translate(0.000000, -1155.000000)" fill="#8ABEAF">
            <path d="M2095,2154.71067 L2283,2151 L2283,2064.85477 L2234.99239,2064.85477 L2234.99239,2028 L2213,2028 L2213,1965 L2195,1965 L2195,1959 L2176,1959 L2176,1965 L2176,1965 L2153,1965 L2153,2028 L1908,2028 L1908,1981 L1579,1981 L1579,2052 L1595,2052 L1595,2187 L2095,2187 L2095,2154.71067 Z M1387,1799 L1387,1771 L1270,1771 L1270,1799 L1246,1799 L1246,2209 L1412,2209 L1412,1799 L1387,1799 L1387,1799 Z M2796,2038 L2796,1718 L2663,1718 L2663,2270 L2796,2270 L2796,2160 L2994,2160 L2994,2135.0402 L4129,2135.0402 L4129,1876 L4077.22856,1864.49482 L4054.11213,1871.66678 L4008.22631,1864.96724 L3968.57824,1873.36886 L3949.60255,1867.98494 L3929,1881 L3905,1876 L3866,1886 L3849,1887 L3837,1890 L3821,1889 L3808,1903 L3753,1909 L3507,1945 L3499,1938 L3480,1933 L3476,1940 L3332,1909 L3318,1909 L3317,1913 L3317,1919 L3307,1919 L3303,1923 L3299,1923 L3297,1918 L3290,1913 L3280,1911 L3279,1916 L3274,1913 L3268,1913 L3265,1907 L3259,1907 L3255,1904 L3249,1910 L3248,1905 L3237,1905 L3222,1893 L3181,1928 L3082,1946 L3064,1961 L3053,1971 L3040,1968 L3024,1959 L3010,1959 L2985,1967 L2984.12362,2038 L2796,2038 Z M2652,2188 L2652,2277 L2663,2270 L2663,1718 L2652,1725 L2652,1948 L2416,1948 L2416,2188 L2652,2188 Z M760,1742 L1026,1742 L1026,1984 L760,1984 L760,1742 Z M1026,1742 L1034,1752 L1034,1994 L1026,1984 L1026,1742 Z" id="Rectangle-1-Copy-2" sketch:type="MSShapeGroup"></path>
        </g>
        <text id="K&amp;C" sketch:type="MSTextLayer" font-family="Snell Roundhand" font-size="632" font-weight="normal" fill="#8ABEAF">
            <tspan x="1375" y="-119">K&amp;C</tspan>
        </text>
    </g>
</svg>