<?xml version="1.0" encoding="UTF-8" standalone="no"?>
<svg width="4120px" height="1583px" viewBox="0 0 4120 1583" version="1.1" xmlns="http://www.w3.org/2000/svg" xmlns:xlink="http://www.w3.org/1999/xlink" xmlns:sketch="http://www.bohemiancoding.com/sketch/ns">
    <!-- Generator: Sketch 3.3.3 (12072) - http://www.bohemiancoding.com/sketch -->
    <title>Slice 1</title>
    <desc>Created with Sketch.</desc>
    <defs></defs>
    <g id="Page-1" stroke="none" stroke-width="1" fill="none" fill-rule="evenodd" sketch:type="MSPage">
        <g id="Group-Copy" sketch:type="MSLayerGroup" transform="translate(0.000000, -1155.000000)" fill="#AA6B79">
            <path d="M955.269231,1966 L1048,1966 L1048,2054 L1048,2054 L1326.00289,2054 L1326.00289,2032 L1343.03075,2014.97214 L1360.53563,2032.47703 L1360.53563,2099.04563 L1420.52966,2099.04563 L1420.52966,2130.00453 L1488,2129 L1501,2123 L1512,2132 L1520,2119 L1527,2107 L1553,2107 L1553,2089 L1568,2059 L1576,2057 L1581,2043 L1602,2032 L1602,2046 L1607,2051 L1610,2064 L1618,2081 L1618,2099 L1627,2091 L1629,2097 L1662,2106 L1671,2096 L1693,2101 L1708,2111 L1722,2116 L1734,2108 L1748,2104 L1737,2079 L1768,2097 L1772,2071 L1779,2103 L1792,2099 L1791,2076 L1802,2091 L1811,2089 L1811,2095 L1827,2100 L1838,2113 L1845,2097 L1859,2101 L1881,2101 L1887,2080 L1903,2089 L1937,2067 L1954,2084 L1949,2093 L1962,2093 L1962,2104 L1958,2118 L1958,2131 L1985.01851,2131 L1985.01851,2116.99999 L2017,2098 L2045,2118 L2056,2101 L2108,2101 L2108,2115 L2185.05842,2115 L2185.05842,2136.08956 L2200.00027,2136.08956 L2200.00027,2124 L2217.02939,2124 L2217.02939,2133.00005 L2245,2133.00005 L2245,2142 L2300,2142 L2367,2130 L2399,2134 L2407,2140 L2444,2134 L2475,2151 L2475,2175.01351 L2568.04881,2175.01351 L2568.04881,2116.99363 L2675.00473,2116.99363 L2675.00473,2095.4117 L2956.07723,2095.4117 L2956.07723,2128.4537 L3130.51958,2128.4537 L3130.51958,2080.85136 L3289.07424,2080.85136 L3289.07424,2102.22227 L3335.03439,2102.22227 L4129.02102,2102.22227 L4129.02102,2349.09866 L761.983535,2349.09866 L762.937999,2072 L762,2072 L702,1966 L865.730769,1966 L910.5,1942 L955.269231,1966 Z" id="Rectangle-46" sketch:type="MSShapeGroup"></path>
        </g>
        <text id="K&amp;C" sketch:type="MSTextLayer" font-family="Snell Roundhand" font-size="632" font-weight="normal" fill="#8ABEAF">
            <tspan x="1375" y="-119">K&amp;C</tspan>
        </text>
    </g>
</svg>