<svg width="4120" height="1583" viewBox="0 0 4120 1583" xmlns="http://www.w3.org/2000/svg"><title>Slice 1</title><g fill="none" fill-rule="evenodd"><path d="M955.27 811H1048v88h278.003v-22l17.028-17.028 17.506 17.505v66.57h59.994v30.958L1488 974l13-6 11 9 8-13 7-12h26v-18l15-30 8-2 5-14 21-11v14l5 5 3 13 8 17v18l9-8 2 6 33 9 9-10 22 5 15 10 14 5 12-8 14-4-11-25 31 18 4-26 7 32 13-4-1-23 11 15 9-2v6l16 5 11 13 7-16 14 4h22l6-21 16 9 34-22 17 17-5 9h13v11l-4 14v13h27.02v-14l31.98-19 28 20 11-17h52v14h77.058v21.09H2200V969h17.03v9H2245v9h55l67-12 32 4 8 6 37-6 31 17v24.014h93.05v-58.02h106.955v-21.582h281.072v33.042h174.443V925.85h158.554v21.372h839.947V1194.1H761.985l.954-277.1H762l-60-106h163.73l44.77-24 44.77 24z" fill="#AA6B79"/><text font-family="Snell Roundhand" font-size="632" fill="#8ABEAF"><tspan x="1375" y="-119">K&amp;C</tspan></text></g></svg>