<?xml version="1.0" encoding="UTF-8" standalone="no"?>
<svg width="4120px" height="1583px" viewBox="0 0 4120 1583" version="1.1" xmlns="http://www.w3.org/2000/svg" xmlns:xlink="http://www.w3.org/1999/xlink" xmlns:sketch="http://www.bohemiancoding.com/sketch/ns">
    <!-- Generator: Sketch 3.3.3 (12072) - http://www.bohemiancoding.com/sketch -->
    <title>Slice 1</title>
    <desc>Created with Sketch.</desc>
    <defs></defs>
    <g id="Page-1" stroke="none" stroke-width="1" fill="none" fill-rule="evenodd" sketch:type="MSPage">
        <g id="Group-Copy" sketch:type="MSLayerGroup" transform="translate(0.000000, -1155.000000)" fill="#804557">
            <path d="M395,2010 L412,2003 L413,1996 L408,1988 L450,1986 L445,1982 L459,1974 L469,1975 L468,1969 L486,1969 L498,1975 L494,1987 L520,1987 L519,1980 L539,1975 L545,1978 L549,1976 L556,1978 L561,1975 L577,1970 L587,1973 L587,1977 L612,1970 L613,1974 L618,1981 L650,1983 L667,1980 L667,1974 L691,1978 L715,1998 L726,1997 L732,2004 L734,1985 L753,2000 L757,2014 L762,2025 L773,2022 L781,2016 L791,2017 L793,2013 L788,2007 L792,2001 L795,2007 L799,2003 L810,2007 L810,2014 L820,2012 L814,2002 L827,2007 L827,2013 L837,2014 L846,2024 L852,2030 L859,2038 L869,2042 L875,2038 L872,2031 L883,2023 L893,2021 L893,1988 L914,1988 L914,2000 L1089.00286,2000 L1089.00286,2007 L1093,2045 L1161,2045 L1161,2089.28318 L1169,2092 L1172,2098 L1179,2103 L1179,2117 L1188,2122 L1189,2135 L1201,2135 L1212,2139 L1229,2136 L1241,2139 L1246,2146 L1246,2155 L1252,2159 L1266,2163 L1262,2155 L1262,2140 L1267,2133 L1284,2139 L1296,2143 L1300,2135 L1315,2135 L1330,2119 L1342,2122 L1346,2118 L1360,2118 L1359,2132 L1368,2129 L1371,2132 L1371,2141 L1381,2140 L1391,2141 L1404,2139 L1404,2152 L1412,2159 L1402,2170 L1424,2177 L1424,2171 L1426,2166 L1434,2173 L1442,2176 L1445,2183 L1440,2187 L1445,2190 L1458,2197 L1463,2192 L1471,2138 L1841.00135,2138 L1841.00135,2175.10762 L1864.02666,2175.10762 L1864.02666,2182.00005 L2197,2182.00005 L2197,2198 L2209,2194 L2214,2190 L2223,2197 L2239,2209 L2239,2219 L2245,2229 L2271,2233 L2272,2223 L2285,2215 L2299,2215 L2345,2225 L2363,2193 L2356,2175 L2356,2167 L2368,2165 L2373,2172 L2385,2180 L2588,2216 L2621,2210 L2622,2199 L2635,2186 L2639,2181 L2661,2181 L2662,2188 L2680,2188 L2680,2197 L2693,2203 L2712,2203 L2719,2214 L2727,2224 L2733,2234 L2743,2241 L2740,2251 L2750,2261 L3069,2261 L3069,2142.98305 L3150.04665,2142.98305 L3182,2159 L3201,2170 L3218,2162 L3214,2152 L3228,2146 L3232,2154 L3235,2145 L3261,2160 L4144.73356,2160 L4144.73356,2464.01755 L412.98065,2464.01755 L395,2010 Z" id="Path-12" sketch:type="MSShapeGroup"></path>
        </g>
        <text id="K&amp;C" sketch:type="MSTextLayer" font-family="Snell Roundhand" font-size="632" font-weight="normal" fill="#8ABEAF">
            <tspan x="1375" y="-119">K&amp;C</tspan>
        </text>
    </g>
</svg>