<svg width="4120" height="1583" viewBox="0 0 4120 1583" xmlns="http://www.w3.org/2000/svg"><title>Slice 1</title><g fill="none" fill-rule="evenodd"><path d="M395 855l17-7 1-7-5-8 42-2-5-4 14-8 10 1-1-6h18l12 6-4 12h26l-1-7 20-5 6 3 4-2 7 2 5-3 16-5 10 3v4l25-7 1 4 5 7 32 2 17-3v-6l24 4 24 20 11-1 6 7 2-19 19 15 4 14 5 11 11-3 8-6 10 1 2-4-5-6 4-6 3 6 4-4 11 4v7l10-2-6-10 13 5v6l10 1 9 10 6 6 7 8 10 4 6-4-3-7 11-8 10-2v-33h21v12h175.003v7l3.997 38h68v44.283l8 2.717 3 6 7 5v14l9 5 1 13h12l11 4 17-3 12 3 5 7v9l6 4 14 4-4-8v-15l5-7 17 6 12 4 4-8h15l15-16 12 3 4-4h14l-1 14 9-3 3 3v9l10-1 10 1 13-2v13l8 7-10 11 22 7v-6l2-5 8 7 8 3 3 7-5 4 5 3 13 7 5-5 8-54h370v37.108h23.027V1027H2197v16l12-4 5-4 9 7 16 12v10l6 10 26 4 1-10 13-8h14l46 10 18-32-7-18v-8l12-2 5 7 12 8 203 36 33-6 1-11 13-13 4-5h22l1 7h18v9l13 6h19l7 11 8 10 6 10 10 7-3 10 10 10h319V987.983h81.047L3182 1004l19 11 17-8-4-10 14-6 4 8 3-9 26 15h883.734v304.018H412.98L395 855z" fill="#804557"/><text font-family="Snell Roundhand" font-size="632" fill="#8ABEAF"><tspan x="1375" y="-119">K&amp;C</tspan></text></g></svg>