<?xml version="1.0" encoding="UTF-8" standalone="no"?>
<svg width="4120px" height="1583px" viewBox="0 0 4120 1583" version="1.1" xmlns="http://www.w3.org/2000/svg" xmlns:xlink="http://www.w3.org/1999/xlink" xmlns:sketch="http://www.bohemiancoding.com/sketch/ns">
    <!-- Generator: Sketch 3.3.3 (12072) - http://www.bohemiancoding.com/sketch -->
    <title>Slice 1</title>
    <desc>Created with Sketch.</desc>
    <defs></defs>
    <g id="Page-1" stroke="none" stroke-width="1" fill="none" fill-rule="evenodd" sketch:type="MSPage">
        <g id="Group-Copy" sketch:type="MSLayerGroup" transform="translate(0.000000, -1155.000000)" fill="#592236">
            <path d="M1118,2328 L1121,2312 L1141,2306 L1144,2299 L1155,2297 L1163,2294 L1167,2295 L1168,2299 L1177,2300 L1178,2297 L1173,2293 L1176,2284 L1180,2278 L1186,2282 L1190,2282 L1194,2286 L1187,2286 L1189,2292 L1189,2297 L1196,2297 L1196,2292 L1201,2292 L1205,2298 L1211,2300 L1210,2307 L1205,2314 L1211,2314 L1211,2318 L1208,2319 L1208,2324 L1211,2332 L1215,2336 L1218,2340 L1222,2341 L1224,2339 L1226,2344 L1228,2342 L1240,2338 L1229,2335 L1235,2334 L1245,2333 L1251,2336 L1254,2332 L1252,2324 L1242,2327 L1242,2325 L1237,2329 L1235,2324 L1231,2324 L1227,2324 L1227,2317 L1221,2319 L1217,2321 L1220,2315 L1219,2307 L1227,2310 L1226,2303 L1231,2309 L1234,2305 L1236,2308 L1240,2309 L1240,2300 L1241,2295 L1246,2290 L1247,2285 L1251,2283 L1252,2281 L1258,2281 L1258,2275 L1261,2271 L1265,2272 L1265,2270 L1269,2271 L1272,2272 L1276,2271 L1280,2271 L1284,2273 L1281,2274 L1281,2276 L1282,2279 L1285,2279 L1285,2277 L1291,2283 L1294,2283 L1292,2286 L1292,2288 L1293,2292 L1296,2290 L1296,2285 L1300,2281 L1300,2285 L1306,2281 L1306,2277 L1311,2279 L1313,2272 L1315,2273 L1319,2266 L1320,2268 L1320,2274 L1321,2282 L1324,2284 L1327,2283 L1329,2277 L1332,2275 L1332,2271 L1339,2263 L1341,2267 L1348,2265 L1352,2265 L1362,2272 L1369,2274 L1376,2275 L1376,2277 L1380,2276 L1384,2273 L1393,2273 L1398,2275 L1398,2272 L1393,2270 L1398,2269 L1402,2261 L1403,2265 L1401,2269 L1400,2271 L1402,2272 L1405,2269 L1408,2271 L1408,2268 L1404,2262 L1414,2267 L1418,2267 L1418,2264 L1413,2260 L1409,2255 L1416,2257 L1416,2253 L1411,2249 L1411,2247 L1414,2247 L1415,2239 L1408,2244 L1413,2237 L1411,2223 L1413,2217 L1417,2201 L1415,2219 L1415,2227 L1418,2235 L1419,2229 L1421,2235 L1421,2238 L1419,2241 L1421,2243 L1425,2243 L1426,2246 L1427,2250 L1430,2251 L1430,2256 L1429,2260 L1434,2258 L1434,2264 L1436,2263 L1439,2264 L1442,2267 L1442,2255 L1440,2246 L1444,2252 L1448,2237 L1446,2251 L1446,2257 L1449,2256 L1452,2256 L1456,2260 L1458,2265 L1455,2267 L1452,2269 L1448,2271 L1455,2273 L1457,2279 L1460,2283 L1462,2287 L1464,2290 L1466,2292 L1469,2290 L1474,2290 L1475,2284 L1478,2286 L1479,2283 L1482,2285 L1483,2283 L1486,2287 L1486,2291 L1489,2294 L1491,2292 L1494,2294 L1498,2292 L1497,2287 L1502,2292 L1505,2292 L1502,2294 L1505,2294 L1498,2299 L1502,2305 L1504,2299 L1508,2300 L1515,2299 L1518,2301 L1523,2301 L1526,2295 L1528,2294 L1528,2289 L1528,2283 L1532,2283 L1532,2290 L1535,2290 L1535,2294 L1542,2290 L1545,2290 L1538,2295 L1535,2298 L1535,2303 L1536,2309 L1536,2313 L1540,2310 L1541,2315 L1542,2319 L1547,2315 L1547,2317 L1552,2316 L1556,2310 L1559,2314 L1561,2311 L1561,2307 L1559,2302 L1562,2299 L1555,2293 L1552,2289 L1560,2291 L1562,2283 L1564,2290 L1567,2293 L1570,2294 L1575,2293 L1577,2286 L1574,2283 L1571,2282 L1577,2282 L1578,2279 L1576,2276 L1573,2274 L1578,2270 L1572,2268 L1568,2267 L1566,2265 L1574,2266 L1576,2265 L1579,2261 L1575,2260 L1572,2257 L1571,2254 L1577,2253 L1580,2249 L1585,2247 L1588,2244 L1581,2244 L1584,2241 L1588,2241 L1593,2243 L1595,2242 L1598,2239 L1601,2237 L1604,2236 L1608,2237 L1609,2240 L1613,2240 L1613,2236 L1617,2239 L1620,2242 L1624,2242 L1624,2245 L1627,2245 L1628,2247 L1632,2249 L1638,2248 L1639,2250 L1638,2252 L1640,2254 L1640,2256 L1640,2258 L1642,2259 L1644,2262 L1642,2265 L1642,2269 L1646,2269 L1642,2275 L1645,2275 L1645,2280 L1643,2282 L1643,2285 L1646,2285 L1646,2288 L1646,2291 L1646,2298 L1644,2299 L1640,2299 L1640,2302 L1638,2304 L1636,2309 L1634,2307 L1633,2311 L1634,2314 L1639,2314 L1645,2314 L1645,2305 L1650,2308 L1653,2308 L1651,2313 L1651,2317 L1657,2312 L1658,2317 L1661,2317 L1666,2320 L1671,2290 L1671,2316 L1673,2315 L1677,2318 L1685,2316 L1693,2318 L1699,2313 L1704,2316 L1708,2315 L1708,2308 L1714,2308 L1719,2306 L1719,2303 L1724,2299 L1727,2297 L1733,2296 L1739,2297 L1742,2297 L1741,2299 L1741,2303 L1741,2309 L1744,2311 L1744,2316 L1759,2312 L1761,2316 L1769,2316 L1772,2316 L1772,2313 L1767,2312 L1772,2307 L1778,2309 L1786,2306 L1792,2293 L1792,2301 L1799,2301 L1799,2297 L1797,2292 L1800,2290 L1801,2278 L1802,2291 L1810,2289 L1815,2290 L1815,2286 L1811,2283 L1807,2281 L1809,2279 L1812,2276 L1806,2270 L1818,2274 L1815,2267 L1819,2269 L1820,2263 L1825,2265 L1829,2271 L1831,2266 L1836,2268 L1838,2271 L1844,2273 L1842,2268 L1842,2264 L1843,2255 L1843,2250 L1845,2251 L1845,2260 L1848,2264 L1852,2260 L1851,2255 L1853,2249 L1858,2253 L1858,2258 L1856,2263 L1856,2267 L1861,2267 L1860,2262 L1862,2257 L1871,2256 L1873,2260 L1873,2266 L1878,2266 L1880,2274 C1880,2274 1880,2276.85677 1880,2278.28516 L1880,2280 L1880,2291 L1882,2293 L1882,2298 L1884,2296 L1884,2292 L1890,2289 L1885,2286 L1885,2278 L1885,2274 L1885,2268 L1885,2262 L1889,2262 L1889,2267 L1893,2268 L1893,2261 L1898,2257 L1901,2253 L1903,2247 L1906,2256 L1906,2262 L1908,2269 L1911,2269 L1914,2263 L1914,2258 L1920,2254 L1921,2249 L1926,2249 L1926,2242 L1931,2241 L1931,2248 L1933,2253 L1931,2258 L1930,2263 L1930,2271 L1938,2267 L1942,2264 L1942,2256 L1944,2254 L1944,2266 L1943,2272 L1949,2269 L1949,2264 L1953,2253 L1960,2253 L1956,2259 L1961,2259 L1956,2268 L1960,2268 L1960,2273 L1962,2274 L1965,2276 L1978,2291 L1984,2331 L2044,2568 L1768,2487 L1132,2516 L1118,2328 Z" id="Path-10" sketch:type="MSShapeGroup"></path>
        </g>
        <text id="K&amp;C" sketch:type="MSTextLayer" font-family="Snell Roundhand" font-size="632" font-weight="normal" fill="#8ABEAF">
            <tspan x="1375" y="-119">K&amp;C</tspan>
        </text>
    </g>
</svg>