<svg width="4120" height="1583" viewBox="0 0 4120 1583" xmlns="http://www.w3.org/2000/svg"><title>Slice 1</title><g fill="none" fill-rule="evenodd"><path d="M1118 1173l3-16 20-6 3-7 11-2 8-3 4 1 1 4 9 1 1-3-5-4 3-9 4-6 6 4h4l4 4h-7l2 6v5h7v-5h5l4 6 6 2-1 7-5 7h6v4l-3 1v5l3 8 4 4 3 4 4 1 2-2 2 5 2-2 12-4-11-3 6-1 10-1 6 3 3-4-2-8-10 3v-2l-5 4-2-5h-8v-7l-6 2-4 2 3-6-1-8 8 3-1-7 5 6 3-4 2 3 4 1v-9l1-5 5-5 1-5 4-2 1-2h6v-6l3-4 4 1v-2l4 1 3 1 4-1h4l4 2-3 1v2l1 3h3v-2l6 6h3l-2 3v2l1 4 3-2v-5l4-4v4l6-4v-4l5 2 2-7 2 1 4-7 1 2v6l1 8 3 2 3-1 2-6 3-2v-4l7-8 2 4 7-2h4l10 7 7 2 7 1v2l4-1 4-3h9l5 2v-3l-5-2 5-1 4-8 1 4-2 4-1 2 2 1 3-3 3 2v-3l-4-6 10 5h4v-3l-5-4-4-5 7 2v-4l-5-4v-2h3l1-8-7 5 5-7-2-14 2-6 4-16-2 18v8l3 8 1-6 2 6v3l-2 3 2 2h4l1 3 1 4 3 1v5l-1 4 5-2v6l2-1 3 1 3 3v-12l-2-9 4 6 4-15-2 14v6l3-1h3l4 4 2 5-3 2-3 2-4 2 7 2 2 6 3 4 2 4 2 3 2 2 3-2h5l1-6 3 2 1-3 3 2 1-2 3 4v4l3 3 2-2 3 2 4-2-1-5 5 5h3l-3 2h3l-7 5 4 6 2-6 4 1 7-1 3 2h5l3-6 2-1v-11h4v7h3v4l7-4h3l-7 5-3 3v5l1 6v4l4-3 1 5 1 4 5-4v2l5-1 4-6 3 4 2-3v-4l-2-5 3-3-7-6-3-4 8 2 2-8 2 7 3 3 3 1 5-1 2-7-3-3-3-1h6l1-3-2-3-3-2 5-4-6-2-4-1-2-2 8 1 2-1 3-4-4-1-3-3-1-3 6-1 3-4 5-2 3-3h-7l3-3h4l5 2 2-1 3-3 3-2 3-1 4 1 1 3h4v-4l4 3 3 3h4v3h3l1 2 4 2 6-1 1 2-1 2 2 2v4l2 1 2 3-2 3v4h4l-4 6h3v5l-2 2v3h3v13l-2 1h-4v3l-2 2-2 5-2-2-1 4 1 3h11v-9l5 3h3l-2 5v4l6-5 1 5h3l5 3 5-30v26l2-1 4 3 8-2 8 2 6-5 5 3 4-1v-7h6l5-2v-3l5-4 3-2 6-1 6 1h3l-1 2v10l3 2v5l15-4 2 4h11v-3l-5-1 5-5 6 2 8-3 6-13v8h7v-4l-2-5 3-2 1-12 1 13 8-2 5 1v-4l-4-3-4-2 2-2 3-3-6-6 12 4-3-7 4 2 1-6 5 2 4 6 2-5 5 2 2 3 6 2-2-5v-4l1-9v-5l2 1v9l3 4 4-4-1-5 2-6 5 4v5l-2 5v4h5l-1-5 2-5 9-1 2 4v6h5l2 8v17l2 2v5l2-2v-4l6-3-5-3v-24h4v5l4 1v-7l5-4 3-4 2-6 3 9v6l2 7h3l3-6v-5l6-4 1-5h5v-7l5-1v7l2 5-2 5-1 5v8l8-4 4-3v-8l2-2v12l-1 6 6-3v-5l4-11h7l-4 6h5l-5 9h4v5l2 1 3 2 13 15 6 40 60 237-276-81-636 29-14-188z" fill="#592236"/><text font-family="Snell Roundhand" font-size="632" fill="#8ABEAF"><tspan x="1375" y="-119">K&amp;C</tspan></text></g></svg>