<?xml version="1.0" encoding="UTF-8" standalone="no"?>
<svg width="4120px" height="979px" viewBox="0 0 4120 979" version="1.1" xmlns="http://www.w3.org/2000/svg" xmlns:xlink="http://www.w3.org/1999/xlink" xmlns:sketch="http://www.bohemiancoding.com/sketch/ns">
    <!-- Generator: Sketch 3.3.3 (12072) - http://www.bohemiancoding.com/sketch -->
    <title>Group Copy</title>
    <desc>Created with Sketch.</desc>
    <defs></defs>
    <g id="Page-1" stroke="none" stroke-width="1" fill="none" fill-rule="evenodd" sketch:type="MSPage">
        <g id="Group-Copy" sketch:type="MSLayerGroup" transform="translate(0.000000, -1759.000000)" fill="#330017">
            <path d="M3836.02318,1889.83724 L3832.66336,1889.83724 L3827.6638,1885.83818 L3829.66363,1881.83912 L3833.66328,1881.83912 L3828.66371,1874.84076 L3826.66389,1878.83982 L3823.66415,1877.84005 L3818.66459,1877.84005 L3820.66441,1873.84099 L3815.66485,1870.8417 L3820.66441,1868.84216 L3813.66502,1866.84263 L3811.6652,1861.84381 L3808.66546,1857.84474 L3809.66537,1851.84615 L3804.66581,1851.84615 L3801.66607,1855.84521 L3795.66659,1860.84404 L3797.66642,1864.8431 L3797.66642,1870.8417 L3801.66607,1871.84146 L3796.66651,1876.84029 L3792.66686,1881.83912 L3794.66668,1886.83794 L3789.66712,1895.83583 L3797.66642,1906.83325 L3805.66572,1906.83325 L3810.66528,1908.83278 L3812.66511,1914.83138 L3809.66537,1919.8302 L3806.66563,1913.83161 L3799.66625,1911.83208 L3794.66668,1906.83325 L3791.66694,1906.83325 L3789.66712,1901.83442 L3776.66825,1898.83513 L3782.66773,1908.83278 L3786.66738,1912.83185 L3791.66694,1918.83044 L3786.66738,1921.82973 L3783.66764,1917.83067 L3783.66764,1911.83208 L3779.66799,1916.83091 L3775.66834,1918.83044 L3770.66878,1919.8302 L3775.66834,1915.83114 L3776.66825,1909.83255 L3773.66852,1907.83302 L3767.66904,1902.83419 L3766.66913,1908.83278 L3769.66886,1910.83231 L3767.66904,1918.83044 L3770.66878,1927.82833 L3764.6693,1924.82903 L3761.66956,1920.82997 L3756.67,1922.8295 L3758.66982,1916.83091 L3751.67044,1916.83091 L3751.67044,1923.82927 L3748.6707,1926.82856 L3752.67035,1934.82669 L3749.67061,1939.82551 L3747.67078,1935.82645 L3744.67105,1935.82645 L3740.6714,1935.82645 L3739.67148,1940.82528 L3743.67113,1938.82575 L3746.67087,1941.82504 L3741.67131,1945.82411 L3746.67087,1945.82411 L3746.67087,1951.8227 L3742.67122,1956.82153 L3744.67105,1960.82059 L3747.67078,1961.82035 L3744.67105,1968.81871 L3741.67131,1964.81965 L3735.67183,1961.82035 L3732.67209,1959.82082 L3737.67166,1956.82153 L3726.67262,1950.82293 L3724.67279,1954.822 L3723.67288,1961.82035 L3727.67253,1967.81895 L3724.67279,1973.81754 L3722.67297,1979.81613 L3718.67332,1982.81543 L3718.67332,1988.81402 L3721.67305,1988.81402 L3719.67323,1994.81261 L3724.67279,1996.81214 L3722.67297,2001.81097 L3719.67323,2001.81097 L3719.67323,2014.80792 L3724.67279,2014.80792 L3721.67305,2018.80699 L3725.67271,2021.80628 L3724.67279,2032.8037 L3724.67279,2038.80229 L3716.67349,2036.80276 L3713.67375,2039.80206 L3710.67402,2046.80042 L3709.6741,2040.80183 L3706.67436,2040.80183 C3705.67445,2044.80089 3704.67454,2048.79995 3704.67454,2048.79995 L3699.67498,2045.80065 L3699.67498,2033.80347 L3694.67541,2033.80347 L3694.67541,2022.80605 L3689.67585,2023.80581 L3687.67602,2030.80417 L3691.67567,2030.80417 L3683.67637,2033.80347 L3678.67681,2030.80417 L3673.67725,2029.80441 L3676.67698,2022.80605 L3680.67663,2018.80699 L3673.67725,2018.80699 L3670.67751,2007.80957 L3669.67759,2002.81074 L3664.67803,1998.81168 L3661.67829,2000.81121 L3656.67873,1998.81168 L3650.67925,1989.81379 L3650.67925,1978.81637 L3646.6796,1978.81637 L3643.67986,1985.81472 L3647.67952,1991.81332 L3652.67908,1996.81214 L3655.67882,2002.81074 L3649.67934,2002.81074 L3646.6796,2002.81074 L3637.68039,1995.81238 L3633.68074,1995.81238 L3638.6803,2001.81097 L3639.68021,2006.8098 L3635.68056,2009.8091 L3635.68056,2019.80675 L3640.68013,2021.80628 L3641.68004,2026.80511 L3638.6803,2030.80417 L3636.68048,2035.803 L3631.68091,2028.80464 L3630.681,2021.80628 L3625.68144,2021.80628 L3628.68117,2028.80464 L3623.68161,2029.80441 L3627.68126,2039.80206 L3621.68178,2042.80136 L3619.68196,2047.80018 L3616.68222,2047.80018 L3610.68275,2050.79948 L3608.68292,2044.80089 L3602.68344,2043.80112 L3591.6844,2044.80089 L3594.68414,2038.80229 L3590.68449,2030.80417 L3589.68458,2021.80628 L3585.68493,2020.80652 L3580.68536,2012.80839 L3575.6858,2016.80745 L3569.68632,2023.80581 L3563.68685,2028.80464 L3562.68694,2033.80347 L3557.68737,2033.80347 L3552.68781,2038.80229 L3549.68807,2044.80089 L3545.68842,2044.80089 L3542.68868,2050.79948 L3542.68868,2056.79807 L3536.68921,2057.79784 L3540.68886,2054.79854 L3537.68912,2048.79995 L3541.68877,2045.80065 L3534.68938,2042.80136 L3533.68947,2037.80253 L3528.6899,2032.8037 L3526.69008,2028.80464 L3521.69052,2027.80487 L3524.69025,2024.80558 L3526.69008,2019.80675 L3530.68973,2016.80745 L3533.68947,2014.80792 L3531.68964,2008.80933 L3528.6899,2013.80816 L3523.69034,2014.80792 L3518.69078,2019.80675 L3514.69113,2021.80628 L3509.69156,2025.80534 L3518.69078,2026.80511 L3514.69113,2029.80441 L3513.69121,2035.803 L3510.69148,2035.803 L3506.69182,2036.80276 L3502.69217,2036.80276 L3500.69235,2031.80394 L3495.69278,2030.80417 L3492.69305,2033.80347 L3492.69305,2026.80511 L3496.6927,2024.80558 L3498.69252,2019.80675 L3503.69209,2023.80581 L3501.69226,2015.80769 L3501.69226,2009.8091 L3497.69261,2011.80863 L3496.6927,2006.8098 L3499.69244,2005.81003 L3495.69278,2003.8105 L3492.69305,2000.81121 L3490.69322,2008.80933 L3487.69348,2008.80933 L3485.69366,2014.80792 L3482.69392,2017.80722 L3484.69375,2021.80628 L3488.6934,2021.80628 L3489.69331,2033.80347 L3485.69366,2034.80323 L3486.69357,2023.80581 L3481.69401,2023.80581 L3480.69409,2028.80464 L3473.69471,2018.80699 L3475.69453,2026.80511 L3475.69453,2032.8037 L3472.69479,2036.80276 L3476.69444,2038.80229 L3477.69436,2048.79995 L3475.69453,2053.79878 L3471.69488,2051.79925 L3472.69479,2046.80042 L3469.69505,2037.80253 L3465.6954,2037.80253 L3468.69514,2032.8037 L3464.69549,2027.80487 L3461.69575,2028.80464 L3459.69593,2023.80581 L3455.69628,2012.80839 L3455.69628,2021.80628 L3456.69619,2026.80511 L3455.69628,2031.80394 L3448.69689,2034.80323 L3453.69645,2041.80159 L3450.69671,2044.80089 L3446.69706,2043.80112 L3442.69741,2043.80112 L3439.69767,2047.80018 L3433.6982,2043.80112 L3436.69794,2039.80206 L3432.69828,2038.80229 L3432.69828,2031.80394 L3429.69855,2026.80511 L3423.69907,2022.80605 L3421.69925,2013.80816 L3429.69855,2013.80816 L3433.6982,2011.80863 L3433.6982,2002.81074 L3430.69846,2007.80957 L3426.69881,2009.8091 L3422.69916,2008.80933 L3424.69898,2002.81074 L3416.69968,2002.81074 L3410.70021,2003.8105 L3409.70029,1998.81168 L3417.69959,1997.81191 L3417.69959,1991.81332 L3422.69916,1991.81332 L3421.69925,1982.81543 L3416.69968,1988.81402 L3412.70003,1988.81402 L3409.70029,1993.81285 L3408.70038,1988.81402 L3401.70099,1987.81426 L3397.70134,1986.81449 L3397.70134,1992.81308 L3402.7009,1994.81261 L3399.70117,1996.81214 L3393.70169,1993.81285 L3397.70134,1998.81168 L3397.70134,2004.81027 L3394.7016,2004.81027 L3388.70213,2001.81097 L3391.70186,2006.8098 L3388.70213,2009.8091 L3383.70256,2007.80957 L3384.70248,2016.80745 L3380.70282,2010.80886 L3377.70309,2007.80957 L3379.70291,2002.81074 L3376.70317,2002.81074 L3370.7037,2008.80933 L3374.70335,2008.80933 L3378.703,2011.80863 L3379.70291,2016.80745 L3376.70317,2016.80745 L3371.70361,2014.80792 L3370.7037,2019.80675 L3365.70413,2014.80792 L3359.70466,2011.80863 L3365.70413,2019.80675 L3360.70457,2023.80581 L3367.70396,2024.80558 L3362.7044,2029.80441 L3363.70431,2036.80276 L3368.70387,2033.80347 L3374.70335,2032.8037 L3380.70282,2033.80347 L3383.70256,2034.80323 L3374.70335,2036.80276 L3369.70378,2038.80229 L3368.70387,2043.80112 L3373.70344,2043.80112 L3367.70396,2046.80042 L3362.7044,2047.80018 L3359.70466,2046.80042 L3359.70466,2039.80206 L3356.70492,2041.80159 L3353.70518,2036.80276 L3346.70579,2033.80347 L3351.70536,2040.80183 L3348.70562,2046.80042 L3344.70597,2045.80065 L3340.70632,2051.79925 L3343.70605,2052.79901 L3345.70588,2056.79807 L3351.70536,2053.79878 L3349.70553,2058.7976 L3342.70614,2056.79807 L3339.7064,2054.79854 L3336.70667,2058.7976 L3339.7064,2067.79549 L3336.70667,2073.79409 L3343.70605,2073.79409 L3341.70623,2078.79291 L3340.70632,2083.79174 L3340.70632,2090.7901 L3335.70675,2092.78963 L3330.70719,2091.78987 L3326.70754,2083.79174 L3323.7078,2087.7908 L3318.70824,2089.79033 L3312.70876,2091.78987 L3306.70928,2097.78846 L3302.70963,2103.78705 L3299.7099,2102.78729 L3299.7099,2095.78893 L3307.7092,2094.78916 L3302.70963,2092.78963 L3298.70998,2092.78963 L3302.70963,2089.79033 L3302.70963,2083.79174 L3305.70937,2079.79268 L3299.7099,2083.79174 L3296.71016,2080.79244 L3293.71042,2083.79174 L3287.71094,2086.79104 L3289.71077,2090.7901 L3285.71112,2092.78963 L3289.71077,2095.78893 L3289.71077,2102.78729 L3292.71051,2102.78729 L3293.71042,2110.78541 L3288.71086,2111.78517 L3289.71077,2118.78353 L3285.71112,2115.78424 L3280.71155,2117.78377 L3279.71164,2123.78236 L3276.7119,2120.78306 L3274.71208,2126.78166 L3271.71234,2125.78189 L3270.71243,2134.77978 L3267.71269,2140.77837 L3264.71295,2144.77744 L3264.71295,2137.77908 L3259.71339,2135.77955 L3255.71374,2137.77908 L3250.71417,2133.78001 L3246.71452,2130.78072 L3251.71409,2138.77884 L3251.71409,2145.7772 L3249.71426,2150.77603 L3253.71391,2151.77579 L3250.71417,2156.77462 L3249.71426,2162.77321 L3244.7147,2163.77298 L3238.71522,2163.77298 L3234.71557,2164.77274 L3236.7154,2171.7711 L3232.71575,2170.77134 L3228.71609,2169.77157 L3225.71636,2169.77157 L3222.71662,2169.77157 L3222.71662,2175.77016 L3225.71636,2181.76876 L3218.71697,2179.76923 L3212.71749,2179.76923 L3213.7174,2185.76782 L3218.71697,2188.76712 L3223.71653,2194.76571 L3216.71714,2196.76524 L3216.71714,2202.76383 L3213.7174,2201.76407 L3206.71802,2195.76547 L3199.71863,2199.76454 L3205.7181,2202.76383 L3198.71871,2203.7636 L3202.71836,2211.76172 L3194.71906,2213.76125 L3185.71985,2215.76078 L3187.71967,2219.75985 L3190.71941,2220.75961 L3189.7195,2229.7575 L3188.71959,2238.75539 L3184.71994,2238.75539 L3183.72002,2228.75774 L3181.7202,2237.75562 L3176.72063,2235.75609 L3179.72037,2229.7575 L3175.72072,2230.75727 L3172.72098,2229.7575 L3167.72142,2234.75633 L3165.72159,2228.75774 L3165.72159,2234.75633 L3159.72212,2236.75586 L3156.72238,2229.7575 L3156.72238,2237.75562 L3153.72264,2231.75703 L3152.08642,2233.39301 L3150.7229,2231.75703 L3152.72273,2227.75797 L3151.72282,2221.75938 L3149.72299,2214.76102 L3146.72325,2206.76289 L3149.72299,2200.7643 L3139.72386,2201.76407 L3138.72395,2196.76524 L3129.72474,2201.76407 L3127.72491,2197.76501 L3124.72517,2204.76336 L3118.7257,2196.76524 L3111.72631,2198.76477 L3105.72683,2198.76477 L3109.72648,2192.76618 L3112.72622,2187.76735 L3126.725,2180.76899 L3112.72622,2183.76829 L3112.72622,2176.76993 L3102.72709,2175.77016 L3099.72736,2182.76852 L3085.72858,2183.76829 L3088.72832,2171.7711 L3096.72762,2163.77298 L3109.72648,2159.77392 L3116.72587,2157.77439 L3126.725,2157.77439 L3137.72404,2158.77415 L3137.72404,2165.77251 L3148.72308,2157.77439 L3148.72308,2152.77556 L3154.72255,2152.77556 L3154.72255,2157.77439 L3155.72247,2160.77368 L3154.72255,2165.77251 L3159.72212,2163.77298 L3163.72177,2166.77228 L3160.72203,2171.7711 L3163.72177,2174.7704 L3169.72125,2175.77016 L3176.72063,2178.76946 L3178.72046,2182.76852 L3185.71985,2182.76852 L3192.71924,2182.76852 L3192.71924,2178.76946 L3202.71836,2176.76993 L3202.71836,2172.77087 L3207.71793,2167.77204 L3207.71793,2161.77345 L3199.71863,2157.77439 L3204.71819,2148.7765 L3197.7188,2144.77744 L3195.71898,2149.77626 L3191.71932,2141.77814 L3179.72037,2145.7772 L3185.71985,2139.77861 L3189.7195,2135.77955 L3196.71889,2132.78025 L3196.71889,2128.78119 L3197.7188,2125.78189 L3191.71932,2119.7833 L3188.71959,2125.78189 L3185.71985,2119.7833 L3180.72029,2116.784 L3175.72072,2108.78588 L3175.72072,2102.78729 L3167.72142,2102.78729 L3163.72177,2098.78822 L3171.72107,2097.78846 L3176.72063,2092.78963 L3178.72046,2088.79057 L3171.72107,2083.79174 L3177.72055,2083.79174 L3184.71994,2082.79198 L3187.71967,2078.79291 L3183.72002,2073.79409 L3181.7202,2068.79526 L3182.72011,2064.7962 L3186.71976,2059.79737 L3183.72002,2053.79878 L3180.72029,2049.79972 L3178.72046,2045.80065 L3177.72055,2054.79854 L3174.72081,2058.7976 L3171.72107,2049.79972 L3170.72116,2055.79831 L3164.72168,2060.79714 L3163.72177,2057.79784 L3166.72151,2053.79878 L3166.72151,2049.79972 L3159.72212,2049.79972 L3158.72221,2056.79807 L3154.72255,2054.79854 L3153.72264,2059.79737 L3146.72325,2059.79737 L3145.72334,2055.79831 L3139.72386,2058.7976 L3139.72386,2055.79831 L3130.72465,2055.79831 L3126.725,2059.79737 L3126.725,2053.79878 L3114.72605,2055.79831 L3114.72605,2060.79714 L3114.72605,2065.79596 L3127.72491,2066.79573 L3114.72605,2071.79456 L3114.72605,2076.79338 L3107.72666,2076.79338 L3100.72727,2078.79291 L3099.72736,2075.79362 L3102.72709,2067.79549 L3096.72762,2065.79596 L3097.72753,2060.79714 L3102.72709,2056.79807 L3102.72709,2053.79878 L3105.72683,2047.80018 L3111.72631,2040.80183 L3122.72535,2032.8037 L3134.7243,2026.80511 L3133.72439,2021.80628 L3124.72517,2020.80652 L3114.72605,2016.80745 L3114.72605,2013.80816 L3124.72517,2013.80816 L3131.72456,2016.80745 L3138.72395,2019.80675 L3144.72343,2018.80699 L3146.72325,2012.80839 L3152.72273,2016.80745 L3158.72221,2014.80792 L3155.72247,2011.80863 L3155.72247,2007.80957 L3163.72177,2009.8091 L3166.72151,2003.8105 L3176.72063,2003.8105 L3187.71967,2003.8105 L3187.71967,1999.81144 L3188.71959,1995.81238 L3190.71941,1990.81355 L3187.71967,1988.81402 L3185.71985,1983.81519 L3184.71994,1979.81613 L3182.72011,1973.81754 L3182.72011,1970.81824 L3176.72063,1964.81965 L3165.72159,1964.81965 L3165.72159,1970.81824 L3168.72133,1972.81777 L3168.72133,1977.8166 L3161.72194,1977.8166 L3160.72203,1981.81566 L3156.72238,1979.81613 L3150.7229,1979.81613 L3145.72334,1981.81566 L3138.72395,1981.81566 L3138.72395,1975.81707 L3150.7229,1974.8173 L3150.7229,1969.81848 L3148.72308,1964.81965 L3146.72325,1956.82153 L3139.72386,1952.82246 L3134.7243,1949.82317 L3128.72482,1949.82317 L3128.72482,1953.82223 L3120.72552,1956.82153 L3121.72544,1953.82223 L3123.72526,1949.82317 L3122.72535,1942.82481 L3113.72613,1934.82669 L3113.72613,1927.82833 L3110.7264,1922.8295 L3110.7264,1917.83067 L3104.72692,1919.8302 L3096.72762,1913.83161 L3091.72805,1920.82997 L3091.72805,1914.83138 L3089.72823,1907.83302 L3080.72902,1909.83255 L3078.72919,1917.83067 L3077.72928,1911.83208 L3068.73006,1904.83372 L3067.73015,1909.83255 L3058.73094,1910.83231 L3050.73163,1909.83255 L3045.73207,1917.83067 L3041.73242,1914.83138 L3036.73286,1917.83067 L3034.73303,1920.82997 L3027.73364,1920.82997 L3033.73312,1916.83091 L3021.73417,1917.83067 L3021.73417,1922.8295 L3010.73513,1929.82786 L2999.73609,1928.82809 L2999.73609,1934.82669 L2994.73652,1932.82715 L2991.73679,1939.82551 L2998.73617,1950.82293 L2997.73626,1957.82129 L3009.73521,1968.81871 L3009.73521,1975.81707 L3003.73574,1976.81684 L2997.73626,1979.81613 L2990.73687,1979.81613 L2987.73713,1969.81848 L2984.7374,1978.81637 L2989.73696,1983.81519 L2989.73696,1986.81449 L2979.73783,1984.81496 L2977.73801,1988.81402 L2973.73836,1985.81472 L2972.73844,1981.81566 L2969.73871,1979.81613 L2966.73897,1985.81472 L2966.73897,1988.81402 L2957.73975,1985.81472 L2956.73984,1988.81402 L2955.73993,1995.81238 L2962.73932,2004.81027 L2962.73932,2007.80957 L2968.73879,2010.80886 L2969.73871,2016.80745 L2975.73818,2014.80792 L2980.73775,2016.80745 L2984.7374,2020.80652 L2989.73696,2023.80581 L2996.73635,2024.80558 L3001.73591,2027.80487 L3002.73582,2030.80417 L3003.73574,2033.80347 L3000.736,2035.803 L3003.73574,2040.80183 L2999.73609,2044.80089 L2994.73652,2042.80136 L2991.73679,2046.80042 L2988.73705,2050.79948 L2999.73609,2051.79925 L3006.73548,2049.79972 L3012.73495,2047.80018 L3018.73443,2051.79925 L3018.73443,2057.79784 L3014.73478,2059.79737 L3016.7346,2068.79526 L3009.73521,2066.79573 L3003.73574,2068.79526 L3001.73591,2076.79338 L2997.73626,2067.79549 L2993.73661,2077.79315 L2996.73635,2075.79362 L2998.73617,2078.79291 L2998.73617,2082.79198 L3000.736,2085.79127 L3006.73548,2085.79127 L3011.73504,2087.7908 L3014.73478,2083.79174 L3020.73425,2080.79244 L3028.73355,2071.79456 L3035.73294,2070.79479 L3032.73321,2073.79409 L3029.73347,2087.7908 L3029.73347,2094.78916 L3028.73355,2097.78846 L3042.73233,2089.79033 L3047.7319,2079.79268 L3049.73172,2086.79104 L3057.73102,2084.79151 L3052.73146,2090.7901 L3051.73155,2094.78916 L3044.73216,2092.78963 L3042.73233,2100.78775 L3040.73251,2111.78517 L3032.73321,2111.78517 L3028.73355,2108.78588 L3024.7339,2110.78541 L3023.73399,2102.78729 L3015.73469,2103.78705 L3016.7346,2109.78564 L3013.73486,2111.78517 L3013.73486,2116.784 L3005.73556,2116.784 L2997.73626,2124.78213 L2991.73679,2128.78119 L2984.7374,2131.78048 L2988.73705,2120.78306 L2995.73644,2119.7833 L2999.73609,2117.78377 L2996.73635,2114.78447 L2991.73679,2115.78424 L2991.73679,2112.78494 L2987.73713,2114.78447 L2983.73748,2111.78517 L2978.73792,2104.78682 L2972.73844,2106.78635 L2979.73783,2113.78471 L2978.73792,2116.784 L2978.73792,2119.7833 L2977.73801,2125.78189 L2977.73801,2132.78025 L2974.73827,2137.77908 L2965.73905,2137.77908 L2968.73879,2132.78025 L2965.73905,2126.78166 L2963.73923,2121.78283 L2967.73888,2112.78494 L2970.73862,2110.78541 L2964.73914,2108.78588 L2967.73888,2106.78635 L2967.73888,2102.78729 L2964.73914,2099.78799 L2963.73923,2090.7901 L2960.73949,2087.7908 L2957.73975,2091.78987 L2953.7401,2093.7894 L2949.74045,2091.78987 L2949.74045,2095.78893 L2953.7401,2101.78752 L2948.74054,2104.78682 L2944.74089,2100.78775 L2942.74106,2096.78869 L2939.74132,2099.78799 L2940.74124,2102.78729 L2943.74098,2105.78658 L2945.7408,2109.78564 L2948.74054,2116.784 L2942.74106,2116.784 L2936.74159,2119.7833 L2926.74246,2120.78306 L2924.74263,2116.784 L2921.7429,2112.78494 L2917.74325,2119.7833 L2916.74333,2112.78494 L2913.74359,2109.78564 L2911.74377,2105.78658 L2911.74377,2097.78846 L2909.74394,2094.78916 L2909.74394,2089.79033 L2902.74455,2081.79221 L2902.74455,2085.79127 L2905.74429,2092.78963 L2907.74412,2099.78799 L2907.74412,2105.78658 L2902.74455,2099.78799 L2900.74473,2094.78916 L2895.74517,2093.7894 L2899.74482,2098.78822 L2903.74447,2107.78611 L2908.74403,2117.78377 L2909.74394,2122.78259 L2903.74447,2123.78236 L2900.74473,2117.78377 L2895.74517,2111.78517 L2893.74534,2115.78424 L2890.7456,2112.78494 L2886.74595,2108.78588 L2881.74639,2112.78494 L2885.74604,2115.78424 L2889.74569,2118.78353 L2896.74508,2126.78166 L2893.74534,2128.78119 L2889.74569,2124.78213 L2882.7463,2120.78306 L2877.74674,2121.78283 L2881.74639,2126.78166 L2885.74604,2131.78048 L2880.74648,2129.78095 L2878.74665,2132.78025 L2885.74604,2136.77931 L2882.7463,2139.77861 L2873.74709,2136.77931 L2870.74735,2134.77978 L2871.74726,2140.77837 L2874.747,2142.7779 L2877.74674,2145.7772 L2877.74674,2150.77603 L2880.74648,2148.7765 L2880.74648,2153.77532 L2874.747,2154.77509 L2876.74682,2160.77368 L2869.74744,2158.77415 L2869.74744,2154.77509 L2863.74796,2156.77462 L2863.74796,2161.77345 L2867.74761,2165.77251 L2862.74805,2167.77204 L2857.74848,2163.77298 L2850.74909,2160.77368 L2854.74875,2166.77228 L2856.74857,2170.77134 L2853.74883,2175.77016 L2849.74918,2173.77063 L2841.74988,2172.77087 L2841.74988,2178.76946 L2846.74944,2176.76993 L2852.74892,2180.76899 L2854.74875,2185.76782 L2859.74831,2186.76759 L2863.74796,2198.76477 L2866.7477,2190.76665 L2873.74709,2191.76641 L2867.74761,2199.76454 L2864.74787,2210.76196 L2865.74779,2221.75938 L2858.7484,2228.75774 L2850.74909,2229.7575 L2848.74927,2224.75867 L2841.74988,2221.75938 L2838.75014,2216.76055 L2836.75032,2211.76172 L2829.75093,2211.76172 L2833.75058,2215.76078 L2834.75049,2221.75938 L2840.74997,2225.75844 L2840.74997,2232.7568 L2844.74962,2235.75609 L2846.74944,2240.75492 L2839.75005,2238.75539 L2833.75058,2237.75562 L2828.75102,2235.75609 L2823.75145,2230.75727 L2817.75198,2237.75562 L2815.75215,2234.75633 L2809.75267,2233.75656 L2808.75276,2230.75727 L2813.75232,2221.75938 L2805.75302,2225.75844 L2805.75302,2221.75938 L2808.75276,2216.76055 L2798.75363,2218.76008 L2802.75329,2211.76172 L2798.75363,2207.76266 L2792.75416,2207.76266 L2788.75451,2204.76336 L2788.75451,2210.76196 L2784.75486,2216.76055 L2781.75512,2209.76219 L2774.75573,2196.76524 L2774.75573,2207.76266 L2765.75652,2209.76219 L2765.75652,2212.76149 L2772.7559,2210.76196 L2776.75555,2215.76078 L2777.75547,2222.75914 L2777.75547,2227.75797 L2771.75599,2225.75844 L2769.75617,2221.75938 L2763.75669,2229.7575 L2759.75704,2224.75867 L2759.75704,2221.75938 L2755.75739,2218.76008 L2750.75782,2223.75891 L2754.75748,2227.75797 L2757.75721,2230.75727 L2753.75756,2233.75656 L2759.75704,2233.75656 L2759.75704,2237.75562 L2756.7573,2241.75469 L2752.75765,2238.75539 L2752.75765,2242.75445 L2753.75756,2249.75281 L2747.75809,2249.75281 L2744.75835,2251.75234 L2741.75861,2247.75328 L2741.75861,2244.75398 L2731.75948,2243.75422 L2730.75957,2240.75492 L2726.75992,2234.75633 L2724.76009,2242.75445 L2719.76053,2240.75492 L2719.76053,2246.75351 L2715.76088,2243.75422 L2714.76097,2249.75281 L2719.76053,2250.75258 L2717.76071,2253.75187 L2717.76071,2257.75093 L2708.76149,2259.75046 L2702.76202,2257.75093 L2700.76219,2253.75187 L2702.76202,2250.75258 L2699.76228,2247.75328 L2697.76245,2241.75469 L2691.76298,2244.75398 L2688.76324,2246.75351 L2693.7628,2260.75023 L2693.7628,2264.74929 L2688.76324,2265.74906 L2686.76341,2260.75023 L2687.76332,2256.75117 L2684.76359,2250.75258 L2686.76341,2245.75375 L2685.7635,2242.75445 L2683.76367,2239.75516 L2674.76446,2239.75516 L2671.76472,2244.75398 L2672.76463,2240.75492 L2673.76455,2233.75656 L2675.76437,2227.75797 L2677.7642,2221.75938 L2677.7642,2215.76078 L2672.76463,2219.75985 L2668.76498,2224.75867 L2665.76525,2233.75656 L2662.76551,2231.75703 L2663.76542,2227.75797 L2662.76551,2220.75961 L2656.76603,2221.75938 L2652.76638,2224.75867 L2650.76655,2215.76078 L2650.76655,2211.76172 L2643.76717,2213.76125 L2637.76769,2212.76149 L2639.76752,2206.76289 L2641.76734,2209.76219 L2646.7669,2208.76243 L2642.76725,2199.76454 L2631.76821,2203.7636 L2627.76856,2197.76501 L2624.76882,2199.76454 L2619.76926,2196.76524 L2621.76909,2201.76407 L2617.76944,2205.76313 L2616.76952,2199.76454 L2612.76987,2193.76594 L2608.77022,2190.76665 L2612.76987,2186.76759 L2616.76952,2184.76805 L2615.76961,2181.76876 L2617.76944,2177.7697 L2617.76944,2173.77063 L2613.76979,2176.76993 L2612.76987,2169.77157 L2607.77031,2170.77134 L2608.77022,2175.77016 L2600.77092,2174.7704 L2603.77066,2169.77157 L2596.77127,2170.77134 L2590.77179,2176.76993 L2590.77179,2179.76923 L2591.77171,2182.76852 L2584.77232,2182.76852 L2585.77223,2193.76594 L2585.77223,2200.7643 L2582.77249,2203.7636 L2577.77293,2205.76313 L2575.7731,2200.7643 L2575.7731,2193.76594 L2576.77302,2186.76759 L2571.77345,2182.76852 L2578.77284,2178.76946 L2578.77284,2173.77063 L2584.77232,2173.77063 L2589.77188,2167.77204 L2587.77205,2163.77298 L2588.77197,2160.77368 L2587.77205,2156.77462 L2581.77258,2156.77462 L2576.77302,2153.77532 L2576.77302,2147.77673 L2572.77336,2142.7779 L2567.7738,2141.77814 L2562.77424,2136.77931 L2558.77459,2133.78001 L2555.77485,2139.77861 L2549.77537,2129.78095 L2545.77572,2132.78025 L2540.77616,2131.78048 L2534.77668,2133.78001 L2533.77677,2130.78072 L2521.77782,2131.78048 L2520.7779,2136.77931 L2514.77843,2136.77931 L2515.77834,2142.7779 L2513.77852,2145.7772 L2511.77869,2153.77532 L2510.77878,2146.77697 L2506.77913,2142.7779 L2506.77913,2145.7772 L2507.77904,2154.77509 L2508.77895,2159.77392 L2505.77921,2163.77298 L2497.77991,2163.77298 L2488.7807,2158.77415 L2484.78105,2155.77486 L2480.7814,2157.77439 L2477.78166,2164.77274 L2473.78201,2167.77204 L2473.78201,2163.77298 L2467.78253,2164.77274 L2463.78288,2168.77181 L2457.7834,2163.77298 L2457.7834,2160.77368 L2460.78314,2157.77439 L2460.78314,2154.77509 L2450.78402,2154.77509 L2448.78419,2148.7765 L2444.78454,2153.77532 L2439.78498,2154.77509 L2443.78463,2158.77415 L2448.78419,2160.77368 L2442.78471,2164.77274 L2437.78515,2162.77321 L2437.78515,2159.77392 L2431.78567,2155.77486 L2431.78567,2149.77626 L2421.78655,2152.77556 L2411.78742,2154.77509 L2405.78794,2153.77532 L2400.78838,2149.77626 L2398.78856,2154.77509 L2393.78899,2151.77579 L2388.78943,2153.77532 L2389.78934,2158.77415 L2388.78943,2161.77345 L2386.7896,2157.77439 L2378.7903,2159.77392 L2378.7903,2163.77298 L2374.79065,2165.77251 L2377.79039,2170.77134 L2373.79074,2174.7704 L2372.79082,2178.76946 L2372.79082,2184.76805 L2367.79126,2187.76735 L2361.79179,2187.76735 L2357.79213,2185.76782 L2355.79231,2190.76665 L2353.79248,2185.76782 L2353.79248,2180.76899 L2346.79309,2177.7697 L2342.79344,2186.76759 L2342.79344,2191.76641 L2340.79362,2194.76571 L2334.79414,2193.76594 L2334.79414,2198.76477 L2337.79388,2202.76383 L2334.79414,2204.76336 L2336.79397,2207.76266 L2336.79397,2212.76149 L2329.79458,2211.76172 L2329.79458,2219.75985 L2327.79475,2222.75914 L2323.7951,2220.75961 L2325.79493,2217.76031 L2319.79545,2215.76078 L2315.7958,2217.76031 L2310.79624,2216.76055 L2304.79676,2212.76149 L2305.79667,2217.76031 L2298.79729,2217.76031 L2293.79772,2215.76078 L2285.79842,2218.76008 L2285.79842,2222.75914 L2290.79798,2225.75844 L2296.79746,2227.75797 L2295.79755,2234.75633 L2301.79702,2238.75539 L2298.79729,2240.75492 L2288.79816,2242.75445 L2286.79833,2245.75375 L2282.79868,2243.75422 L2272.79956,2249.75281 L2269.79982,2253.75187 L2259.80069,2251.75234 L2254.80113,2247.75328 L2247.80174,2251.75234 L2241.80226,2244.75398 L2241.80226,2254.75164 L2244.802,2258.7507 L2250.80148,2258.7507 L2246.80182,2266.74882 L2246.80182,2270.74788 L2252.8013,2269.74812 L2257.80086,2266.74882 L2263.80034,2266.74882 L2264.80025,2270.74788 L2259.80069,2274.74695 L2250.80148,2274.74695 L2242.80217,2273.74718 L2244.802,2280.74554 L2249.80156,2281.74531 L2254.80113,2288.74366 L2259.80069,2281.74531 L2263.80034,2284.7446 L2264.80025,2290.74319 L2268.7999,2287.7439 L2272.79956,2295.74202 L2265.80017,2295.74202 L2265.80017,2299.74108 L2255.80104,2303.74015 L2248.80165,2304.73991 L2238.80252,2303.74015 L2233.80296,2299.74108 L2220.80409,2300.74085 L2207.80523,2302.74038 L2200.80584,2302.74038 L2193.80645,2297.74155 L2184.80724,2290.74319 L2184.80724,2286.74413 L2191.80663,2285.74437 L2191.80663,2280.74554 L2183.80732,2280.74554 L2179.80767,2275.74671 L2177.80785,2279.74577 L2174.80811,2283.74484 L2170.80846,2286.74413 L2164.80898,2278.74601 L2160.80933,2271.74765 L2160.80933,2260.75023 L2158.80951,2255.7514 L2155.80977,2248.75304 L2154.80986,2242.75445 L2154.80986,2235.75609 L2148.81038,2230.75727 L2148.81038,2222.75914 L2144.81073,2217.76031 L2129.81204,2203.7636 L2116.81317,2203.7636 L2119.81291,2212.76149 L2115.81326,2221.75938 L2110.8137,2220.75961 L2109.81379,2214.76102 L2110.8137,2207.76266 L2108.81387,2202.76383 L2099.81466,2204.76336 L2093.81518,2199.76454 L2082.81614,2204.76336 L2081.81623,2210.76196 L2079.8164,2218.76008 L2073.81693,2222.75914 L2066.81754,2224.75867 L2066.81754,2230.75727 L2064.81771,2237.75562 L2065.81763,2241.75469 L2059.81815,2242.75445 L2056.81841,2234.75633 L2055.8185,2244.75398 L2047.8192,2248.75304 L2049.81902,2255.7514 L2043.81955,2254.75164 L2036.82016,2253.75187 L2037.82007,2260.75023 L2036.82016,2265.74906 L2025.82112,2265.74906 L2022.82138,2259.75046 L2010.82243,2262.74976 L2010.82243,2269.74812 L2004.82295,2274.74695 L1998.82348,2277.74624 L1994.82382,2270.74788 L1992.824,2273.74718 L1989.82426,2270.74788 L1978.82522,2270.74788 L1978.82522,2273.74718 L1974.82557,2276.74648 L1968.82609,2276.74648 L1968.82609,2272.74742 L1963.82653,2275.74671 L1957.82706,2281.74531 L1957.82706,2287.7439 L1952.82749,2288.74366 L1947.82793,2281.74531 L1939.82863,2292.74273 L1937.8288,2297.74155 L1941.82845,2300.74085 L1945.8281,2305.73968 L1937.8288,2310.7385 L1939.82863,2316.7371 L1931.82932,2315.73733 L1931.82932,2307.73921 L1925.82985,2316.7371 L1924.82994,2321.73592 L1918.83046,2320.73616 L1916.83063,2316.7371 L1911.83107,2314.73757 L1911.83107,2340.73147 L1914.83081,2345.7303 L1915.83072,2353.72842 L1910.83116,2355.72795 L1915.83072,2358.72725 L1913.8309,2363.72607 L1907.83142,2357.72748 L1905.83159,2360.72678 L1907.83142,2367.72514 L1902.83186,2364.72584 L1893.83264,2364.72584 L1889.83299,2367.72514 L1889.83299,2360.72678 L1888.83308,2356.72772 L1884.83343,2366.72537 L1885.83334,2369.72467 L1885.83334,2375.72326 L1886.83325,2381.72185 L1892.83273,2385.72091 L1887.83317,2392.71927 L1887.83317,2385.72091 L1883.83352,2388.72021 L1881.83369,2384.72115 L1877.83404,2370.72443 L1877.83404,2378.72256 L1875.83421,2389.71998 L1880.83378,2392.71927 L1875.83421,2396.71833 L1867.83491,2396.71833 L1864.83517,2387.72045 L1861.83544,2380.72209 L1862.83535,2387.72045 L1864.83517,2391.71951 L1864.83517,2397.7181 L1859.83561,2401.71716 L1859.83561,2396.71833 L1857.83579,2391.71951 L1854.83605,2385.72091 L1845.83683,2395.71857 L1840.83727,2387.72045 L1834.83779,2386.72068 L1832.83797,2389.71998 L1836.83762,2393.71904 L1834.83779,2398.71787 L1826.83849,2398.71787 L1823.83875,2396.71833 L1814.83954,2396.71833 L1805.84032,2392.71927 L1811.8398,2404.71646 L1803.8405,2404.71646 L1803.8405,2409.71529 L1802.84059,2414.71411 L1806.84024,2416.71364 L1801.84067,2425.71153 L1801.84067,2419.71294 L1793.84137,2419.71294 L1792.84146,2415.71388 L1783.84225,2414.71411 L1788.84181,2421.71247 L1791.84155,2432.70989 L1797.84102,2432.70989 L1800.84076,2440.70802 L1790.84163,2443.70731 L1783.84225,2434.70942 L1783.84225,2445.70684 L1778.84268,2450.70567 L1776.84286,2442.70755 L1771.84329,2449.7059 L1770.84338,2442.70755 L1769.84347,2435.70919 L1764.8439,2433.70966 L1760.84425,2435.70919 L1752.84495,2428.71083 L1751.84504,2432.70989 L1749.84521,2436.70895 L1752.84495,2444.70708 L1745.84556,2444.70708 L1748.41677,2453.70497 L1740.20606,2453.70497 L1738.84617,2436.70895 L1737.84626,2415.71388 L1732.8467,2450.70567 L1729.347,2453.70497 L1729.347,2453.70497 L1643.85447,2453.70497 L1643.85447,2464.70239 L1532.8687,2469.70122 L1532.8687,2455.7045 L1422.87376,2455.7045 L1422.87376,2470.70098 L1211.5487,2475.69218 L1211.5487,2475.69218 L1208.89244,2473.70028 L1204.89279,2470.70098 L1208.89244,2466.70192 L1202.89297,2463.70262 L1200.89314,2458.70379 L1195.89358,2453.70497 L1192.89384,2450.70567 L1190.89402,2457.70403 L1186.89436,2454.70473 L1183.89463,2458.70379 L1180.89489,2455.7045 L1177.89515,2452.7052 L1177.89515,2449.7059 L1183.89463,2449.7059 L1193.89375,2447.70637 L1196.89349,2444.70708 L1194.89367,2440.70802 L1200.89314,2435.70919 L1195.89358,2436.70895 L1194.89367,2427.71106 L1192.89384,2436.70895 L1189.8941,2438.70848 L1186.89436,2440.70802 L1182.89471,2440.70802 L1182.89471,2443.70731 L1178.89506,2437.70872 L1175.89533,2439.70825 L1174.89541,2443.70731 L1169.89585,2442.70755 L1169.89585,2439.70825 L1172.89559,2437.70872 L1172.89559,2434.70942 L1181.8948,2432.70989 L1186.89436,2429.7106 L1187.89428,2423.712 L1182.89471,2424.71177 L1187.89428,2419.71294 L1189.8941,2416.71364 L1189.8941,2410.71505 L1184.89454,2411.71482 L1179.89498,2415.71388 L1174.89541,2418.71318 L1173.8955,2422.71224 L1169.89585,2427.71106 L1164.89629,2424.71177 L1171.89567,2420.71271 C1171.89567,2420.71271 1167.89602,2417.71341 1171.89567,2416.71364 C1175.89533,2415.71388 1175.89533,2413.71435 1175.89533,2413.71435 L1175.89533,2406.71599 L1172.89559,2404.71646 L1162.89646,2406.71599 L1164.89629,2398.71787 L1163.89637,2394.7188 L1160.89663,2389.71998 L1158.89681,2394.7188 L1153.89725,2389.71998 L1153.89725,2382.72162 L1151.89742,2375.72326 L1158.89681,2375.72326 L1159.89672,2370.72443 L1166.89611,2373.72373 L1175.89533,2363.72607 L1176.89524,2358.72725 L1172.89559,2358.72725 L1172.89559,2354.72818 L1176.89524,2354.72818 L1176.89524,2348.72959 L1172.89559,2350.72912 L1169.89585,2347.72983 L1169.89585,2343.73076 L1176.89524,2339.7317 L1175.89533,2335.73264 L1168.89594,2334.73288 L1168.89594,2330.73381 L1171.89567,2326.73475 L1171.89567,2321.73592 L1166.89611,2318.73663 L1166.89611,2314.73757 L1169.89585,2312.73803 L1170.89576,2305.73968 L1164.89629,2305.73968 L1163.89637,2308.73897 L1160.89663,2312.73803 L1157.8969,2308.73897 L1158.89681,2303.74015 L1163.89637,2297.74155 L1170.89576,2297.74155 L1172.89559,2293.74249 L1174.89541,2290.74319 L1174.89541,2287.7439 L1171.89567,2285.74437 L1171.89567,2282.74507 L1170.89576,2278.74601 L1161.89655,2276.74648 L1156.89698,2273.74718 L1152.89733,2273.74718 L1147.89777,2276.74648 L1144.89803,2272.74742 L1136.89873,2272.74742 L1134.8989,2268.74835 L1128.89943,2268.74835 L1128.89943,2271.74765 L1124.89978,2272.74742 L1124.89978,2265.74906 L1116.90048,2259.75046 L1112.90083,2262.74976 L1108.90117,2265.74906 L1104.90152,2269.74812 L1098.90205,2272.74742 L1092.90257,2272.74742 L1091.90266,2268.74835 L1093.90248,2263.74953 L1095.90231,2258.7507 L1092.90257,2252.75211 L1091.90266,2246.75351 L1089.90283,2251.75234 L1086.90309,2258.7507 L1083.90336,2261.75 L1080.90362,2255.7514 L1080.90362,2248.75304 L1081.90353,2244.75398 L1075.90406,2244.75398 L1075.90406,2238.75539 L1077.90388,2231.75703 L1073.90423,2232.7568 L1073.90423,2226.7582 L1066.90484,2227.75797 L1064.90502,2232.7568 L1064.90502,2236.75586 L1061.90528,2232.7568 L1058.90554,2235.75609 L1053.90598,2234.75633 L1047.9065,2231.75703 L1042.90694,2223.75891 L1034.90763,2223.75891 L1033.90772,2218.76008 L1027.90825,2214.76102 L1023.9086,2216.76055 L1018.90903,2212.76149 L1016.90921,2218.76008 L1011.90964,2210.76196 L1010.90973,2213.76125 L1006.91008,2211.76172 L996.910952,2213.76125 L992.911301,2211.76172 L994.911127,2203.7636 L991.911389,2200.7643 L994.911127,2198.76477 L986.911825,2197.76501 L985.911912,2194.76571 L993.911214,2194.76571 L996.910952,2190.76665 L1006.91008,2191.76641 L1005.91017,2184.76805 L999.91069,2183.76829 L999.91069,2180.76899 L993.911214,2180.76899 L992.911301,2183.76829 L987.911738,2177.7697 L980.912349,2176.76993 L977.912611,2178.76946 L973.91296,2177.7697 L967.913484,2179.76923 L959.914182,2179.76923 L956.914444,2172.77087 L952.914793,2172.77087 L952.914793,2162.77321 L956.914444,2159.77392 L960.914095,2163.77298 L960.914095,2155.77486 L966.913571,2150.77603 L960.914095,2149.77626 L958.91427,2142.7779 L952.914793,2136.77931 L947.91523,2139.77861 L942.915666,2142.7779 L937.916103,2137.77908 L938.916016,2130.78072 L935.916278,2125.78189 L932.916539,2120.78306 L931.916627,2115.78424 L919.917674,2114.78447 L919.917674,2121.78283 L911.918373,2125.78189 L911.918373,2129.78095 L905.918897,2141.77814 L902.919159,2153.77532 L902.919159,2156.77462 L902.919159,2163.77298 L897.919595,2162.77321 L896.919682,2156.77462 L898.919508,2152.77556 L887.920468,2151.77579 L880.921079,2152.77556 L880.921079,2158.77415 L877.921341,2164.77274 L873.92169,2158.77415 L863.922563,2142.7779 L857.923087,2135.77955 L846.924047,2136.77931 L846.924047,2145.7772 L843.924309,2150.77603 L844.924222,2154.77509 L840.924571,2157.77439 L837.924833,2154.77509 L838.924746,2147.77673 L833.925182,2141.77814 L833.925182,2132.78025 L824.925968,2126.78166 L817.926579,2129.78095 L812.927016,2129.78095 L816.926666,2133.78001 L821.92623,2133.78001 L820.926317,2137.77908 L816.926666,2140.77837 L820.926317,2143.77767 L821.92623,2150.77603 L818.926492,2154.77509 L824.925968,2154.77509 L824.925968,2158.77415 L822.926143,2163.77298 L817.926579,2160.77368 L818.926492,2157.77439 L815.926754,2154.77509 L815.926754,2151.77579 L812.927016,2148.7765 L807.927452,2148.7765 L807.927452,2153.77532 L809.927278,2158.77415 L801.927976,2152.77556 L805.927627,2159.77392 L799.928151,2158.77415 L800.928063,2162.77321 L795.9285,2160.77368 L797.928325,2163.77298 L792.928762,2169.77157 L799.928151,2171.7711 L796.928413,2174.7704 L799.928151,2178.76946 L798.928238,2182.76852 L792.928762,2182.76852 L788.929111,2182.76852 L796.928413,2187.76735 L792.928762,2188.76712 L788.929111,2190.76665 L791.928849,2192.76618 L795.9285,2194.76571 L793.928674,2198.76477 L788.929111,2198.76477 L785.929373,2201.76407 L780.929809,2202.76383 L777.930071,2195.76547 L770.930682,2198.76477 L766.931032,2195.76547 L766.931032,2192.76618 L761.931468,2192.76618 L755.931992,2195.76547 L755.931992,2187.76735 L752.932254,2193.76594 L748.932603,2194.76571 L749.932516,2198.76477 L749.932516,2203.7636 L753.932166,2203.7636 L753.932166,2207.76266 L754.932079,2212.76149 L750.932428,2212.76149 L750.932428,2206.76289 L745.932865,2200.7643 L741.933214,2197.76501 L738.933476,2195.76547 L736.933651,2192.76618 L732.934,2193.76594 L726.934524,2194.76571 L722.934873,2197.76501 L718.935222,2201.76407 L718.935222,2205.76313 L720.935047,2210.76196 L716.935397,2218.76008 L718.935222,2222.75914 L718.935222,2227.75797 L718.935222,2232.7568 L714.935571,2229.7575 L708.936095,2228.75774 L706.93627,2225.75844 L705.936357,2221.75938 L705.936357,2209.76219 L703.936532,2205.76313 L698.936968,2204.76336 L694.937317,2206.76289 L690.937667,2205.76313 L687.937928,2200.7643 L680.93854,2199.76454 L678.938714,2204.76336 L678.938714,2210.76196 L675.938976,2206.76289 L671.939325,2203.7636 L671.939325,2209.76219 L675.938976,2214.76102 L673.939151,2218.76008 L670.939413,2216.76055 L670.939413,2210.76196 L662.940111,2213.76125 L662.940111,2218.76008 L662.940111,2222.75914 L666.939762,2220.75961 L666.939762,2225.75844 L672.939238,2225.75844 L672.939238,2229.7575 L680.93854,2228.75774 L682.938365,2232.7568 L677.938801,2236.75586 L675.938976,2242.75445 L671.939325,2243.75422 L666.939762,2246.75351 L666.939762,2238.75539 L664.939936,2233.75656 L661.940198,2235.75609 L657.940547,2238.75539 L656.940635,2241.75469 L649.941246,2233.75656 L652.940984,2230.75727 L656.940635,2230.75727 L656.940635,2226.7582 L661.940198,2230.75727 L660.940286,2222.75914 L660.940286,2219.75985 L656.940635,2219.75985 L652.940984,2219.75985 L654.940809,2215.76078 L659.940373,2215.76078 L657.940547,2210.76196 L652.940984,2213.76125 L655.940722,2208.76243 L652.940984,2206.76289 L647.94142,2210.76196 L643.94177,2210.76196 L641.941944,2206.76289 L641.941944,2202.76383 L637.942294,2202.76383 L636.942381,2209.76219 L632.94273,2212.76149 L624.943428,2212.76149 L621.94369,2209.76219 L615.944214,2202.76383 L624.943428,2193.76594 L628.943079,2183.76829 L626.943254,2177.7697 L618.943952,2179.76923 L615.944214,2174.7704 L613.944389,2171.7711 L610.944651,2173.77063 L610.944651,2181.76876 L607.944913,2183.76829 L607.944913,2189.76688 L603.945262,2196.76524 L600.945524,2201.76407 L597.945786,2198.76477 L599.945611,2193.76594 L594.946047,2193.76594 L592.946222,2189.76688 L591.946309,2184.76805 L596.945873,2182.76852 L603.945262,2177.7697 L608.944825,2173.77063 L613.944389,2166.77228 L609.944738,2165.77251 L606.945,2169.77157 L602.945349,2169.77157 L599.945611,2173.77063 L597.945786,2169.77157 L604.945174,2164.77274 L598.945698,2165.77251 L598.945698,2161.77345 L603.945262,2157.77439 L606.945,2152.77556 L601.945436,2143.77767 L596.945873,2143.77767 L592.946222,2143.77767 L591.946309,2138.77884 L592.946222,2130.78072 L586.946746,2129.78095 L585.946833,2134.77978 L582.947095,2138.77884 L580.94727,2142.7779 L576.947619,2146.77697 L569.94823,2146.77697 L566.948492,2150.77603 L559.949103,2148.7765 L564.948667,2153.77532 L568.948317,2154.77509 L571.948055,2157.77439 L570.948143,2160.77368 L566.948492,2160.77368 L562.948841,2159.77392 L561.948928,2163.77298 L561.948928,2168.77181 L566.948492,2169.77157 L564.948667,2174.7704 L559.949103,2174.7704 L559.949103,2177.7697 L566.948492,2178.76946 L569.94823,2180.76899 L570.948143,2183.76829 L569.94823,2186.76759 L565.948579,2183.76829 L565.948579,2187.76735 L562.948841,2192.76618 L555.949452,2189.76688 L555.949452,2192.76618 L550.949889,2192.76618 L550.949889,2188.76712 L548.950063,2184.76805 L539.950849,2184.76805 L539.950849,2180.76899 L539.950849,2175.77016 L546.950238,2172.77087 L539.950849,2169.77157 L540.950762,2157.77439 L535.951198,2160.77368 L533.951373,2155.77486 L529.951722,2158.77415 L524.952159,2156.77462 L522.952333,2153.77532 L523.952246,2147.77673 L523.952246,2142.7779 L519.952595,2138.77884 L515.952944,2143.77767 L514.953032,2146.77697 L513.953119,2151.77579 L508.953555,2151.77579 L512.953206,2139.77861 L506.95373,2143.77767 L506.95373,2133.78001 L501.954167,2137.77908 L505.953817,2126.78166 L502.954079,2124.78213 L498.954428,2129.78095 L494.954778,2131.78048 L492.954952,2126.78166 L488.955301,2126.78166 L488.955301,2122.78259 L484.955651,2124.78213 L494.954778,2104.78682 L491.95504,2112.78494 L492.954952,2115.78424 L500.954254,2113.78471 L497.954516,2110.78541 L501.954167,2105.78658 L505.953817,2105.78658 L504.953905,2111.78517 L505.953817,2115.78424 L501.954167,2116.784 L503.953992,2120.78306 L509.953468,2119.7833 L511.953294,2115.78424 L513.953119,2119.7833 L517.95277,2119.7833 L517.95277,2123.78236 L512.953206,2125.78189 L512.953206,2128.78119 L523.952246,2128.78119 L527.951897,2123.78236 L533.951373,2115.78424 L530.951635,2108.78588 L530.951635,2104.78682 L524.952159,2104.78682 L523.952246,2101.78752 L522.952333,2098.78822 L527.951897,2096.78869 L524.952159,2094.78916 L519.952595,2094.78916 L513.953119,2095.78893 L513.953119,2091.78987 L523.952246,2091.78987 L526.951984,2088.79057 L521.952421,2080.79244 L518.952682,2077.79315 L512.953206,2081.79221 L509.953468,2074.79385 L513.953119,2077.79315 L518.952682,2072.79432 L514.953032,2065.79596 L514.953032,2059.79737 L509.953468,2054.79854 L503.953992,2054.79854 L501.954167,2057.79784 L497.954516,2057.79784 L497.954516,2060.79714 L494.954778,2063.79643 L491.95504,2060.79714 L485.955563,2062.79667 L485.955563,2057.79784 L489.955214,2054.79854 L486.955476,2051.79925 L482.955825,2049.79972 L484.955651,2043.80112 L488.955301,2041.80159 L488.955301,2036.80276 L485.955563,2033.80347 L483.955738,2038.80229 L478.956174,2038.80229 L478.956174,2033.80347 L480.956,2030.80417 L476.956349,2026.80511 L471.956786,2030.80417 L467.957135,2027.80487 L464.957397,2032.8037 L459.957833,2029.80441 L459.957833,2026.80511 L461.957659,2023.80581 L458.957921,2021.80628 L454.95827,2023.80581 L450.958619,2017.80722 L446.958968,2014.80792 L445.959055,2011.80863 L440.959492,2011.80863 L439.959579,2006.8098 L435.959928,2004.81027 L435.959928,2009.8091 L431.960278,2009.8091 L427.960627,2010.80886 L425.960801,2014.80792 L422.961063,2009.8091 L426.960714,2005.81003 L422.961063,2004.81027 L418.961413,2005.81003 L418.961413,2009.8091 L415.961675,2003.8105 L410.962111,2003.8105 L411.962024,2007.80957 L407.962373,2007.80957 L406.96246,2003.8105 L404.962635,2010.80886 L401.962897,2002.81074 L399.963071,1998.81168 L400.962984,2008.80933 L396.963333,2002.81074 L394.963508,2005.81003 L391.96377,2003.8105 L392.963682,1999.81144 L395.963421,1997.81191 L394.963508,1992.81308 L399.963071,1991.81332 L389.963944,1985.81472 L385.964294,1979.81613 L381.964643,1983.81519 L378.964905,1986.81449 L374.965254,1980.8159 L370.965603,1982.81543 L370.965603,1989.81379 L365.96604,1989.81379 L363.966214,1984.81496 L363.966214,1980.8159 L357.966738,1977.8166 L353.967087,1974.8173 L355.966913,1970.81824 L348.967524,1970.81824 L348.967524,1976.81684 L342.968048,1978.81637 L343.96796,1974.8173 L342.968048,1970.81824 L340.968222,1976.81684 L337.968484,1979.81613 L335.968659,1976.81684 L327.969357,1976.81684 L323.969706,1975.81707 L323.969706,1971.81801 L319.970055,1972.81777 L321.969881,1967.81895 L313.970579,1968.81871 L308.971016,1972.81777 L304.971365,1973.81754 L304.971365,1968.81871 L301.971627,1970.81824 L301.971627,1964.81965 L296.972063,1964.81965 L292.972413,1968.81871 L287.972849,1969.81848 L287.972849,1963.81988 L294.972238,1957.82129 L290.972587,1955.82176 L287.972849,1958.82106 L282.973286,1961.82035 L276.973809,1956.82153 L277.973722,1951.8227 L276.973809,1947.82364 L273.974071,1941.82504 L269.974421,1939.82551 L267.974595,1934.82669 L266.974682,1937.82598 L266.974682,1943.82457 L265.97477,1948.8234 L261.975119,1952.82246 L258.975381,1948.8234 L255.975643,1946.82387 L252.975905,1948.8234 L249.976167,1946.82387 L246.976429,1948.8234 L242.976778,1945.82411 L243.97669,1939.82551 L248.976254,1941.82504 L248.976254,1936.82622 L251.975992,1933.82692 L243.97669,1930.82762 L242.976778,1926.82856 L234.977476,1926.82856 L231.977738,1923.82927 L226.978175,1923.82927 L225.978262,1927.82833 L222.978524,1930.82762 L220.978698,1927.82833 L219.978786,1935.82645 L214.979222,1936.82622 L213.979309,1928.82809 L215.979135,1917.83067 L210.979571,1922.8295 L208.979746,1916.83091 L210.979571,1911.83208 L205.980008,1908.83278 L200.980444,1909.83255 L197.980706,1916.83091 L197.980706,1920.82997 L194.980968,1914.83138 L188.981492,1913.83161 L189.981405,1917.83067 L187.981579,1920.82997 L185.981754,1928.82809 L182.982016,1933.82692 L179.982278,1926.82856 L180.98219,1921.82973 L176.98254,1918.83044 L173.982802,1915.83114 L168.983238,1915.83114 L164.983587,1920.82997 L164.983587,1924.82903 L162.983762,1920.82997 L155.984373,1918.83044 L151.984722,1915.83114 L149.984897,1920.82997 L153.984548,1922.8295 L150.984809,1926.82856 L142.985508,1926.82856 L142.985508,1922.8295 L143.985421,1918.83044 L138.985857,1917.83067 L137.985944,1921.82973 L129.986643,1920.82997 L125.986992,1916.83091 L122.987254,1919.8302 L113.98804,1919.8302 L112.988127,1914.83138 L108.988476,1914.83138 L103.988913,1910.83231 L99.9892619,1908.83278 L91.9899603,1907.83302 L83.9906587,1906.83325 L81.9908333,1903.83396 L76.9912698,1901.83442 L75.9913571,1904.83372 L71.9917063,1900.83466 L66.9921428,1900.83466 L60.9926666,1901.83442 L55.9931032,1895.83583 L51.9934524,1895.83583 L46.9938889,1897.83536 L42.9942381,1896.8356 L39.9945,1892.83654 L33.9950238,1891.83677 L30.9952857,1895.83583 L25.9957222,1896.8356 L24.9958095,1891.83677 L21.9960714,1889.83724 L16.9965079,1891.83677 L15.9965952,1896.8356 L11.9969444,1896.8356 L9.99711904,1891.83677 L-0.00200794163,1886.83794 L-19.0130463,2548.82053 L-23,2548.82053 L-23,2739.05167 L4125.63778,2739.05167 L4125.63778,2609 L4126,2609 L4125.63778,2608.09343 L4125.63778,2586.42057 L4132,2588 L4125,1801 L4118,1804 L4118,1814 L4110,1814 L4108,1820 L4114,1827 L4094,1827 L4092,1839 L4081,1843 L4076,1837 L4083,1837 L4086,1823 L4082,1823 L4086,1816 L4085,1808 L4089,1802 L4080,1802 L4070,1794 L4058,1796 L4058,1804 L4058,1814 L4047,1816 L4047,1809 L4040,1809 L4038,1823 L4054,1835 L4042,1840 L4037,1840 L4036,1834 L4021,1838 L4026,1852 L4023,1862 L4013,1867 L4010,1858 L4019,1857 L4020,1845 L4013,1845 L4013,1830 L4022,1827 L4016,1823 L4020,1822 L4008,1813 L4001,1813 L4008,1821 L4008,1825 L4004,1827 L4003,1840 L3987,1833 L3974,1829 L3968,1839 L3968,1844 L3954,1850 L3959,1855 L3947,1867 L3942,1872 L3942,1861 L3931,1861 L3926,1850 L3929,1846 L3912,1843 L3912,1839 L3907,1845 L3912,1854 L3913,1863 L3911,1865 L3908,1865 L3908,1857 L3897,1857 L3895,1864 L3900,1878 L3889,1889 L3884,1879 L3884,1870 L3874,1871 L3870,1864 L3860,1873 L3866,1875 L3868,1886 L3863,1890 L3861,1898 L3852,1898 L3851,1890 L3856,1889 L3857,1885 L3846,1886 L3836.02318,1889.83724 Z" id="Path-11" sketch:type="MSShapeGroup"></path>
        </g>
    </g>
</svg>