<svg width="4120" height="979" viewBox="0 0 4120 979" xmlns="http://www.w3.org/2000/svg"><title>Group Copy</title><path d="M3836.023 130.837h-3.36l-5-4 2-3.998h4l-5-7-2 4-3-1h-4.998l2-4-5-2.998 5-2-7-2-2-4.998-3-4 1-5.998h-5l-3 4-5.998 4.998 2 4v5.998l4 1-5 4.998-4 5 2 4.998-5 8.998 8 10.997h8l4.998 2 2 5.998-3 5-3-5.998-7-2-4.998-5h-3l-2-4.998-13-3 6 10 4 3.998 5 5.998-5 3-3-4v-5.998l-4 5-4 1.998-4.998 1 4.998-4 1-5.997-3-2-6-5-1 6 3 2-2 7.997 3 8.998-6-3-2.998-3.998-5 2 2-6h-7v7l-3 3 4 7.997-3 5-2-4h-7l-1 4.998 4-2 3 3-5 4h5v5.998l-4 5 2 3.998 3 1-3 7-3-4-5.998-3-3-2 5-2.998-11-6-2 4-1 6.998 4 6-3 5.998-2 5.998-4 3v5.998h3l-2 6 5 1.998-2 5h-3v12.996h5l-3 4 4 2.998-1 10.998v5.998l-8-2-2.998 3-3 6.998-1-5.998h-3l-2 7.998-5-3v-11.997h-5v-10.997l-4.998 1-2 6.998h4l-8 3-5-3-5-1 3-6.998 4-4h-7l-2.998-10.996-1-5-5-3.998-3 2-5-2-6-8.998v-10.998h-3.998l-3 7 4 5.997 5 5 3 5.998h-9l-9-6.998h-4l5 6 1 4.998-4 3v9.997l5 2 1 4.998-3 4-2 4.998-5-6.998-1-7h-5l3 7-4.998 1 4 9.997-6 3-2 4.998h-3l-6 3-2-6-6-1-10.998 1 3-5.998-4-7.998-1-8.998-4-1-5-7.998-4.998 4-6 6.998-6 5-1 4.997h-5l-4.998 5-3 5.998h-4l-3 6v5.998l-6 1 4-3-3-5.998 4-3-7-3-1-4.997-4.998-5-2-3.998-5-1 3-3 2-4.998 4-3 3-2-2-5.998-3 4.998-5 1-5 5-4 1.998-4.998 4 9 1-4 2.998-1 6h-3l-4 1h-4l-2-5-5-1-3 3v-7l4-1.998 2-5 5 4-2-7.998v-6l-4 2-1-4.998 3-1-4-2-3-3-2 8h-3l-1.998 5.998-3 3 2 3.998h4l1 11.997-4 1 1-10.997h-5l-1 5-7-10 2 8v5.998l-3 4 4 1.998 1 9.998-2 5-4-2 1-5-3-8.997h-4l3-5-4-4.998-2.998 1-2-5-4-10.997v8.998l1 5-1 4.998-7 3 5 6.998-3 3-4-1h-4l-2.998 3.998-6-4 3-3.998-4-1v-6.998l-3-5-6-3.998-2-8.998h8l4-2v-8.997l-3 5-4 2-4-1 2-6h-7.998l-6 1-1-4.998 8-1v-6h5l-1-8.997-5 6h-4l-3 4.998-1-5-7-1-4-1v6l5 2-3 2-5.998-3 4 5v5.997h-3l-6-3 3 5-3 3-5-2 1 8.997-4-5.998-3-3 2-5h-3l-5.998 6h4l4 3 1 4.997h-3l-5-2-1 5-5-5-6-2.998 6 7.997-5 4 7 1-5 4.997 1 7 5-3 6-1 6 1 3 1-9 2-5 1.998-1 5h5l-6 2.998-5 1-3-1v-6.998l-3 2-3-5-6.998-3 5 7-3 5.998-4-1-4 6 3 1 2 3.998 6-3-2 5-7-2-3-2-3 4 3 8.997-3 6h7l-2 4.998-1 5v6.997l-5 2-5-1-3.998-7.998-3 4-5 1.998-6 2-6 5.998-3.998 6-3-1v-7l8-1-5-1.998h-4l4-3v-5.998l3-4-6 4-3-3-3 3-6 3 2 3.998-4 2 4 3v6.997h3l1 7.998-5 1 1 7-4-3-4.998 2-1 5.997-3-3-2 6-3-1-1 8.998-3 5.998-3 4v-7l-5-1.998-3.998 2-5-4-4-3 5 8v6.997l-2 5 4 1-3 4.998-1 5.998-5 1h-6l-3.998 1 2 6.998-4-1-4-.998h-6v5.998l3 6-7-2h-6l1 5.998 5 3 5 5.998-7 2v5.998l-3-1-6.998-6-7 4 6 3-7 1 4 7.998-8 2-8.998 2 2 3.998 3 1-1 8.998-1 8.997h-4l-1-9.997-2 8.998-5-2 3-5.998-4 1-3-1-5 4.998-1.998-5.998v5.998l-6 2-3-6.998v7.998l-3-6-1.636 1.637-1.363-1.636 2-4-1-5.998-2-7-3-7.997 3-6-10 1-1-4.998-8.998 5-2-4-3 6.998-6-7.998-7 2h-5.998l4-6 3-4.998 13.998-6.998-14 2.998v-6.998l-9.998-1-3 7-13.998.998 2.998-11.997 8-7.997 12.998-4 7-2h10l10.998 1v7l11-8v-4.997h6v4.998l.998 3-1 5 5-2 4 2.998-3 5 3 2.998 6 1 7 3 1.998 4h14v-4l9.998-2v-4l5-4.998v-6l-8-3.998 5-8.998-7-4-2 5-4-7.998-11.998 4 6-6 4-3.998 7-3v-4l1-2.998-6-6-3 6-3-6-5-2.998-5-7.998v-6h-8l-3.998-3.998 8-1 5-4.998 1.998-4-7-4.998h6l7-1 3-4-4-4.998-2-5 1-3.998 4-5-3-5.997-3-4-2-4-1 9-3 3.998-3-8.998-1 5.998-5.998 5-1-3 3-4V290.8h-7l-1 6.998-4-2-1 5h-7l-1-4-5.998 3v-3h-9l-4 4v-6l-11.998 2V306.796l13 1-13 5v4.997h-7l-7 2-1-3 3-7.998-5.998-2 1-4.998 5-4V294.8l3-6 5.998-6.998 11-7.998 11.998-6-1-4.998-9-1-9.998-4v-2.998h10l7 3 6.998 3 6-1 2-6 6 4 5.998-2-3-3v-3.998l8 2 3-6H3187.72v-4l1-3.998 2-4.998-3-2-2-5-1-3.998-2-5.998v-3l-6-5.998h-10.998v5.998l3 2v5h-7l-1 3.998-4-2h-6l-5 2h-6.998v-6l12-1v-4.998l-2-4.998-2-7.998-7-4-5-3h-6v4l-7.998 3 1-3 2-4-1-6.997-9-7.998v-7l-3-4.997v-5l-6 2-7.998-5.998-5 6.998v-6l-2-6.997-9 2-2 7.998-1-5.998-8.998-6.998-1 5-9 .998-7.998-1-5 8-4-3-5 3-2 2.998h-6.998l6-4-12 1v5l-11 6.998-10.998-1v6l-5-2-3 6.998 7 10.997-1 6.998 12 11v6.997l-6 1-6 3h-7l-3-10-3 9 5 4.998v3l-9.998-2-2 4-4-3-1-4-3-2-3 6v3l-8.998-3-1 3-1 6.997 7 8.998v3l6 3 1 5.997 5.998-2 5 2 4 4 5 3 6.998 1 5 2.998 1 3 1 2.998-3 2 3 5-4 3.998-5-2-3 4-3 4 11 1 7-2 6-2 5.998 4v5.998l-4 2 2 8.997-7-2-5.998 2-2 7.998-4-8.998-4 9.998 3-2 2 3v4l2 2.998h6l5 2 3-3.998 5.998-3 8-8.997 7-1-3 3-3 13.996v7l-1 2.998 13.998-7.998 5-9.997 2 6.998 8-1.998-5 5.998-1 4-7-2-2 7.998-2 10.997h-8l-3.998-3-4 2-1-7.998-8 1 1 6-3 1.998v5h-7.998l-8 7.997-6 4-7 2.998 4-10.997 7-1 4-2-3-3-5 1v-2.998l-4 2-4-3-4.998-6.998-6 2 7 6.998-1 3v2.998l-1 6v6.997l-3 5h-9l3-5-3-5.998-2-5 4-8.997 3-2-6-2 3-2v-3.998l-3-3-1-8.997-3-3-2.998 4-4 2-4-2v4l4 5.998-5 3-4-4-2-4-3 3 1 3 3 3 2 3.998 3 6.998h-6l-5.998 3-10 1-2-4-3-4-4 7-1-7-2.998-2.998-2-4v-7.998l-2-3v-4.998l-7-7.998v4l3 6.998 2 6.998v6l-5-6-2-5-5-1 4 5 4 8.998 5 9.998 1 5-6 .998-3-5.998-5-6-2 4-2.998-3-4-3.998-5 4 4 2.998 4 3 7 7.998-3 2-4-4-7-4-5 1 4 5 4 4.998-5-2-2 3 7 4-3 3-9-3-3-2 1 5.998 3 2 3 3v4.998l3-2v5l-6 1 2 5.998-7-2v-4l-5.998 2v5l4 4-5 1.998-5-4-7-2.998 4 5.998 2 4-3 4.998-4-2-7.998-1v6l5-2 6 4 2 4.998 4.998 1 4 11.997 3-7.998 7 1-6 7.998-3 10.997 1 10.997-7 6.998-8 1-2-5-6.998-3-3-4.997-2-4.998h-7l4 4 1 5.997 6 3.998v7l4 2.998 2 5-7-2-6-1-5-2-5-5-5.998 7-2-3-6-1-1-3 5-8.997-8 3.998v-4l3-4.997-9.998 2 4-6.998-4-4h-6l-4-3v6l-4 6-3-7-6.998-12.997v10.998l-9 2v2.998l7-1.998 4 5 1 6.997v4.998l-6-2-2-4-6 8-4-5v-3l-4-2.998-4.998 5 4 3.998 3 3-4 3h6v3.998l-3 4-4-3v3.998l1 7h-6l-3 1.998-3-4v-2.998l-10-1-.998-3-4-5.998-2 7.998-5-2v6l-4-3-1 6 5 1-2 2.998v4l-9 1.998-5.998-2-2-3.998 2-3-3-3-2-5.997-6 3-3 2 5 13.995v4l-5 1-2-5 1-4-2.998-5.997 2-5-1-3-2-2.998h-9l-3 5 1-4 1-6.998 2-6 2-5.998v-6l-5 4-4 5-3 8.997-2.998-2 1-4-1-6.997-6 1-4 3-2-9v-3.998l-7 2-5.998-1 2-6 2 3 5-1-4-8.997-11 4-4-6-3 2-5-3 2 5-4 3.998-.998-5.998-4-6-4-2.998 4-4 4-2-1-2.998 2-4v-4l-4 3-1-6.998-5 1 1 4.998-8-1 3-4.998-7 1-5.998 5.998v3l1 3h-7l1 10.996v6.998l-3 3-5 2-2-5v-6.998l1-6.998-5-4 7-4v-4.997h6l5-5.998-2-4 1-2.998-1-4h-6l-5-3v-5.997l-4-5-4.998-1-5-4.998-4-3-3 6-6-10-3.998 3-5-1-6 2-1-3-11.998 1-1 5h-6l1 5.998-2 3-2 7.997-1-6.998-4-4v3l1 8.998 1 5-3 3.998h-7.998l-9-5-4-2.998-4 2-2.998 6.998-4 3v-4l-6 1-4 4-6-5v-3l3-3v-2.998h-9.998l-2-6-4 5-5 1 4 4 5 2-6 3.998-5-2v-3l-5.998-3.998v-6l-10 3-10 2-5.998-1-5-4-2 5-5-3-5 2 1 5-1 2.998-1.998-4-8 2v4l-4 2 3 4.998-4 4-1 4v5.998l-5 3h-5.998l-4-2-2 5-2-5v-5l-7-2.998-4 8.998v4.998l-1.998 3-6-1v5l3 3.998-3 2 2 3v4.997l-7-.998v7.998l-2 3-4-2 2-3-6-2-3.998 2-5-1-6-4 1 5h-7l-4.998-2-8 3v4l5 2.998 6 2-1 6.998 6 4-3 2-10 1.998-2 3-4-2-9.998 6-3 3.998-10-2-5-4-6.998 4-6-6.998v9.998l3 4h6l-4 7.997v3.998l6-1 5-3h5.998l1 4-5 4h-9l-7.998-1 2 6.998 5 1 5 6.998 5-7 3.998 3 1 6 4-3 4 7.998h-7v4l-10 3.998-6.998 1-10-1-5-4-12.998 1-13 2h-6.998l-7-4.998-9-7v-3.998l7-1v-4.998h-8l-3.998-5-2 4-3 4-4 2.998-6-7.998-4-6.998V501.75l-1.998-5-3-6.997-1-6v-6.997l-6-5v-7.997l-4-5-14.998-13.996h-13l3 8.997-4 9-4.998-1-1-6 1-6.997-2-5-9 2-6-4.998-10.998 4.998-1 6-2 7.997-6 4-6.998 2v5.997l-2 7 1 3.998-6 1-3-8-1 10-8 3.998 2 6.998-5.998-.998-7-1 1 6.998-1 5h-11l-3-6-11.998 3v6.998l-6 5-6 2.998-3.998-6.998-2 3-3-3h-11v3l-3.998 2.998h-6v-4l-5 3-6 6v5.998l-5 1-4.998-7-8 11-2 4.998 4 3 4 4.998-8 4.998 2 6-8-1v-8l-5.998 9-1 4.998-6-1-2-4-5-1.998v25.993l3 5 1 7.998-5 2 5 3-2 4.998-6-6-1.998 3 2 7-5-3h-9l-4 3v-7l-1-3.998-4 9.997 1 3v5.998l1 6 6 3.998-5 7v-7l-3.998 3-2-4-4-13.996v8l-2 10.996 5 3-5 3.998h-8l-3-8.998-3-6.998 1 6.998 2 4v5.998l-4.998 4v-5l-2-4.998-3-6-9 10-5-8-5.998-1-2 3 4 4-2 4.998h-8l-3-2h-8.998l-9-4 6 11.998h-8v5l-1 4.998 4 2-5 8.998v-6h-8l-1-3.998-8.998-1 5 6.998 3 10.998h6l3 7.998-10 3-7-9v11l-5 4.998-2-7.998-5 6.998-1-6.998-1-7-4.998-1.998-4 2-8-7-1 4-2 4 3 7.997h-6.998l2.57 8.998h-8.21l-1.36-16.996-1-20.996-5 34.992-3.5 3h-85.492V705.7l-110.985 5v-13.998h-109.996V711.7l-211.325 4.992-2.658-1.992-4-3 4-3.998-6-3-2-4.998-4.998-5-3-2.998-2 6.998-4-3-3 4-3-3-3-3v-2.998h6l10-2 3-3-2-3.998 6-5-5 1-1-8.997-2 9-3 1.998-3 2h-4v3l-4-6-3 2-1 4-4.998-1v-3l3-2v-3l9-1.998 4.998-3 1-5.998-5 1 5-5 2-2.998v-6l-5 1-5 4-5 3-.998 3.998-4 5-5-3 7-4s-4-3 0-3.998c4-1 4-3 4-3v-6.998l-3-2-10 2 2-7.998-1-4-3-4.998-2 5-5-5v-6.998l-2-7h7l1-4.998 7 3 9-9.998 1-5h-4v-3.998h4v-5.998l-4 2-3-3v-4l7-3.998-1-4-7-1v-3.998l3-4v-4.998l-5-3v-3.998l3-2 1-6.998h-6l-1 3-3 3.998-3-4 1-4.998 5-5.998h7l2-4 2-3v-2.998l-3-2v-3l-1-3.998-9-2-5-3h-4l-4.998 3-3-4h-8l-2-3.998h-6v3l-3.998 1v-7l-8-5.998-4 3-4 3-3.998 3.998-6 3h-6l-1-4 2-4.998 2-5-3-5.998-1-5.998-2 4.998-3 7-3 2.998-2.998-6v-6.997l1-4h-6v-5.998l2-6.998-4 1v-6l-7 1-2 5v4l-3-4-2.998 3-5-1-6-3-5-7.998h-7.998l-1-5-6-4-4 2-5-4-2 6-4.998-7.998-1 3-4-2-10 2-4-2 2-7.998-3-3 3-2-7.998-1-1-2.998h8l3-4 9.998 1-1-6.998-6-1v-3h-6l-1 3-4.998-5.998-7-1-3 2-4-1-6 2h-7.998l-3-7h-4v-9.997l4-3 4 4v-7.998l6-5-6-1-2-6.997-6-6-5 3-4.998 3-5-5 1-6.997-3-4.998-3-5-1-4.998-11.998-1v7l-8 3.998v4l-6 11.996-3 11.997V404.773l-4.998-1-1-5.998 2-4-11-1-7 1v6l-3 5.998-3.998-6-10-15.995-6-6.998-10.998 1v8.997l-3 5 1 3.998-4 3-3-3 1-6.998-5-6v-8.997l-8.998-5.998-7 3h-5l4 3.998h5l-1 4-4 2.998 4 3 1 6.998-3 4h6v3.998l-2 5-5-3 1-3-3-3v-2.998l-3-3h-5v5l2 4.998-7.998-5.998 4 6.998-6-1 1 4-5-2 2 3-5 5.998 7 2-3 2.998 3 4-1 4h-10l8 4.997-4 1-4 2 3 2 4 2-2 3.998h-5l-3 3-4.998 1-3-7-7 3-4-3v-3h-5l-5.998 3v-7.998l-3 6-4 1 1 3.998v5h4v3.998l1 4.998h-4v-5.997l-5-6-4-2.998-3-2-1.998-3-4 1-6 1-4 3-4 4v3.998l2 5-4 7.997 2 4V473.757l-3.998-3-6-1-2-3-1-4v-11.996l-2-4-5-1-4 2-3.998-1-3-4.998-7-1-2 5v5.998l-3-4-4-2.998v5.998l4 5-2 3.998-3-2v-5.998l-7.998 3V463.76l4-2v4.998h6v4l8-1 1.998 4-5 3.998-2 5.998-4 1-4.998 3v-8l-2-4.997-3 2-4 2.998-1 3-7-7.998 3-3h4v-4l5 4-1-7.998v-3h-8l2-4h5l-2-4.998-5 3 3-5-3-2-5 4h-3.998l-2-4v-3.998h-4l-1 6.998-4 3h-8l-2.998-3-6-6.998 9-8.998 4-9.998-2-5.998-8 2-3-5-2-3-3 2v8l-3 1.998v6l-4 6.997-2.998 5-3-3 2-5h-5l-2-3.998-1-5 5-1.998 7-5 5-4 4.998-6.998-4-1-3 4h-4l-2.998 4-2-4 7-5-6 1v-4l5-3.998 3-4.998-5-8.998h-9l-1-5 1-7.997-6-1-1 5-3 4-2 3.998-3.998 4h-7l-3 3.998-7-2 5 5 4 1 3 2.998-1 3h-4l-4-1-1 4v4.998l5 1-2 4.998h-5v3l7 1 3 2 1 2.998-1 3-4-3v4l-3 4.998-7-3v3h-4.998v-4l-2-3.998h-9V416.77l7-3-7-2.998 1-11.998-5 3-2-5-3.998 3-5-2-2-3 1-5.997v-5l-4-3.998-4 4.998-1 3-1 4.998h-4.998l4-11.997-6 3.998v-9.998l-5 4 4-10.998-3-2-4 5-4 1.998-2-4.998h-4v-4l-3.998 2 10-19.995-3 7.998 1 3 7.998-2-3-3 4-4.998h4l-1 5.998 1 4-4 1 2 3.998 6-1 2-4 2 4h4v4l-5 2v2.998h10.998l4-4.998 6-7.998-3-6.998v-4h-6l-1-2.998-1-3 5-2-3-2h-5l-6 1v-3.998h10l3-3-5-7.998-3-3-6 4-3-6.998 4 3 5-5-4-6.998v-6l-5-4.997h-5.998l-2 2.998h-4v3l-3 2.998-3-3-5.998 2V298.8l4-3-3-3-4-1.998 2-6 4-1.998v-5l-3-3-2 5h-5v-5l2-2.998-4-4-5 4-4-3-3 5-4.998-3v-3l2-2.998-3-2-4 2-4-6-4-2.998-1-3h-5l-.998-4.998-4-2v5h-4l-4 1-2 3.998-3-5 4-3.998-4-1-4 1v4l-2.998-6h-5l1 4h-4l-1-4-2 7-3-8-2-3.998 1 9.997-4-6-1.998 3-3-2 1-4 3-1.998-1-5 5-1-10-5.997-4-6-4 4-3 3-4-6-3.998 2v7h-5l-2-5v-4l-6-2.998-4-3 2-4h-6.998v6l-6 2 1-4-1-4-2 6-3 3-2-3h-8l-3.998-1v-4l-4 1 2-4.998-8 1-5 3.998-4 1v-5l-2.998 2v-5.998h-5l-4 4-5 .998v-5.998l7-6-4-1.998-3 3-5 2.998-5.998-4.998 1-5-1-3.998-3-6-4-1.998-2-5-1 3v6l-1 4.997-4 4-3-4-2.998-2-3 2-3-2-3 2-4-3 1-5.997 5 2v-5l3-3-8-2.998-1-4h-8l-2.998-3h-5l-1 4-3 3-2-3-1 7.998-5 1-1-7.998 2-10.997-4.998 5-2-6 2-4.998-5-3-5 1-3 7v3.998l-3-6-6-.998 1 4-1.998 2.998-2 7.998-3 5-3-7 1-4.998-4-3-3-3h-5l-3.998 5v4l-2-4-7-2-4-3-2 5 4 2-3 4h-7.998v-4l1-4-5-1-1 4-8-1-4-4-3 3h-8.998l-1-5h-4l-5-3.998-4-2-7.998-1-8-1-2-2.998-5-2-1 3-3.998-4h-5l-6 1-5-5.998h-4l-4.998 2-4-1-3-4-6-1-3 4-4.998 1-1-5-3-2-5 2-1 5h-4l-2-5L0 127.84l-19.01 661.983H-23v190.232h4148.638V850h.362l-.362-.907V827.42L4132 829l-7-787-7 3v10h-8l-2 6 6 7h-20l-2 12-11 4-5-6h7l3-14h-4l4-7-1-8 4-6h-9l-10-8-12 2v18l-11 2v-7h-7l-2 14 16 12-12 5h-5l-1-6-15 4 5 14-3 10-10 5-3-9 9-1 1-12h-7V71l9-3-6-4 4-1-12-9h-7l7 8v4l-4 2-1 13-16-7-13-4-6 10v5l-14 6 5 5-12 12-5 5v-11h-11l-5-11 3-4-17-3v-4l-5 6 5 9 1 9-2 2h-3v-8h-11l-2 7 5 14-11 11-5-10v-9l-10 1-4-7-10 9 6 2 2 11-5 4-2 8h-9l-1-8 5-1 1-4-11 1-9.977 3.837z" fill="#330017" fill-rule="evenodd"/></svg>