<?xml version="1.0" encoding="UTF-8" standalone="no"?>
<svg width="4120px" height="1340px" viewBox="0 0 4120 1340" version="1.1" xmlns="http://www.w3.org/2000/svg" xmlns:xlink="http://www.w3.org/1999/xlink" xmlns:sketch="http://www.bohemiancoding.com/sketch/ns">
    <!-- Generator: Sketch 3.4 (15575) - http://www.bohemiancoding.com/sketch -->
    <title>7</title>
    <desc>Created with Sketch.</desc>
    <defs>
        <linearGradient x1="0%" y1="-4.271798%" x2="77.9729134%" y2="65.7556293%" id="linearGradient-1">
            <stop stop-color="#330017" offset="0%"></stop>
            <stop stop-color="#F1AAB4" offset="58.5893394%"></stop>
            <stop stop-color="#330017" offset="100%"></stop>
        </linearGradient>
        <linearGradient x1="0%" y1="-4.271798%" x2="86.3139632%" y2="76.2147835%" id="linearGradient-2">
            <stop stop-color="#330017" offset="0%"></stop>
            <stop stop-color="#F1AAB4" offset="64.972107%"></stop>
            <stop stop-color="#330017" offset="100%"></stop>
        </linearGradient>
        <linearGradient x1="0%" y1="-4.271798%" x2="86.0764247%" y2="79.8227567%" id="linearGradient-3">
            <stop stop-color="#330017" offset="0%"></stop>
            <stop stop-color="#F1AAB4" offset="68.5506873%"></stop>
            <stop stop-color="#330017" offset="100%"></stop>
        </linearGradient>
        <linearGradient x1="89.2157892%" y1="0%" x2="89.7233009%" y2="92.853887%" id="linearGradient-4">
            <stop stop-color="#330017" offset="0%"></stop>
            <stop stop-color="#8ABEAF" offset="67.4045046%"></stop>
            <stop stop-color="#8ABEAF" offset="81.1529489%"></stop>
            <stop stop-color="#330017" offset="100%"></stop>
        </linearGradient>
        <linearGradient x1="20.1638044%" y1="0%" x2="93.0463419%" y2="96.8630345%" id="linearGradient-5">
            <stop stop-color="#330017" offset="0%"></stop>
            <stop stop-color="#8ABEAF" offset="17.9454121%"></stop>
            <stop stop-color="#8ABEAF" offset="55.627632%"></stop>
            <stop stop-color="#330017" offset="100%"></stop>
        </linearGradient>
        <linearGradient x1="23.2678296%" y1="0%" x2="110.126702%" y2="89.8190765%" id="linearGradient-6">
            <stop stop-color="#330017" offset="0%"></stop>
            <stop stop-color="#8ABEAF" offset="32.5678378%"></stop>
            <stop stop-color="#8ABEAF" offset="52.0349865%"></stop>
            <stop stop-color="#330017" offset="100%"></stop>
        </linearGradient>
        <linearGradient x1="23.2678296%" y1="0%" x2="104.504188%" y2="90.053903%" id="linearGradient-7">
            <stop stop-color="#330017" offset="0%"></stop>
            <stop stop-color="#8ABEAF" offset="26.6297486%"></stop>
            <stop stop-color="#8ABEAF" offset="52.0349865%"></stop>
            <stop stop-color="#85B3A6" offset="59.8130366%"></stop>
            <stop stop-color="#330017" offset="100%"></stop>
        </linearGradient>
    </defs>
    <g id="Page-1" stroke="none" stroke-width="1" fill="none" fill-rule="evenodd" sketch:type="MSPage">
        <g id="cityscape-test" sketch:type="MSLayerGroup" transform="translate(0.000000, -1794.000000)">
            <g id="7" transform="translate(-61.000000, 1794.000000)" sketch:type="MSShapeGroup">
                <path d="M3897.02318,95.8372392 L3893.66336,95.8372392 L3888.6638,91.8381773 L3890.66363,87.8391154 L3894.66328,87.8391154 L3889.66371,80.8407571 L3887.66389,84.839819 L3884.66415,83.8400535 L3879.66459,83.8400535 L3881.66441,79.8409916 L3876.66485,76.8416952 L3881.66441,74.8421643 L3874.66502,72.8426333 L3872.6652,67.8438059 L3869.66546,63.844744 L3870.66537,57.8461512 L3865.66581,57.8461512 L3862.66607,61.8452131 L3856.66659,66.8440405 L3858.66642,70.8431024 L3858.66642,76.8416952 L3862.66607,77.8414607 L3857.66651,82.8402881 L3853.66686,87.8391154 L3855.66668,92.8379428 L3850.66712,101.835832 L3858.66642,112.833252 L3866.66572,112.833252 L3871.66528,114.832783 L3873.66511,120.831376 L3870.66537,125.830203 L3867.66563,119.831611 L3860.66625,117.83208 L3855.66668,112.833252 L3852.66694,112.833252 L3850.66712,107.834425 L3837.66825,104.835128 L3843.66773,114.832783 L3847.66738,118.831845 L3852.66694,124.830438 L3847.66738,127.829734 L3844.66764,123.830673 L3844.66764,117.83208 L3840.66799,122.830907 L3836.66834,124.830438 L3831.66878,125.830203 L3836.66834,121.831142 L3837.66825,115.832549 L3834.66852,113.833018 L3828.66904,108.83419 L3827.66913,114.832783 L3830.66886,116.832314 L3828.66904,124.830438 L3831.66878,133.828327 L3825.6693,130.829031 L3822.66956,126.829969 L3817.67,128.8295 L3819.66982,122.830907 L3812.67044,122.830907 L3812.67044,129.829265 L3809.6707,132.828562 L3813.67035,140.826686 L3810.67061,145.825513 L3808.67078,141.826451 L3805.67105,141.826451 L3801.6714,141.826451 L3800.67148,146.825278 L3804.67113,144.825747 L3807.67087,147.825044 L3802.67131,151.824106 L3807.67087,151.824106 L3807.67087,157.822699 L3803.67122,162.821526 L3805.67105,166.820588 L3808.67078,167.820353 L3805.67105,174.818712 L3802.67131,170.81965 L3796.67183,167.820353 L3793.67209,165.820822 L3798.67166,162.821526 L3787.67262,156.822933 L3785.67279,160.821995 L3784.67288,167.820353 L3788.67253,173.818946 L3785.67279,179.817539 L3783.67297,185.816132 L3779.67332,188.815428 L3779.67332,194.814021 L3782.67305,194.814021 L3780.67323,200.812614 L3785.67279,202.812145 L3783.67297,207.810972 L3780.67323,207.810972 L3780.67323,220.807924 L3785.67279,220.807924 L3782.67305,224.806985 L3786.67271,227.806282 L3785.67279,238.803702 L3785.67279,244.802295 L3777.67349,242.802764 L3774.67375,245.80206 L3771.67402,252.800419 L3770.6741,246.801826 L3767.67436,246.801826 C3766.67445,250.800888 3765.67454,254.79995 3765.67454,254.79995 L3760.67498,251.800653 L3760.67498,239.803468 L3755.67541,239.803468 L3755.67541,228.806047 L3750.67585,229.805813 L3748.67602,236.804171 L3752.67567,236.804171 L3744.67637,239.803468 L3739.67681,236.804171 L3734.67725,235.804406 L3737.67698,228.806047 L3741.67663,224.806985 L3734.67725,224.806985 L3731.67751,213.809565 L3730.67759,208.810738 L3725.67803,204.811676 L3722.67829,206.811207 L3717.67873,204.811676 L3711.67925,195.813787 L3711.67925,184.816366 L3707.6796,184.816366 L3704.67986,191.814725 L3708.67952,197.813318 L3713.67908,202.812145 L3716.67882,208.810738 L3710.67934,208.810738 L3707.6796,208.810738 L3698.68039,201.81238 L3694.68074,201.81238 L3699.6803,207.810972 L3700.68021,212.8098 L3696.68056,215.809096 L3696.68056,225.806751 L3701.68013,227.806282 L3702.68004,232.805109 L3699.6803,236.804171 L3697.68048,241.802998 L3692.68091,234.80464 L3691.681,227.806282 L3686.68144,227.806282 L3689.68117,234.80464 L3684.68161,235.804406 L3688.68126,245.80206 L3682.68178,248.801357 L3680.68196,253.800184 L3677.68222,253.800184 L3671.68275,256.799481 L3669.68292,250.800888 L3663.68344,249.801122 L3652.6844,250.800888 L3655.68414,244.802295 L3651.68449,236.804171 L3650.68458,227.806282 L3646.68493,226.806516 L3641.68536,218.808393 L3636.6858,222.807454 L3630.68632,229.805813 L3624.68685,234.80464 L3623.68694,239.803468 L3618.68737,239.803468 L3613.68781,244.802295 L3610.68807,250.800888 L3606.68842,250.800888 L3603.68868,256.799481 L3603.68868,262.798073 L3597.68921,263.797839 L3601.68886,260.798543 L3598.68912,254.79995 L3602.68877,251.800653 L3595.68938,248.801357 L3594.68947,243.802529 L3589.6899,238.803702 L3587.69008,234.80464 L3582.69052,233.804875 L3585.69025,230.805578 L3587.69008,225.806751 L3591.68973,222.807454 L3594.68947,220.807924 L3592.68964,214.809331 L3589.6899,219.808158 L3584.69034,220.807924 L3579.69078,225.806751 L3575.69113,227.806282 L3570.69156,231.805344 L3579.69078,232.805109 L3575.69113,235.804406 L3574.69121,241.802998 L3571.69148,241.802998 L3567.69182,242.802764 L3563.69217,242.802764 L3561.69235,237.803937 L3556.69278,236.804171 L3553.69305,239.803468 L3553.69305,232.805109 L3557.6927,230.805578 L3559.69252,225.806751 L3564.69209,229.805813 L3562.69226,221.807689 L3562.69226,215.809096 L3558.69261,217.808627 L3557.6927,212.8098 L3560.69244,211.810034 L3556.69278,209.810503 L3553.69305,206.811207 L3551.69322,214.809331 L3548.69348,214.809331 L3546.69366,220.807924 L3543.69392,223.80722 L3545.69375,227.806282 L3549.6934,227.806282 L3550.69331,239.803468 L3546.69366,240.803233 L3547.69357,229.805813 L3542.69401,229.805813 L3541.69409,234.80464 L3534.69471,224.806985 L3536.69453,232.805109 L3536.69453,238.803702 L3533.69479,242.802764 L3537.69444,244.802295 L3538.69436,254.79995 L3536.69453,259.798777 L3532.69488,257.799246 L3533.69479,252.800419 L3530.69505,243.802529 L3526.6954,243.802529 L3529.69514,238.803702 L3525.69549,233.804875 L3522.69575,234.80464 L3520.69593,229.805813 L3516.69628,218.808393 L3516.69628,227.806282 L3517.69619,232.805109 L3516.69628,237.803937 L3509.69689,240.803233 L3514.69645,247.801591 L3511.69671,250.800888 L3507.69706,249.801122 L3503.69741,249.801122 L3500.69767,253.800184 L3494.6982,249.801122 L3497.69794,245.80206 L3493.69828,244.802295 L3493.69828,237.803937 L3490.69855,232.805109 L3484.69907,228.806047 L3482.69925,219.808158 L3490.69855,219.808158 L3494.6982,217.808627 L3494.6982,208.810738 L3491.69846,213.809565 L3487.69881,215.809096 L3483.69916,214.809331 L3485.69898,208.810738 L3477.69968,208.810738 L3471.70021,209.810503 L3470.70029,204.811676 L3478.69959,203.81191 L3478.69959,197.813318 L3483.69916,197.813318 L3482.69925,188.815428 L3477.69968,194.814021 L3473.70003,194.814021 L3470.70029,199.812849 L3469.70038,194.814021 L3462.70099,193.814256 L3458.70134,192.81449 L3458.70134,198.813083 L3463.7009,200.812614 L3460.70117,202.812145 L3454.70169,199.812849 L3458.70134,204.811676 L3458.70134,210.810269 L3455.7016,210.810269 L3449.70213,207.810972 L3452.70186,212.8098 L3449.70213,215.809096 L3444.70256,213.809565 L3445.70248,222.807454 L3441.70282,216.808862 L3438.70309,213.809565 L3440.70291,208.810738 L3437.70317,208.810738 L3431.7037,214.809331 L3435.70335,214.809331 L3439.703,217.808627 L3440.70291,222.807454 L3437.70317,222.807454 L3432.70361,220.807924 L3431.7037,225.806751 L3426.70413,220.807924 L3420.70466,217.808627 L3426.70413,225.806751 L3421.70457,229.805813 L3428.70396,230.805578 L3423.7044,235.804406 L3424.70431,242.802764 L3429.70387,239.803468 L3435.70335,238.803702 L3441.70282,239.803468 L3444.70256,240.803233 L3435.70335,242.802764 L3430.70378,244.802295 L3429.70387,249.801122 L3434.70344,249.801122 L3428.70396,252.800419 L3423.7044,253.800184 L3420.70466,252.800419 L3420.70466,245.80206 L3417.70492,247.801591 L3414.70518,242.802764 L3407.70579,239.803468 L3412.70536,246.801826 L3409.70562,252.800419 L3405.70597,251.800653 L3401.70632,257.799246 L3404.70605,258.799012 L3406.70588,262.798073 L3412.70536,259.798777 L3410.70553,264.797604 L3403.70614,262.798073 L3400.7064,260.798543 L3397.70667,264.797604 L3400.7064,273.795494 L3397.70667,279.794087 L3404.70605,279.794087 L3402.70623,284.792914 L3401.70632,289.791741 L3401.70632,296.7901 L3396.70675,298.789631 L3391.70719,297.789865 L3387.70754,289.791741 L3384.7078,293.790803 L3379.70824,295.790334 L3373.70876,297.789865 L3367.70928,303.788458 L3363.70963,309.787051 L3360.7099,308.787285 L3360.7099,301.788927 L3368.7092,300.789161 L3363.70963,298.789631 L3359.70998,298.789631 L3363.70963,295.790334 L3363.70963,289.791741 L3366.70937,285.792679 L3360.7099,289.791741 L3357.71016,286.792445 L3354.71042,289.791741 L3348.71094,292.791038 L3350.71077,296.7901 L3346.71112,298.789631 L3350.71077,301.788927 L3350.71077,308.787285 L3353.71051,308.787285 L3354.71042,316.785409 L3349.71086,317.785175 L3350.71077,324.783533 L3346.71112,321.784236 L3341.71155,323.783767 L3340.71164,329.78236 L3337.7119,326.783064 L3335.71208,332.781657 L3332.71234,331.781891 L3331.71243,340.77978 L3328.71269,346.778373 L3325.71295,350.777435 L3325.71295,343.779077 L3320.71339,341.779546 L3316.71374,343.779077 L3311.71417,339.780015 L3307.71452,336.780719 L3312.71409,344.778842 L3312.71409,351.777201 L3310.71426,356.776028 L3314.71391,357.775794 L3311.71417,362.774621 L3310.71426,368.773214 L3305.7147,369.772979 L3299.71522,369.772979 L3295.71557,370.772745 L3297.7154,377.771103 L3293.71575,376.771338 L3289.71609,375.771572 L3286.71636,375.771572 L3283.71662,375.771572 L3283.71662,381.770165 L3286.71636,387.768758 L3279.71697,385.769227 L3273.71749,385.769227 L3274.7174,391.76782 L3279.71697,394.767116 L3284.71653,400.765709 L3277.71714,402.76524 L3277.71714,408.763833 L3274.7174,407.764067 L3267.71802,401.765474 L3260.71863,405.764536 L3266.7181,408.763833 L3259.71871,409.763598 L3263.71836,417.761722 L3255.71906,419.761253 L3246.71985,421.760784 L3248.71967,425.759846 L3251.71941,426.759611 L3250.7195,435.757501 L3249.71959,444.75539 L3245.71994,444.75539 L3244.72002,434.757735 L3242.7202,443.755624 L3237.72063,441.756093 L3240.72037,435.757501 L3236.72072,436.757266 L3233.72098,435.757501 L3228.72142,440.756328 L3226.72159,434.757735 L3226.72159,440.756328 L3220.72212,442.755859 L3217.72238,435.757501 L3217.72238,443.755624 L3214.72264,437.757031 L3213.08642,439.393011 L3211.7229,437.757031 L3213.72273,433.75797 L3212.72282,427.759377 L3210.72299,420.761018 L3207.72325,412.762895 L3210.72299,406.764302 L3200.72386,407.764067 L3199.72395,402.76524 L3190.72474,407.764067 L3188.72491,403.765005 L3185.72517,410.763364 L3179.7257,402.76524 L3172.72631,404.764771 L3166.72683,404.764771 L3170.72648,398.766178 L3173.72622,393.767351 L3187.725,386.768992 L3173.72622,389.768289 L3173.72622,382.76993 L3163.72709,381.770165 L3160.72736,388.768523 L3146.72858,389.768289 L3149.72832,377.771103 L3157.72762,369.772979 L3170.72648,365.773917 L3177.72587,363.774386 L3187.725,363.774386 L3198.72404,364.774152 L3198.72404,371.77251 L3209.72308,363.774386 L3209.72308,358.775559 L3215.72255,358.775559 L3215.72255,363.774386 L3216.72247,366.773683 L3215.72255,371.77251 L3220.72212,369.772979 L3224.72177,372.772276 L3221.72203,377.771103 L3224.72177,380.770399 L3230.72125,381.770165 L3237.72063,384.769461 L3239.72046,388.768523 L3246.71985,388.768523 L3253.71924,388.768523 L3253.71924,384.769461 L3263.71836,382.76993 L3263.71836,378.770868 L3268.71793,373.772041 L3268.71793,367.773448 L3260.71863,363.774386 L3265.71819,354.776497 L3258.7188,350.777435 L3256.71898,355.776263 L3252.71932,347.778139 L3240.72037,351.777201 L3246.71985,345.778608 L3250.7195,341.779546 L3257.71889,338.78025 L3257.71889,334.781188 L3258.7188,331.781891 L3252.71932,325.783298 L3249.71959,331.781891 L3246.71985,325.783298 L3241.72029,322.784002 L3236.72072,314.785878 L3236.72072,308.787285 L3228.72142,308.787285 L3224.72177,304.788223 L3232.72107,303.788458 L3237.72063,298.789631 L3239.72046,294.790569 L3232.72107,289.791741 L3238.72055,289.791741 L3245.71994,288.791976 L3248.71967,284.792914 L3244.72002,279.794087 L3242.7202,274.795259 L3243.72011,270.796197 L3247.71976,265.79737 L3244.72002,259.798777 L3241.72029,255.799715 L3239.72046,251.800653 L3238.72055,260.798543 L3235.72081,264.797604 L3232.72107,255.799715 L3231.72116,261.798308 L3225.72168,266.797135 L3224.72177,263.797839 L3227.72151,259.798777 L3227.72151,255.799715 L3220.72212,255.799715 L3219.72221,262.798073 L3215.72255,260.798543 L3214.72264,265.79737 L3207.72325,265.79737 L3206.72334,261.798308 L3200.72386,264.797604 L3200.72386,261.798308 L3191.72465,261.798308 L3187.725,265.79737 L3187.725,259.798777 L3175.72605,261.798308 L3175.72605,266.797135 L3175.72605,271.795963 L3188.72491,272.795728 L3175.72605,277.794556 L3175.72605,282.793383 L3168.72666,282.793383 L3161.72727,284.792914 L3160.72736,281.793617 L3163.72709,273.795494 L3157.72762,271.795963 L3158.72753,266.797135 L3163.72709,262.798073 L3163.72709,259.798777 L3166.72683,253.800184 L3172.72631,246.801826 L3183.72535,238.803702 L3195.7243,232.805109 L3194.72439,227.806282 L3185.72517,226.806516 L3175.72605,222.807454 L3175.72605,219.808158 L3185.72517,219.808158 L3192.72456,222.807454 L3199.72395,225.806751 L3205.72343,224.806985 L3207.72325,218.808393 L3213.72273,222.807454 L3219.72221,220.807924 L3216.72247,217.808627 L3216.72247,213.809565 L3224.72177,215.809096 L3227.72151,209.810503 L3237.72063,209.810503 L3248.71967,209.810503 L3248.71967,205.811441 L3249.71959,201.81238 L3251.71941,196.813552 L3248.71967,194.814021 L3246.71985,189.815194 L3245.71994,185.816132 L3243.72011,179.817539 L3243.72011,176.818243 L3237.72063,170.81965 L3226.72159,170.81965 L3226.72159,176.818243 L3229.72133,178.817774 L3229.72133,183.816601 L3222.72194,183.816601 L3221.72203,187.815663 L3217.72238,185.816132 L3211.7229,185.816132 L3206.72334,187.815663 L3199.72395,187.815663 L3199.72395,181.81707 L3211.7229,180.817305 L3211.7229,175.818477 L3209.72308,170.81965 L3207.72325,162.821526 L3200.72386,158.822464 L3195.7243,155.823168 L3189.72482,155.823168 L3189.72482,159.82223 L3181.72552,162.821526 L3182.72544,159.82223 L3184.72526,155.823168 L3183.72535,148.824809 L3174.72613,140.826686 L3174.72613,133.828327 L3171.7264,128.8295 L3171.7264,123.830673 L3165.72692,125.830203 L3157.72762,119.831611 L3152.72805,126.829969 L3152.72805,120.831376 L3150.72823,113.833018 L3141.72902,115.832549 L3139.72919,123.830673 L3138.72928,117.83208 L3129.73006,110.833721 L3128.73015,115.832549 L3119.73094,116.832314 L3111.73163,115.832549 L3106.73207,123.830673 L3102.73242,120.831376 L3097.73286,123.830673 L3095.73303,126.829969 L3088.73364,126.829969 L3094.73312,122.830907 L3082.73417,123.830673 L3082.73417,128.8295 L3071.73513,135.827858 L3060.73609,134.828093 L3060.73609,140.826686 L3055.73652,138.827155 L3052.73679,145.825513 L3059.73617,156.822933 L3058.73626,163.821291 L3070.73521,174.818712 L3070.73521,181.81707 L3064.73574,182.816836 L3058.73626,185.816132 L3051.73687,185.816132 L3048.73713,175.818477 L3045.7374,184.816366 L3050.73696,189.815194 L3050.73696,192.81449 L3040.73783,190.814959 L3038.73801,194.814021 L3034.73836,191.814725 L3033.73844,187.815663 L3030.73871,185.816132 L3027.73897,191.814725 L3027.73897,194.814021 L3018.73975,191.814725 L3017.73984,194.814021 L3016.73993,201.81238 L3023.73932,210.810269 L3023.73932,213.809565 L3029.73879,216.808862 L3030.73871,222.807454 L3036.73818,220.807924 L3041.73775,222.807454 L3045.7374,226.806516 L3050.73696,229.805813 L3057.73635,230.805578 L3062.73591,233.804875 L3063.73582,236.804171 L3064.73574,239.803468 L3061.736,241.802998 L3064.73574,246.801826 L3060.73609,250.800888 L3055.73652,248.801357 L3052.73679,252.800419 L3049.73705,256.799481 L3060.73609,257.799246 L3067.73548,255.799715 L3073.73495,253.800184 L3079.73443,257.799246 L3079.73443,263.797839 L3075.73478,265.79737 L3077.7346,274.795259 L3070.73521,272.795728 L3064.73574,274.795259 L3062.73591,282.793383 L3058.73626,273.795494 L3054.73661,283.793148 L3057.73635,281.793617 L3059.73617,284.792914 L3059.73617,288.791976 L3061.736,291.791272 L3067.73548,291.791272 L3072.73504,293.790803 L3075.73478,289.791741 L3081.73425,286.792445 L3089.73355,277.794556 L3096.73294,276.79479 L3093.73321,279.794087 L3090.73347,293.790803 L3090.73347,300.789161 L3089.73355,303.788458 L3103.73233,295.790334 L3108.7319,285.792679 L3110.73172,292.791038 L3118.73102,290.791507 L3113.73146,296.7901 L3112.73155,300.789161 L3105.73216,298.789631 L3103.73233,306.787754 L3101.73251,317.785175 L3093.73321,317.785175 L3089.73355,314.785878 L3085.7339,316.785409 L3084.73399,308.787285 L3076.73469,309.787051 L3077.7346,315.785644 L3074.73486,317.785175 L3074.73486,322.784002 L3066.73556,322.784002 L3058.73626,330.782126 L3052.73679,334.781188 L3045.7374,337.780484 L3049.73705,326.783064 L3056.73644,325.783298 L3060.73609,323.783767 L3057.73635,320.784471 L3052.73679,321.784236 L3052.73679,318.78494 L3048.73713,320.784471 L3044.73748,317.785175 L3039.73792,310.786816 L3033.73844,312.786347 L3040.73783,319.784705 L3039.73792,322.784002 L3039.73792,325.783298 L3038.73801,331.781891 L3038.73801,338.78025 L3035.73827,343.779077 L3026.73905,343.779077 L3029.73879,338.78025 L3026.73905,332.781657 L3024.73923,327.782829 L3028.73888,318.78494 L3031.73862,316.785409 L3025.73914,314.785878 L3028.73888,312.786347 L3028.73888,308.787285 L3025.73914,305.787989 L3024.73923,296.7901 L3021.73949,293.790803 L3018.73975,297.789865 L3014.7401,299.789396 L3010.74045,297.789865 L3010.74045,301.788927 L3014.7401,307.78752 L3009.74054,310.786816 L3005.74089,306.787754 L3003.74106,302.788692 L3000.74132,305.787989 L3001.74124,308.787285 L3004.74098,311.786582 L3006.7408,315.785644 L3009.74054,322.784002 L3003.74106,322.784002 L2997.74159,325.783298 L2987.74246,326.783064 L2985.74263,322.784002 L2982.7429,318.78494 L2978.74325,325.783298 L2977.74333,318.78494 L2974.74359,315.785644 L2972.74377,311.786582 L2972.74377,303.788458 L2970.74394,300.789161 L2970.74394,295.790334 L2963.74455,287.79221 L2963.74455,291.791272 L2966.74429,298.789631 L2968.74412,305.787989 L2968.74412,311.786582 L2963.74455,305.787989 L2961.74473,300.789161 L2956.74517,299.789396 L2960.74482,304.788223 L2964.74447,313.786113 L2969.74403,323.783767 L2970.74394,328.782595 L2964.74447,329.78236 L2961.74473,323.783767 L2956.74517,317.785175 L2954.74534,321.784236 L2951.7456,318.78494 L2947.74595,314.785878 L2942.74639,318.78494 L2946.74604,321.784236 L2950.74569,324.783533 L2957.74508,332.781657 L2954.74534,334.781188 L2950.74569,330.782126 L2943.7463,326.783064 L2938.74674,327.782829 L2942.74639,332.781657 L2946.74604,337.780484 L2941.74648,335.780953 L2939.74665,338.78025 L2946.74604,342.779311 L2943.7463,345.778608 L2934.74709,342.779311 L2931.74735,340.77978 L2932.74726,346.778373 L2935.747,348.777904 L2938.74674,351.777201 L2938.74674,356.776028 L2941.74648,354.776497 L2941.74648,359.775324 L2935.747,360.77509 L2937.74682,366.773683 L2930.74744,364.774152 L2930.74744,360.77509 L2924.74796,362.774621 L2924.74796,367.773448 L2928.74761,371.77251 L2923.74805,373.772041 L2918.74848,369.772979 L2911.74909,366.773683 L2915.74875,372.772276 L2917.74857,376.771338 L2914.74883,381.770165 L2910.74918,379.770634 L2902.74988,378.770868 L2902.74988,384.769461 L2907.74944,382.76993 L2913.74892,386.768992 L2915.74875,391.76782 L2920.74831,392.767585 L2924.74796,404.764771 L2927.7477,396.766647 L2934.74709,397.766412 L2928.74761,405.764536 L2925.74787,416.761957 L2926.74779,427.759377 L2919.7484,434.757735 L2911.74909,435.757501 L2909.74927,430.758673 L2902.74988,427.759377 L2899.75014,422.760549 L2897.75032,417.761722 L2890.75093,417.761722 L2894.75058,421.760784 L2895.75049,427.759377 L2901.74997,431.758439 L2901.74997,438.756797 L2905.74962,441.756093 L2907.74944,446.754921 L2900.75005,444.75539 L2894.75058,443.755624 L2889.75102,441.756093 L2884.75145,436.757266 L2878.75198,443.755624 L2876.75215,440.756328 L2870.75267,439.756562 L2869.75276,436.757266 L2874.75232,427.759377 L2866.75302,431.758439 L2866.75302,427.759377 L2869.75276,422.760549 L2859.75363,424.76008 L2863.75329,417.761722 L2859.75363,413.76266 L2853.75416,413.76266 L2849.75451,410.763364 L2849.75451,416.761957 L2845.75486,422.760549 L2842.75512,415.762191 L2835.75573,402.76524 L2835.75573,413.76266 L2826.75652,415.762191 L2826.75652,418.761487 L2833.7559,416.761957 L2837.75555,421.760784 L2838.75547,428.759142 L2838.75547,433.75797 L2832.75599,431.758439 L2830.75617,427.759377 L2824.75669,435.757501 L2820.75704,430.758673 L2820.75704,427.759377 L2816.75739,424.76008 L2811.75782,429.758908 L2815.75748,433.75797 L2818.75721,436.757266 L2814.75756,439.756562 L2820.75704,439.756562 L2820.75704,443.755624 L2817.7573,447.754686 L2813.75765,444.75539 L2813.75765,448.754452 L2814.75756,455.75281 L2808.75809,455.75281 L2805.75835,457.752341 L2802.75861,453.753279 L2802.75861,450.753983 L2792.75948,449.754217 L2791.75957,446.754921 L2787.75992,440.756328 L2785.76009,448.754452 L2780.76053,446.754921 L2780.76053,452.753514 L2776.76088,449.754217 L2775.76097,455.75281 L2780.76053,456.752575 L2778.76071,459.751872 L2778.76071,463.750934 L2769.76149,465.750465 L2763.76202,463.750934 L2761.76219,459.751872 L2763.76202,456.752575 L2760.76228,453.753279 L2758.76245,447.754686 L2752.76298,450.753983 L2749.76324,452.753514 L2754.7628,466.75023 L2754.7628,470.749292 L2749.76324,471.749058 L2747.76341,466.75023 L2748.76332,462.751168 L2745.76359,456.752575 L2747.76341,451.753748 L2746.7635,448.754452 L2744.76367,445.755155 L2735.76446,445.755155 L2732.76472,450.753983 L2733.76463,446.754921 L2734.76455,439.756562 L2736.76437,433.75797 L2738.7642,427.759377 L2738.7642,421.760784 L2733.76463,425.759846 L2729.76498,430.758673 L2726.76525,439.756562 L2723.76551,437.757031 L2724.76542,433.75797 L2723.76551,426.759611 L2717.76603,427.759377 L2713.76638,430.758673 L2711.76655,421.760784 L2711.76655,417.761722 L2704.76717,419.761253 L2698.76769,418.761487 L2700.76752,412.762895 L2702.76734,415.762191 L2707.7669,414.762426 L2703.76725,405.764536 L2692.76821,409.763598 L2688.76856,403.765005 L2685.76882,405.764536 L2680.76926,402.76524 L2682.76909,407.764067 L2678.76944,411.763129 L2677.76952,405.764536 L2673.76987,399.765943 L2669.77022,396.766647 L2673.76987,392.767585 L2677.76952,390.768054 L2676.76961,387.768758 L2678.76944,383.769696 L2678.76944,379.770634 L2674.76979,382.76993 L2673.76987,375.771572 L2668.77031,376.771338 L2669.77022,381.770165 L2661.77092,380.770399 L2664.77066,375.771572 L2657.77127,376.771338 L2651.77179,382.76993 L2651.77179,385.769227 L2652.77171,388.768523 L2645.77232,388.768523 L2646.77223,399.765943 L2646.77223,406.764302 L2643.77249,409.763598 L2638.77293,411.763129 L2636.7731,406.764302 L2636.7731,399.765943 L2637.77302,392.767585 L2632.77345,388.768523 L2639.77284,384.769461 L2639.77284,379.770634 L2645.77232,379.770634 L2650.77188,373.772041 L2648.77205,369.772979 L2649.77197,366.773683 L2648.77205,362.774621 L2642.77258,362.774621 L2637.77302,359.775324 L2637.77302,353.776732 L2633.77336,348.777904 L2628.7738,347.778139 L2623.77424,342.779311 L2619.77459,339.780015 L2616.77485,345.778608 L2610.77537,335.780953 L2606.77572,338.78025 L2601.77616,337.780484 L2595.77668,339.780015 L2594.77677,336.780719 L2582.77782,337.780484 L2581.7779,342.779311 L2575.77843,342.779311 L2576.77834,348.777904 L2574.77852,351.777201 L2572.77869,359.775324 L2571.77878,352.776966 L2567.77913,348.777904 L2567.77913,351.777201 L2568.77904,360.77509 L2569.77895,365.773917 L2566.77921,369.772979 L2558.77991,369.772979 L2549.7807,364.774152 L2545.78105,361.774855 L2541.7814,363.774386 L2538.78166,370.772745 L2534.78201,373.772041 L2534.78201,369.772979 L2528.78253,370.772745 L2524.78288,374.771807 L2518.7834,369.772979 L2518.7834,366.773683 L2521.78314,363.774386 L2521.78314,360.77509 L2511.78402,360.77509 L2509.78419,354.776497 L2505.78454,359.775324 L2500.78498,360.77509 L2504.78463,364.774152 L2509.78419,366.773683 L2503.78471,370.772745 L2498.78515,368.773214 L2498.78515,365.773917 L2492.78567,361.774855 L2492.78567,355.776263 L2482.78655,358.775559 L2472.78742,360.77509 L2466.78794,359.775324 L2461.78838,355.776263 L2459.78856,360.77509 L2454.78899,357.775794 L2449.78943,359.775324 L2450.78934,364.774152 L2449.78943,367.773448 L2447.7896,363.774386 L2439.7903,365.773917 L2439.7903,369.772979 L2435.79065,371.77251 L2438.79039,376.771338 L2434.79074,380.770399 L2433.79082,384.769461 L2433.79082,390.768054 L2428.79126,393.767351 L2422.79179,393.767351 L2418.79213,391.76782 L2416.79231,396.766647 L2414.79248,391.76782 L2414.79248,386.768992 L2407.79309,383.769696 L2403.79344,392.767585 L2403.79344,397.766412 L2401.79362,400.765709 L2395.79414,399.765943 L2395.79414,404.764771 L2398.79388,408.763833 L2395.79414,410.763364 L2397.79397,413.76266 L2397.79397,418.761487 L2390.79458,417.761722 L2390.79458,425.759846 L2388.79475,428.759142 L2384.7951,426.759611 L2386.79493,423.760315 L2380.79545,421.760784 L2376.7958,423.760315 L2371.79624,422.760549 L2365.79676,418.761487 L2366.79667,423.760315 L2359.79729,423.760315 L2354.79772,421.760784 L2346.79842,424.76008 L2346.79842,428.759142 L2351.79798,431.758439 L2357.79746,433.75797 L2356.79755,440.756328 L2362.79702,444.75539 L2359.79729,446.754921 L2349.79816,448.754452 L2347.79833,451.753748 L2343.79868,449.754217 L2333.79956,455.75281 L2330.79982,459.751872 L2320.80069,457.752341 L2315.80113,453.753279 L2308.80174,457.752341 L2302.80226,450.753983 L2302.80226,460.751637 L2305.802,464.750699 L2311.80148,464.750699 L2307.80182,472.748823 L2307.80182,476.747885 L2313.8013,475.748119 L2318.80086,472.748823 L2324.80034,472.748823 L2325.80025,476.747885 L2320.80069,480.746947 L2311.80148,480.746947 L2303.80217,479.747181 L2305.802,486.74554 L2310.80156,487.745305 L2315.80113,494.743664 L2320.80069,487.745305 L2324.80034,490.744602 L2325.80025,496.743194 L2329.7999,493.743898 L2333.79956,501.742022 L2326.80017,501.742022 L2326.80017,505.741084 L2316.80104,509.740146 L2309.80165,510.739911 L2299.80252,509.740146 L2294.80296,505.741084 L2281.80409,506.740849 L2268.80523,508.74038 L2261.80584,508.74038 L2254.80645,503.741553 L2245.80724,496.743194 L2245.80724,492.744133 L2252.80663,491.744367 L2252.80663,486.74554 L2244.80732,486.74554 L2240.80767,481.746712 L2238.80785,485.745774 L2235.80811,489.744836 L2231.80846,492.744133 L2225.80898,484.746009 L2221.80933,477.74765 L2221.80933,466.75023 L2219.80951,461.751403 L2216.80977,454.753045 L2215.80986,448.754452 L2215.80986,441.756093 L2209.81038,436.757266 L2209.81038,428.759142 L2205.81073,423.760315 L2190.81204,409.763598 L2177.81317,409.763598 L2180.81291,418.761487 L2176.81326,427.759377 L2171.8137,426.759611 L2170.81379,420.761018 L2171.8137,413.76266 L2169.81387,408.763833 L2160.81466,410.763364 L2154.81518,405.764536 L2143.81614,410.763364 L2142.81623,416.761957 L2140.8164,424.76008 L2134.81693,428.759142 L2127.81754,430.758673 L2127.81754,436.757266 L2125.81771,443.755624 L2126.81763,447.754686 L2120.81815,448.754452 L2117.81841,440.756328 L2116.8185,450.753983 L2108.8192,454.753045 L2110.81902,461.751403 L2104.81955,460.751637 L2097.82016,459.751872 L2098.82007,466.75023 L2097.82016,471.749058 L2086.82112,471.749058 L2083.82138,465.750465 L2071.82243,468.749761 L2071.82243,475.748119 L2065.82295,480.746947 L2059.82348,483.746243 L2055.82382,476.747885 L2053.824,479.747181 L2050.82426,476.747885 L2039.82522,476.747885 L2039.82522,479.747181 L2035.82557,482.746478 L2029.82609,482.746478 L2029.82609,478.747416 L2024.82653,481.746712 L2018.82706,487.745305 L2018.82706,493.743898 L2013.82749,494.743664 L2008.82793,487.745305 L2000.82863,498.742725 L1998.8288,503.741553 L2002.82845,506.740849 L2006.8281,511.739677 L1998.8288,516.738504 L2000.82863,522.737097 L1992.82932,521.737331 L1992.82932,513.739208 L1986.82985,522.737097 L1985.82994,527.735924 L1979.83046,526.736159 L1977.83063,522.737097 L1972.83107,520.737566 L1972.83107,546.731468 L1975.83081,551.730296 L1976.83072,559.728419 L1971.83116,561.72795 L1976.83072,564.727247 L1974.8309,569.726074 L1968.83142,563.727481 L1966.83159,566.726778 L1968.83142,573.725136 L1963.83186,570.72584 L1954.83264,570.72584 L1950.83299,573.725136 L1950.83299,566.726778 L1949.83308,562.727716 L1945.83343,572.725371 L1946.83334,575.724667 L1946.83334,581.72326 L1947.83325,587.721853 L1953.83273,591.720915 L1948.83317,598.719273 L1948.83317,591.720915 L1944.83352,594.720211 L1942.83369,590.721149 L1938.83404,576.724432 L1938.83404,584.722556 L1936.83421,595.719976 L1941.83378,598.719273 L1936.83421,602.718335 L1928.83491,602.718335 L1925.83517,593.720445 L1922.83544,586.722087 L1923.83535,593.720445 L1925.83517,597.719507 L1925.83517,603.7181 L1920.83561,607.717162 L1920.83561,602.718335 L1918.83579,597.719507 L1915.83605,591.720915 L1906.83683,601.718569 L1901.83727,593.720445 L1895.83779,592.72068 L1893.83797,595.719976 L1897.83762,599.719038 L1895.83779,604.717866 L1887.83849,604.717866 L1884.83875,602.718335 L1875.83954,602.718335 L1866.84032,598.719273 L1872.8398,610.716459 L1864.8405,610.716459 L1864.8405,615.715286 L1863.84059,620.714113 L1867.84024,622.713644 L1862.84067,631.711534 L1862.84067,625.712941 L1854.84137,625.712941 L1853.84146,621.713879 L1844.84225,620.714113 L1849.84181,627.712472 L1852.84155,638.709892 L1858.84102,638.709892 L1861.84076,646.708016 L1851.84163,649.707312 L1844.84225,640.709423 L1844.84225,651.706843 L1839.84268,656.70567 L1837.84286,648.707547 L1832.84329,655.705905 L1831.84338,648.707547 L1830.84347,641.709188 L1825.8439,639.709657 L1821.84425,641.709188 L1813.84495,634.71083 L1812.84504,638.709892 L1810.84521,642.708954 L1813.84495,650.707078 L1806.84556,650.707078 L1809.41677,659.704967 L1801.20606,659.704967 L1799.84617,642.708954 L1798.84626,621.713879 L1793.8467,656.70567 L1790.347,659.704967 L1704.85447,659.704967 L1704.85447,670.702387 L1593.8687,675.701215 L1593.8687,661.704498 L1483.87376,661.704498 L1483.87376,676.70098 L1272.5487,681.692175 L1269.89244,679.700276 L1265.89279,676.70098 L1269.89244,672.701918 L1263.89297,669.702622 L1261.89314,664.703794 L1256.89358,659.704967 L1253.89384,656.70567 L1251.89402,663.704029 L1247.89436,660.704732 L1244.89463,664.703794 L1241.89489,661.704498 L1238.89515,658.705201 L1238.89515,655.705905 L1244.89463,655.705905 L1254.89375,653.706374 L1257.89349,650.707078 L1255.89367,646.708016 L1261.89314,641.709188 L1256.89358,642.708954 L1255.89367,633.711064 L1253.89384,642.708954 L1250.8941,644.708485 L1247.89436,646.708016 L1243.89471,646.708016 L1243.89471,649.707312 L1239.89506,643.708719 L1236.89533,645.70825 L1235.89541,649.707312 L1230.89585,648.707547 L1230.89585,645.70825 L1233.89559,643.708719 L1233.89559,640.709423 L1242.8948,638.709892 L1247.89436,635.710595 L1248.89428,629.712003 L1243.89471,630.711768 L1248.89428,625.712941 L1250.8941,622.713644 L1250.8941,616.715051 L1245.89454,617.714817 L1240.89498,621.713879 L1235.89541,624.713175 L1234.8955,628.712237 L1230.89585,633.711064 L1225.89629,630.711768 L1232.89567,626.712706 C1232.89567,626.712706 1228.89602,623.71341 1232.89567,622.713644 C1236.89533,621.713879 1236.89533,619.714348 1236.89533,619.714348 L1236.89533,612.715989 L1233.89559,610.716459 L1223.89646,612.715989 L1225.89629,604.717866 L1224.89637,600.718804 L1221.89663,595.719976 L1219.89681,600.718804 L1214.89725,595.719976 L1214.89725,588.721618 L1212.89742,581.72326 L1219.89681,581.72326 L1220.89672,576.724432 L1227.89611,579.723729 L1236.89533,569.726074 L1237.89524,564.727247 L1233.89559,564.727247 L1233.89559,560.728185 L1237.89524,560.728185 L1237.89524,554.729592 L1233.89559,556.729123 L1230.89585,553.729827 L1230.89585,549.730765 L1237.89524,545.731703 L1236.89533,541.732641 L1229.89594,540.732875 L1229.89594,536.733813 L1232.89567,532.734752 L1232.89567,527.735924 L1227.89611,524.736628 L1227.89611,520.737566 L1230.89585,518.738035 L1231.89576,511.739677 L1225.89629,511.739677 L1224.89637,514.738973 L1221.89663,518.738035 L1218.8969,514.738973 L1219.89681,509.740146 L1224.89637,503.741553 L1231.89576,503.741553 L1233.89559,499.742491 L1235.89541,496.743194 L1235.89541,493.743898 L1232.89567,491.744367 L1232.89567,488.745071 L1231.89576,484.746009 L1222.89655,482.746478 L1217.89698,479.747181 L1213.89733,479.747181 L1208.89777,482.746478 L1205.89803,478.747416 L1197.89873,478.747416 L1195.8989,474.748354 L1189.89943,474.748354 L1189.89943,477.74765 L1185.89978,478.747416 L1185.89978,471.749058 L1177.90048,465.750465 L1173.90083,468.749761 L1169.90117,471.749058 L1165.90152,475.748119 L1159.90205,478.747416 L1153.90257,478.747416 L1152.90266,474.748354 L1154.90248,469.749527 L1156.90231,464.750699 L1153.90257,458.752106 L1152.90266,452.753514 L1150.90283,457.752341 L1147.90309,464.750699 L1144.90336,467.749996 L1141.90362,461.751403 L1141.90362,454.753045 L1142.90353,450.753983 L1136.90406,450.753983 L1136.90406,444.75539 L1138.90388,437.757031 L1134.90423,438.756797 L1134.90423,432.758204 L1127.90484,433.75797 L1125.90502,438.756797 L1125.90502,442.755859 L1122.90528,438.756797 L1119.90554,441.756093 L1114.90598,440.756328 L1108.9065,437.757031 L1103.90694,429.758908 L1095.90763,429.758908 L1094.90772,424.76008 L1088.90825,420.761018 L1084.9086,422.760549 L1079.90903,418.761487 L1077.90921,424.76008 L1072.90964,416.761957 L1071.90973,419.761253 L1067.91008,417.761722 L1057.91095,419.761253 L1053.9113,417.761722 L1055.91113,409.763598 L1052.91139,406.764302 L1055.91113,404.764771 L1047.91183,403.765005 L1046.91191,400.765709 L1054.91121,400.765709 L1057.91095,396.766647 L1067.91008,397.766412 L1066.91017,390.768054 L1060.91069,389.768289 L1060.91069,386.768992 L1054.91121,386.768992 L1053.9113,389.768289 L1048.91174,383.769696 L1041.91235,382.76993 L1038.91261,384.769461 L1034.91296,383.769696 L1028.91348,385.769227 L1020.91418,385.769227 L1017.91444,378.770868 L1013.91479,378.770868 L1013.91479,368.773214 L1017.91444,365.773917 L1021.9141,369.772979 L1021.9141,361.774855 L1027.91357,356.776028 L1021.9141,355.776263 L1019.91427,348.777904 L1013.91479,342.779311 L1008.91523,345.778608 L1003.91567,348.777904 L998.916103,343.779077 L999.916016,336.780719 L996.916278,331.781891 L993.916539,326.783064 L992.916627,321.784236 L980.917674,320.784471 L980.917674,327.782829 L972.918373,331.781891 L972.918373,335.780953 L966.918897,347.778139 L963.919159,359.775324 L963.919159,362.774621 L963.919159,369.772979 L958.919595,368.773214 L957.919682,362.774621 L959.919508,358.775559 L948.920468,357.775794 L941.921079,358.775559 L941.921079,364.774152 L938.921341,370.772745 L934.92169,364.774152 L924.922563,348.777904 L918.923087,341.779546 L907.924047,342.779311 L907.924047,351.777201 L904.924309,356.776028 L905.924222,360.77509 L901.924571,363.774386 L898.924833,360.77509 L899.924746,353.776732 L894.925182,347.778139 L894.925182,338.78025 L885.925968,332.781657 L878.926579,335.780953 L873.927016,335.780953 L877.926666,339.780015 L882.92623,339.780015 L881.926317,343.779077 L877.926666,346.778373 L881.926317,349.77767 L882.92623,356.776028 L879.926492,360.77509 L885.925968,360.77509 L885.925968,364.774152 L883.926143,369.772979 L878.926579,366.773683 L879.926492,363.774386 L876.926754,360.77509 L876.926754,357.775794 L873.927016,354.776497 L868.927452,354.776497 L868.927452,359.775324 L870.927278,364.774152 L862.927976,358.775559 L866.927627,365.773917 L860.928151,364.774152 L861.928063,368.773214 L856.9285,366.773683 L858.928325,369.772979 L853.928762,375.771572 L860.928151,377.771103 L857.928413,380.770399 L860.928151,384.769461 L859.928238,388.768523 L853.928762,388.768523 L849.929111,388.768523 L857.928413,393.767351 L853.928762,394.767116 L849.929111,396.766647 L852.928849,398.766178 L856.9285,400.765709 L854.928674,404.764771 L849.929111,404.764771 L846.929373,407.764067 L841.929809,408.763833 L838.930071,401.765474 L831.930682,404.764771 L827.931032,401.765474 L827.931032,398.766178 L822.931468,398.766178 L816.931992,401.765474 L816.931992,393.767351 L813.932254,399.765943 L809.932603,400.765709 L810.932516,404.764771 L810.932516,409.763598 L814.932166,409.763598 L814.932166,413.76266 L815.932079,418.761487 L811.932428,418.761487 L811.932428,412.762895 L806.932865,406.764302 L802.933214,403.765005 L799.933476,401.765474 L797.933651,398.766178 L793.934,399.765943 L787.934524,400.765709 L783.934873,403.765005 L779.935222,407.764067 L779.935222,411.763129 L781.935047,416.761957 L777.935397,424.76008 L779.935222,428.759142 L779.935222,433.75797 L779.935222,438.756797 L775.935571,435.757501 L769.936095,434.757735 L767.93627,431.758439 L766.936357,427.759377 L766.936357,415.762191 L764.936532,411.763129 L759.936968,410.763364 L755.937317,412.762895 L751.937667,411.763129 L748.937928,406.764302 L741.93854,405.764536 L739.938714,410.763364 L739.938714,416.761957 L736.938976,412.762895 L732.939325,409.763598 L732.939325,415.762191 L736.938976,420.761018 L734.939151,424.76008 L731.939413,422.760549 L731.939413,416.761957 L723.940111,419.761253 L723.940111,424.76008 L723.940111,428.759142 L727.939762,426.759611 L727.939762,431.758439 L733.939238,431.758439 L733.939238,435.757501 L741.93854,434.757735 L743.938365,438.756797 L738.938801,442.755859 L736.938976,448.754452 L732.939325,449.754217 L727.939762,452.753514 L727.939762,444.75539 L725.939936,439.756562 L722.940198,441.756093 L718.940547,444.75539 L717.940635,447.754686 L710.941246,439.756562 L713.940984,436.757266 L717.940635,436.757266 L717.940635,432.758204 L722.940198,436.757266 L721.940286,428.759142 L721.940286,425.759846 L717.940635,425.759846 L713.940984,425.759846 L715.940809,421.760784 L720.940373,421.760784 L718.940547,416.761957 L713.940984,419.761253 L716.940722,414.762426 L713.940984,412.762895 L708.94142,416.761957 L704.94177,416.761957 L702.941944,412.762895 L702.941944,408.763833 L698.942294,408.763833 L697.942381,415.762191 L693.94273,418.761487 L685.943428,418.761487 L682.94369,415.762191 L676.944214,408.763833 L685.943428,399.765943 L689.943079,389.768289 L687.943254,383.769696 L679.943952,385.769227 L676.944214,380.770399 L674.944389,377.771103 L671.944651,379.770634 L671.944651,387.768758 L668.944913,389.768289 L668.944913,395.766882 L664.945262,402.76524 L661.945524,407.764067 L658.945786,404.764771 L660.945611,399.765943 L655.946047,399.765943 L653.946222,395.766882 L652.946309,390.768054 L657.945873,388.768523 L664.945262,383.769696 L669.944825,379.770634 L674.944389,372.772276 L670.944738,371.77251 L667.945,375.771572 L663.945349,375.771572 L660.945611,379.770634 L658.945786,375.771572 L665.945174,370.772745 L659.945698,371.77251 L659.945698,367.773448 L664.945262,363.774386 L667.945,358.775559 L662.945436,349.77767 L657.945873,349.77767 L653.946222,349.77767 L652.946309,344.778842 L653.946222,336.780719 L647.946746,335.780953 L646.946833,340.77978 L643.947095,344.778842 L641.94727,348.777904 L637.947619,352.776966 L630.94823,352.776966 L627.948492,356.776028 L620.949103,354.776497 L625.948667,359.775324 L629.948317,360.77509 L632.948055,363.774386 L631.948143,366.773683 L627.948492,366.773683 L623.948841,365.773917 L622.948928,369.772979 L622.948928,374.771807 L627.948492,375.771572 L625.948667,380.770399 L620.949103,380.770399 L620.949103,383.769696 L627.948492,384.769461 L630.94823,386.768992 L631.948143,389.768289 L630.94823,392.767585 L626.948579,389.768289 L626.948579,393.767351 L623.948841,398.766178 L616.949452,395.766882 L616.949452,398.766178 L611.949889,398.766178 L611.949889,394.767116 L609.950063,390.768054 L600.950849,390.768054 L600.950849,386.768992 L600.950849,381.770165 L607.950238,378.770868 L600.950849,375.771572 L601.950762,363.774386 L596.951198,366.773683 L594.951373,361.774855 L590.951722,364.774152 L585.952159,362.774621 L583.952333,359.775324 L584.952246,353.776732 L584.952246,348.777904 L580.952595,344.778842 L576.952944,349.77767 L575.953032,352.776966 L574.953119,357.775794 L569.953555,357.775794 L573.953206,345.778608 L567.95373,349.77767 L567.95373,339.780015 L562.954167,343.779077 L566.953817,332.781657 L563.954079,330.782126 L559.954428,335.780953 L555.954778,337.780484 L553.954952,332.781657 L549.955301,332.781657 L549.955301,328.782595 L545.955651,330.782126 L555.954778,310.786816 L552.95504,318.78494 L553.954952,321.784236 L561.954254,319.784705 L558.954516,316.785409 L562.954167,311.786582 L566.953817,311.786582 L565.953905,317.785175 L566.953817,321.784236 L562.954167,322.784002 L564.953992,326.783064 L570.953468,325.783298 L572.953294,321.784236 L574.953119,325.783298 L578.95277,325.783298 L578.95277,329.78236 L573.953206,331.781891 L573.953206,334.781188 L584.952246,334.781188 L588.951897,329.78236 L594.951373,321.784236 L591.951635,314.785878 L591.951635,310.786816 L585.952159,310.786816 L584.952246,307.78752 L583.952333,304.788223 L588.951897,302.788692 L585.952159,300.789161 L580.952595,300.789161 L574.953119,301.788927 L574.953119,297.789865 L584.952246,297.789865 L587.951984,294.790569 L582.952421,286.792445 L579.952682,283.793148 L573.953206,287.79221 L570.953468,280.793852 L574.953119,283.793148 L579.952682,278.794321 L575.953032,271.795963 L575.953032,265.79737 L570.953468,260.798543 L564.953992,260.798543 L562.954167,263.797839 L558.954516,263.797839 L558.954516,266.797135 L555.954778,269.796432 L552.95504,266.797135 L546.955563,268.796666 L546.955563,263.797839 L550.955214,260.798543 L547.955476,257.799246 L543.955825,255.799715 L545.955651,249.801122 L549.955301,247.801591 L549.955301,242.802764 L546.955563,239.803468 L544.955738,244.802295 L539.956174,244.802295 L539.956174,239.803468 L541.956,236.804171 L537.956349,232.805109 L532.956786,236.804171 L528.957135,233.804875 L525.957397,238.803702 L520.957833,235.804406 L520.957833,232.805109 L522.957659,229.805813 L519.957921,227.806282 L515.95827,229.805813 L511.958619,223.80722 L507.958968,220.807924 L506.959055,217.808627 L501.959492,217.808627 L500.959579,212.8098 L496.959928,210.810269 L496.959928,215.809096 L492.960278,215.809096 L488.960627,216.808862 L486.960801,220.807924 L483.961063,215.809096 L487.960714,211.810034 L483.961063,210.810269 L479.961413,211.810034 L479.961413,215.809096 L476.961675,209.810503 L471.962111,209.810503 L472.962024,213.809565 L468.962373,213.809565 L467.96246,209.810503 L465.962635,216.808862 L462.962897,208.810738 L460.963071,204.811676 L461.962984,214.809331 L457.963333,208.810738 L455.963508,211.810034 L452.96377,209.810503 L453.963682,205.811441 L456.963421,203.81191 L455.963508,198.813083 L460.963071,197.813318 L450.963944,191.814725 L446.964294,185.816132 L442.964643,189.815194 L439.964905,192.81449 L435.965254,186.815897 L431.965603,188.815428 L431.965603,195.813787 L426.96604,195.813787 L424.966214,190.814959 L424.966214,186.815897 L418.966738,183.816601 L414.967087,180.817305 L416.966913,176.818243 L409.967524,176.818243 L409.967524,182.816836 L403.968048,184.816366 L404.96796,180.817305 L403.968048,176.818243 L401.968222,182.816836 L398.968484,185.816132 L396.968659,182.816836 L388.969357,182.816836 L384.969706,181.81707 L384.969706,177.818008 L380.970055,178.817774 L382.969881,173.818946 L374.970579,174.818712 L369.971016,178.817774 L365.971365,179.817539 L365.971365,174.818712 L362.971627,176.818243 L362.971627,170.81965 L357.972063,170.81965 L353.972413,174.818712 L348.972849,175.818477 L348.972849,169.819884 L355.972238,163.821291 L351.972587,161.821761 L348.972849,164.821057 L343.973286,167.820353 L337.973809,162.821526 L338.973722,157.822699 L337.973809,153.823637 L334.974071,147.825044 L330.974421,145.825513 L328.974595,140.826686 L327.974682,143.825982 L327.974682,149.824575 L326.97477,154.823402 L322.975119,158.822464 L319.975381,154.823402 L316.975643,152.823871 L313.975905,154.823402 L310.976167,152.823871 L307.976429,154.823402 L303.976778,151.824106 L304.97669,145.825513 L309.976254,147.825044 L309.976254,142.826217 L312.975992,139.82692 L304.97669,136.827624 L303.976778,132.828562 L295.977476,132.828562 L292.977738,129.829265 L287.978175,129.829265 L286.978262,133.828327 L283.978524,136.827624 L281.978698,133.828327 L280.978786,141.826451 L275.979222,142.826217 L274.979309,134.828093 L276.979135,123.830673 L271.979571,128.8295 L269.979746,122.830907 L271.979571,117.83208 L266.980008,114.832783 L261.980444,115.832549 L258.980706,122.830907 L258.980706,126.829969 L255.980968,120.831376 L249.981492,119.831611 L250.981405,123.830673 L248.981579,126.829969 L246.981754,134.828093 L243.982016,139.82692 L240.982278,132.828562 L241.98219,127.829734 L237.98254,124.830438 L234.982802,121.831142 L229.983238,121.831142 L225.983587,126.829969 L225.983587,130.829031 L223.983762,126.829969 L216.984373,124.830438 L212.984722,121.831142 L210.984897,126.829969 L214.984548,128.8295 L211.984809,132.828562 L203.985508,132.828562 L203.985508,128.8295 L204.985421,124.830438 L199.985857,123.830673 L198.985944,127.829734 L190.986643,126.829969 L186.986992,122.830907 L183.987254,125.830203 L174.98804,125.830203 L173.988127,120.831376 L169.988476,120.831376 L164.988913,116.832314 L160.989262,114.832783 L152.98996,113.833018 L144.990659,112.833252 L142.990833,109.833956 L137.99127,107.834425 L136.991357,110.833721 L132.991706,106.834659 L127.992143,106.834659 L121.992667,107.834425 L116.993103,101.835832 L112.993452,101.835832 L107.993889,103.835363 L103.994238,102.835598 L100.9945,98.8365357 L94.9950238,97.8367702 L91.9952857,101.835832 L86.9957222,102.835598 L85.9958095,97.8367702 L82.9960714,95.8372392 L77.9965079,97.8367702 L76.9965952,102.835598 L72.9969444,102.835598 L70.997119,97.8367702 L60.9979921,92.8379428 L41.9869537,754.820535 L38,754.820535 L38,1340 L4186.63778,1340 L4186.63778,815 L4187,815 L4186.63778,814.093428 L4186.63778,792.420569 L4193,794 L4186,7 L4179,10 L4179,20 L4171,20 L4169,26 L4175,33 L4155,33 L4153,45 L4142,49 L4137,43 L4144,43 L4147,29 L4143,29 L4147,22 L4146,14 L4150,8 L4141,8 L4131,-4.54747351e-13 L4119,2 L4119,10 L4119,20 L4108,22 L4108,15 L4101,15 L4099,29 L4115,41 L4103,46 L4098,46 L4097,40 L4082,44 L4087,58 L4084,68 L4074,73 L4071,64 L4080,63 L4081,51 L4074,51 L4074,36 L4083,33 L4077,29 L4081,28 L4069,19 L4062,19 L4069,27 L4069,31 L4065,33 L4064,46 L4048,39 L4035,35 L4029,45 L4029,50 L4015,56 L4020,61 L4008,73 L4003,78 L4003,67 L3992,67 L3987,56 L3990,52 L3973,49 L3973,45 L3968,51 L3973,60 L3974,69 L3972,71 L3969,71 L3969,63 L3958,63 L3956,70 L3961,84 L3950,95 L3945,85 L3945,76 L3935,77 L3931,70 L3921,79 L3927,81 L3929,92 L3924,96 L3922,104 L3913,104 L3912,96 L3917,95 L3918,91 L3907,92 L3897.02318,95.8372392 Z" id="Path-11" fill="#330017"></path>
                <g id="Group" transform="translate(1272.000000, 752.000000)" stroke-width="10">
                    <path d="M0,0 C0,0 302,75 697,63 C1092,51 1248,79.0000034 1617,217 C1986,354.999997 3344,781 3344,781" id="Path-20" stroke="url(#linearGradient-1)"></path>
                    <path d="M8,1 C8,1 313,75 708,63 C1103,51 1277,58.0000034 1646,196 C2015,333.999997 3373,760 3373,760" id="Path-20-Copy" stroke="url(#linearGradient-1)"></path>
                    <path d="M8,1 C8,1 313,75 708,63 C1103,51 1306.5,40 1684,166 C2061.5,292 3380,640 3380,640" id="Path-20-Copy-2" stroke="url(#linearGradient-2)"></path>
                    <path d="M8,1 C8,1 313,75 708,63 C1103,51 1341,39 1724,155 C2107,271 3388,606 3388,606" id="Path-20-Copy-3" stroke="url(#linearGradient-2)"></path>
                    <path d="M8,1 C8,1 313,75 708,63 C1103,51 1511,53 1955,182 C2399,311 3387,376 3387,376" id="Path-20-Copy-4" stroke="url(#linearGradient-3)"></path>
                    <path d="M8,1 C8,1 313,75 708,63 C1103,51 1517,42 1968,165 C2419,288 3369,355 3369,355" id="Path-20-Copy-5" stroke="url(#linearGradient-3)"></path>
                </g>
                <g id="Group" transform="translate(0.000000, 812.000000)" stroke-width="10">
                    <path d="M1266,2 C1266,2 1460,36 1440,69 C1412.75629,113.952115 1288,138 966,236 C644,334 0,331 0,331" id="Path-20-Copy-10" stroke="url(#linearGradient-4)"></path>
                    <path d="M1266,2 C1266,2 1469.9858,35.6234219 1463,69 C1454,112 1351,153 988,256 C625,359 1,356 1,356" id="Path-20-Copy-11" stroke="url(#linearGradient-4)"></path>
                    <path d="M1276,0 C1276,0 1408,19.0000017 1552,32.0000008 C1696,45 1787,-4 1930,175 C2073,354 2213,513 2213,513" id="Path-20-Copy-6" stroke="url(#linearGradient-5)"></path>
                    <path d="M1275,0 C1275,0 1401,25.0000017 1577,36.0000008 C1753,47 1798,43 1899,215 C2000,387 2117,521 2117,521" id="Path-20-Copy-7" stroke="url(#linearGradient-5)"></path>
                    <path d="M1266,2 C1266,2 1365.18207,15.0032571 1466,49 C1552,78 1555.98579,94.279484 1589,166 C1618,229 1663.31829,370.528384 1706,548" id="Path-20-Copy-8" stroke="url(#linearGradient-6)"></path>
                    <path d="M1266,2 C1266,2 1377.04011,2.68323786 1478,35.9999987 C1578,68.9999965 1651,75.0000025 1702,170 C1886.07315,512.881349 1857,533 1857,533" id="Path-20-Copy-9" stroke="url(#linearGradient-7)"></path>
                </g>
            </g>
        </g>
    </g>
</svg>